<svg width="50" height="50" viewBox="0 0 50 50" fill="none" xmlns="http://www.w3.org/2000/svg">
	<path d="M17.4792 38.5209V17.3542C17.4792 16.5209 17.7292 15.7084 18.1875 15.0209L23.875 6.56255C24.7708 5.20838 27 4.25005 28.8958 4.95838C30.9375 5.64588 32.2917 7.93755 31.8542 9.97922L30.7708 16.7917C30.6875 17.4167 30.8542 17.9792 31.2083 18.4167C31.5625 18.8126 32.0833 19.0626 32.6458 19.0626H41.2083C42.8542 19.0626 44.2708 19.7292 45.1042 20.8959C45.8958 22.0209 46.0417 23.4792 45.5208 24.9584L40.3958 40.5625C39.75 43.1459 36.9375 45.2501 34.1458 45.2501H26.0208C24.625 45.2501 22.6667 44.7709 21.7708 43.8751L19.1042 41.8126C18.0833 41.0417 17.4792 39.8126 17.4792 38.5209Z" fill="white"/>
	<path d="M10.8542 13.2916H8.70834C5.47917 13.2916 4.16667 14.5416 4.16667 17.625V38.5833C4.16667 41.6666 5.47917 42.9166 8.70834 42.9166H10.8542C14.0833 42.9166 15.3958 41.6666 15.3958 38.5833V17.625C15.3958 14.5416 14.0833 13.2916 10.8542 13.2916Z" fill="white"/>
</svg>
