<svg width="50" height="50" viewBox="0 0 50 50" fill="none" xmlns="http://www.w3.org/2000/svg">
	<path d="M19.4167 27.6667H25.8542V42.6667C25.8542 44.8751 28.6042 45.9167 30.0625 44.2501L45.8334 26.3334C47.2084 24.7709 46.1042 22.3334 44.0208 22.3334H37.5834V7.33339C37.5834 5.12506 34.8333 4.08339 33.375 5.75006L17.6042 23.6667C16.25 25.2292 17.3542 27.6667 19.4167 27.6667Z" fill="white"/>
	<path d="M17.7083 9.89587H3.125C2.27083 9.89587 1.5625 9.18754 1.5625 8.33337C1.5625 7.47921 2.27083 6.77087 3.125 6.77087H17.7083C18.5625 6.77087 19.2708 7.47921 19.2708 8.33337C19.2708 9.18754 18.5625 9.89587 17.7083 9.89587Z" fill="white"/>
	<path d="M15.625 43.2291H3.125C2.27083 43.2291 1.5625 42.5208 1.5625 41.6666C1.5625 40.8125 2.27083 40.1041 3.125 40.1041H15.625C16.4792 40.1041 17.1875 40.8125 17.1875 41.6666C17.1875 42.5208 16.4792 43.2291 15.625 43.2291Z" fill="white"/>
	<path d="M9.375 26.5625H3.125C2.27083 26.5625 1.5625 25.8542 1.5625 25C1.5625 24.1458 2.27083 23.4375 3.125 23.4375H9.375C10.2292 23.4375 10.9375 24.1458 10.9375 25C10.9375 25.8542 10.2292 26.5625 9.375 26.5625Z" fill="white"/>
</svg>
