<svg width="34" height="34" viewBox="0 0 34 34" fill="none" xmlns="http://www.w3.org/2000/svg">
	<path d="M30.0951 11.8195C30.4474 12.4154 29.9697 13.1043 29.2774 13.1043H3.83333C3.28105 13.1043 2.83333 12.6566 2.83333 12.1043V9.09516C2.83333 5.6385 5.63833 2.8335 9.095 2.8335H12.3817C14.6908 2.8335 15.4133 3.58433 16.3342 4.81683L18.3175 7.45183C18.7567 8.03266 18.8133 8.1035 19.635 8.1035H23.5875C26.3558 8.1035 28.7794 9.5937 30.0951 11.8195Z" fill="white"/>
	<path d="M31.1417 16.2256C31.1398 15.6747 30.6927 15.229 30.1417 15.229L3.83333 15.229C3.28105 15.229 2.83333 15.6767 2.83333 16.229V23.5873C2.83333 27.7665 6.23333 31.1665 10.4125 31.1665H23.5875C27.7667 31.1665 31.1667 27.7665 31.1667 23.5873L31.1417 16.2256ZM20.5983 24.0407L17.5525 26.704C17.3967 26.8457 17.1983 26.9165 17 26.9165C16.8017 26.9165 16.6033 26.8457 16.4475 26.704L13.4017 24.0407C12.4383 23.1907 12.3108 21.7457 13.1183 20.7398C13.9258 19.7198 15.385 19.5357 16.4333 20.3148L17 20.7398L17.5667 20.3148C18.615 19.5357 20.0742 19.7198 20.8817 20.7398C21.6892 21.7457 21.5617 23.1907 20.5983 24.0407Z" fill="white"/>
</svg>
