<svg width="34" height="34" viewBox="0 0 34 34" fill="none" xmlns="http://www.w3.org/2000/svg">
	<path d="M17 19.0032L21.1749 23.1781L7.4375 31.1086C7.09856 31.3067 6.71103 31.4063 6.31856 31.396C5.92609 31.3858 5.54429 31.2661 5.21617 31.0505L5.06317 30.94L17 19.0032ZM4.25 6.25319L14.9968 17L4.25 27.7469V6.25319ZM23.715 12.2882L28.6875 15.1598C30.1042 15.9772 30.1042 18.0214 28.6875 18.8403L23.715 21.7119L19.0032 17L23.715 12.2882V12.2882ZM7.4375 2.89144L21.1749 10.8219L17 14.9969L5.06317 3.05861C5.39637 2.79551 5.80107 2.63886 6.22457 2.60904C6.64806 2.57922 7.07072 2.67763 7.4375 2.89144V2.89144Z" fill="white"/>
</svg>
