<svg width="210" height="117" viewBox="0 0 210 117" fill="none" xmlns="http://www.w3.org/2000/svg">
	<path fill-rule="evenodd" clip-rule="evenodd" d="M22.2653 57.8486C23.5549 57.5031 24.3201 56.1776 23.9746 54.8881C23.6291 53.5986 22.3036 52.8333 21.0141 53.1788C19.7245 53.5244 18.9593 54.8498 19.3048 56.1394C19.6503 57.4289 20.9758 58.1942 22.2653 57.8486ZM3.58617 62.8537C4.87569 62.5082 5.64096 61.1827 5.29543 59.8932C4.9499 58.6037 3.62443 57.8384 2.3349 58.1839C1.04537 58.5295 0.280106 59.8549 0.625634 61.1445C0.971162 62.434 2.29664 63.1993 3.58617 62.8537ZM143.68 25.3157C144.97 24.9702 145.735 23.6447 145.389 22.3551C145.044 21.0656 143.718 20.3004 142.429 20.6459C141.139 20.9914 140.374 22.3169 140.72 23.6064C141.065 24.8959 142.391 25.6612 143.68 25.3157ZM126.71 27.3602C127.056 28.6498 126.29 29.9752 125.001 30.3208C123.711 30.6663 122.386 29.901 122.04 28.6115C121.695 27.322 122.46 25.9965 123.75 25.651C125.039 25.3054 126.365 26.0707 126.71 27.3602ZM223.402 23.9746C224.691 23.6291 225.457 22.3036 225.111 21.0141C224.766 19.7245 223.44 18.9593 222.151 19.3048C220.861 19.6503 220.096 20.9758 220.441 22.2653C220.787 23.5549 222.112 24.3201 223.402 23.9746ZM206.432 26.0191C206.777 27.3087 206.012 28.6341 204.723 28.9797C203.433 29.3252 202.108 28.5599 201.762 27.2704C201.417 25.9809 202.182 24.6554 203.471 24.3099C204.761 23.9643 206.086 24.7296 206.432 26.0191ZM186.043 33.9847C187.333 33.6392 188.098 32.3137 187.753 31.0242C187.407 29.7347 186.082 28.9694 184.792 29.315C183.503 29.6605 182.737 30.986 183.083 32.2755C183.428 33.565 184.754 34.3303 186.043 33.9847ZM148.685 43.9949C149.975 43.6494 150.74 42.3239 150.394 41.0344C150.049 39.7448 148.723 38.9796 147.434 39.3251C146.144 39.6706 145.379 40.9961 145.725 42.2856C146.07 43.5751 147.396 44.3404 148.685 43.9949ZM130.006 49C131.296 48.6544 132.061 47.329 131.715 46.0394C131.37 44.7499 130.044 43.9846 128.755 44.3302C127.465 44.6757 126.7 46.0012 127.045 47.2907C127.391 48.5802 128.716 49.3455 130.006 49ZM169.074 36.0293C169.419 37.3188 168.654 38.6443 167.364 38.9898C166.075 39.3354 164.749 38.5701 164.404 37.2806C164.058 35.991 164.824 34.6656 166.113 34.32C167.403 33.9745 168.728 34.7398 169.074 36.0293ZM164.069 17.3501C164.414 18.6397 163.649 19.9651 162.359 20.3107C161.07 20.6562 159.744 19.8909 159.399 18.6014C159.053 17.3119 159.819 15.9864 161.108 15.6409C162.398 15.2953 163.723 16.0606 164.069 17.3501ZM181.038 15.3056C182.328 14.96 183.093 13.6346 182.748 12.345C182.402 11.0555 181.077 10.2902 179.787 10.6358C178.498 10.9813 177.732 12.3068 178.078 13.5963C178.423 14.8858 179.749 15.6511 181.038 15.3056ZM201.427 7.33996C201.772 8.62949 201.007 9.95496 199.718 10.3005C198.428 10.646 197.103 9.88076 196.757 8.59123C196.412 7.3017 197.177 5.97622 198.466 5.63069C199.756 5.28516 201.081 6.05043 201.427 7.33996ZM218.397 5.2954C219.686 4.94988 220.452 3.6244 220.106 2.33488C219.761 1.04535 218.435 0.280084 217.146 0.625609C215.856 0.971138 215.091 2.29661 215.436 3.58614C215.782 4.87567 217.107 5.64093 218.397 5.2954ZM8.59121 81.5329C9.88073 81.1874 10.646 79.8619 10.3005 78.5724C9.95494 77.2829 8.62947 76.5176 7.33994 76.8631C6.05041 77.2087 5.28515 78.5341 5.63067 79.8237C5.9762 81.1132 7.30168 81.8785 8.59121 81.5329ZM27.2704 76.5278C28.56 76.1823 29.3252 74.8568 28.9797 73.5673C28.6342 72.2778 27.3087 71.5125 26.0192 71.858C24.7297 72.2036 23.9644 73.529 24.3099 74.8186C24.6554 76.1081 25.9809 76.8734 27.2704 76.5278ZM47.6589 68.5623C48.0044 69.8518 47.2392 71.1773 45.9497 71.5228C44.6601 71.8683 43.3347 71.1031 42.9891 69.8135C42.6436 68.524 43.4089 67.1985 44.6984 66.853C45.9879 66.5075 47.3134 67.2727 47.6589 68.5623ZM64.6288 66.5177C65.9183 66.1722 66.6835 64.8467 66.338 63.5572C65.9925 62.2677 64.667 61.5024 63.3775 61.8479C62.088 62.1935 61.3227 63.5189 61.6682 64.8085C62.0137 66.098 63.3392 66.8633 64.6288 66.5177ZM85.0172 58.5521C85.3627 59.8416 84.5975 61.1671 83.308 61.5126C82.0184 61.8582 80.693 61.0929 80.3474 59.8034C80.0019 58.5139 80.7672 57.1884 82.0567 56.8428C83.3462 56.4973 84.6717 57.2626 85.0172 58.5521ZM101.987 56.5076C103.277 56.162 104.042 54.8366 103.696 53.547C103.351 52.2575 102.025 51.4922 100.736 51.8378C99.4464 52.1833 98.6811 53.5088 99.0266 54.7983C99.3722 56.0878 100.698 56.8531 101.987 56.5076ZM24.6452 94.7491C24.9907 96.0386 24.2254 97.3641 22.9359 97.7096C21.6464 98.0551 20.3209 97.2899 19.9754 96.0003C19.6298 94.7108 20.3951 93.3853 21.6846 93.0398C22.9742 92.6943 24.2996 93.4595 24.6452 94.7491ZM46.6201 111.384C47.9097 111.038 48.6749 109.713 48.3294 108.423C47.9839 107.134 46.6584 106.368 45.3689 106.714C44.0793 107.059 43.3141 108.385 43.6596 109.674C44.0051 110.964 45.3306 111.729 46.6201 111.384ZM27.941 116.389C29.2305 116.043 29.9958 114.718 29.6502 113.428C29.3047 112.139 27.9792 111.373 26.6897 111.719C25.4002 112.065 24.6349 113.39 24.9804 114.68C25.326 115.969 26.6515 116.734 27.941 116.389ZM67.0086 103.418C67.3541 104.708 66.5889 106.033 65.2993 106.379C64.0098 106.724 62.6843 105.959 62.3388 104.669C61.9933 103.38 62.7585 102.054 64.0481 101.709C65.3376 101.363 66.6631 102.129 67.0086 103.418ZM83.9784 101.374C85.268 101.028 86.0332 99.7026 85.6877 98.4131C85.3422 97.1235 84.0167 96.3583 82.7272 96.7038C81.4376 97.0493 80.6724 98.3748 81.0179 99.6643C81.3634 100.954 82.6889 101.719 83.9784 101.374ZM104.367 93.408C104.712 94.6975 103.947 96.023 102.658 96.3685C101.368 96.714 100.043 95.9488 99.6971 94.6592C99.3516 93.3697 100.117 92.0442 101.406 91.6987C102.696 91.3532 104.021 92.1184 104.367 93.408ZM121.337 91.3634C122.626 91.0179 123.392 89.6924 123.046 88.4029C122.701 87.1134 121.375 86.3481 120.086 86.6936C118.796 87.0392 118.031 88.3646 118.376 89.6542C118.722 90.9437 120.047 91.709 121.337 91.3634ZM41.6151 92.7045C42.9046 92.359 43.6699 91.0335 43.3244 89.744C42.9788 88.4545 41.6534 87.6892 40.3638 88.0347C39.0743 88.3803 38.309 89.7057 38.6546 90.9953C39.0001 92.2848 40.3256 93.0501 41.6151 92.7045ZM62.0036 84.739C62.3491 86.0285 61.5838 87.354 60.2943 87.6995C59.0048 88.045 57.6793 87.2798 57.3338 85.9902C56.9882 84.7007 57.7535 83.3752 59.043 83.0297C60.3326 82.6842 61.658 83.4494 62.0036 84.739ZM78.9734 82.6944C80.2629 82.3489 81.0282 81.0234 80.6827 79.7339C80.3371 78.4444 79.0117 77.6791 77.7221 78.0246C76.4326 78.3702 75.6673 79.6956 76.0129 80.9852C76.3584 82.2747 77.6839 83.0399 78.9734 82.6944ZM99.3619 74.7288C99.7074 76.0183 98.9421 77.3438 97.6526 77.6893C96.3631 78.0349 95.0376 77.2696 94.6921 75.9801C94.3465 74.6905 95.1118 73.3651 96.4013 73.0195C97.6909 72.674 99.0163 73.4393 99.3619 74.7288ZM116.332 72.6843C117.621 72.3387 118.387 71.0133 118.041 69.7237C117.696 68.4342 116.37 67.6689 115.081 68.0145C113.791 68.36 113.026 69.6855 113.371 70.975C113.717 72.2645 115.042 73.0298 116.332 72.6843ZM211.437 44.6983C211.783 45.9878 211.017 47.3133 209.728 47.6588C208.438 48.0043 207.113 47.2391 206.767 45.9495C206.422 44.66 207.187 43.3345 208.477 42.989C209.766 42.6435 211.092 43.4087 211.437 44.6983ZM136.72 64.7186C137.066 66.0081 136.301 67.3336 135.011 67.6791C133.722 68.0247 132.396 67.2594 132.051 65.9699C131.705 64.6803 132.47 63.3549 133.76 63.0093C135.049 62.6638 136.375 63.4291 136.72 64.7186ZM140.016 86.3583C141.306 86.0127 142.071 84.6873 141.725 83.3977C141.38 82.1082 140.054 81.343 138.765 81.6885C137.475 82.034 136.71 83.3595 137.056 84.649C137.401 85.9385 138.727 86.7038 140.016 86.3583ZM158.695 81.3532C159.985 81.0077 160.75 79.6822 160.405 78.3927C160.059 77.1031 158.734 76.3379 157.444 76.6834C156.155 77.0289 155.389 78.3544 155.735 79.6439C156.08 80.9335 157.406 81.6987 158.695 81.3532ZM179.084 73.3876C179.429 74.6772 178.664 76.0026 177.375 76.3482C176.085 76.6937 174.76 75.9284 174.414 74.6389C174.069 73.3494 174.834 72.0239 176.123 71.6784C177.413 71.3328 178.738 72.0981 179.084 73.3876ZM196.054 71.3431C197.343 70.9976 198.108 69.6721 197.763 68.3825C197.417 67.093 196.092 66.3278 194.802 66.6733C193.513 67.0188 192.748 68.3443 193.093 69.6338C193.439 70.9233 194.764 71.6886 196.054 71.3431ZM216.442 63.3775C216.788 64.667 216.022 65.9925 214.733 66.338C213.443 66.6835 212.118 65.9183 211.772 64.6287C211.427 63.3392 212.192 62.0137 213.482 61.6682C214.771 61.3227 216.097 62.0879 216.442 63.3775ZM233.412 61.3329C234.702 60.9874 235.467 59.6619 235.121 58.3724C234.776 57.0829 233.45 56.3176 232.161 56.6631C230.871 57.0087 230.106 58.3341 230.452 59.6237C230.797 60.9132 232.123 61.6784 233.412 61.3329ZM153.69 62.674C154.98 62.3285 155.745 61.003 155.4 59.7135C155.054 58.424 153.729 57.6587 152.439 58.0042C151.149 58.3498 150.384 59.6753 150.73 60.9648C151.075 62.2543 152.401 63.0196 153.69 62.674ZM174.079 54.7085C174.424 55.998 173.659 57.3235 172.37 57.669C171.08 58.0145 169.754 57.2493 169.409 55.9598C169.063 54.6702 169.829 53.3447 171.118 52.9992C172.408 52.6537 173.733 53.419 174.079 54.7085ZM191.049 52.6639C192.338 52.3184 193.103 50.9929 192.758 49.7034C192.412 48.4139 191.087 47.6486 189.797 47.9941C188.508 48.3397 187.743 49.6651 188.088 50.9547C188.434 52.2442 189.759 53.0095 191.049 52.6639ZM228.407 42.6538C229.697 42.3082 230.462 40.9828 230.116 39.6932C229.771 38.4037 228.445 37.6384 227.156 37.984C225.866 38.3295 225.101 39.655 225.446 40.9445C225.792 42.234 227.117 42.9993 228.407 42.6538ZM40.9445 52.8436C42.2341 52.4981 42.9993 51.1726 42.6538 49.8831C42.3083 48.5935 40.9828 47.8283 39.6933 48.1738C38.4037 48.5193 37.6385 49.8448 37.984 51.1343C38.3295 52.4239 39.655 53.1891 40.9445 52.8436ZM61.3329 44.878C61.6784 46.1675 60.9132 47.493 59.6236 47.8385C58.3341 48.1841 57.0086 47.4188 56.6631 46.1293C56.3176 44.8397 57.0828 43.5143 58.3724 43.1687C59.6619 42.8232 60.9874 43.5885 61.3329 44.878ZM78.3028 42.8334C79.5924 42.4879 80.3576 41.1624 80.0121 39.8729C79.6666 38.5834 78.3411 37.8181 77.0516 38.1636C75.762 38.5092 74.9968 39.8347 75.3423 41.1242C75.6878 42.4137 77.0133 43.179 78.3028 42.8334ZM98.6913 34.8678C99.0368 36.1574 98.2716 37.4828 96.9821 37.8284C95.6925 38.1739 94.367 37.4086 94.0215 36.1191C93.676 34.8296 94.4413 33.5041 95.7308 33.1586C97.0203 32.813 98.3458 33.5783 98.6913 34.8678Z" fill="#223549"/>
</svg>
