<svg width="30" height="30" viewBox="0 0 30 30" fill="none" xmlns="http://www.w3.org/2000/svg">
	<path d="M22.5875 10.6378L11.8875 5.28779C4.69996 1.68779 1.74996 4.63779 5.34996 11.8253L6.43746 14.0003C6.74996 14.6378 6.74996 15.3753 6.43746 16.0128L5.34996 18.1753C1.74996 25.3628 4.68746 28.3128 11.8875 24.7128L22.5875 19.3628C27.3875 16.9628 27.3875 13.0378 22.5875 10.6378ZM18.55 15.9378H11.8C11.2875 15.9378 10.8625 15.5128 10.8625 15.0003C10.8625 14.4878 11.2875 14.0628 11.8 14.0628H18.55C19.0625 14.0628 19.4875 14.4878 19.4875 15.0003C19.4875 15.5128 19.0625 15.9378 18.55 15.9378Z" fill="white"/>
</svg>
