<svg width="297" height="84" viewBox="0 0 297 84" fill="none" xmlns="http://www.w3.org/2000/svg">
	<path d="M61.5282 37L62.738 31.457H58.7426V29.3468H63.1882L64.1449 24.7605H59.9244V22.6784H64.5951L65.7768 17.1354H68.0278L66.846 22.6784H72.8954L74.0772 17.1354H76.3L75.1182 22.6784H79.0293V24.7605H74.6681L73.7114 29.3468H77.7912V31.457H73.2612L72.0513 37H69.8004L71.0103 31.457H64.9609L63.7791 37H61.5282ZM65.411 29.3468H71.4605L72.4453 24.7605H66.3958L65.411 29.3468ZM91.9568 37L85.3447 19.3863H85.2321C85.2696 19.7615 85.2978 20.2398 85.3165 20.8213C85.354 21.4028 85.3822 22.0406 85.4009 22.7346C85.4197 23.4099 85.4291 24.104 85.4291 24.8168V37H83.0937V16.9103H86.8359L93.026 33.3703H93.1386L99.4412 16.9103H103.155V37H100.651V24.6479C100.651 23.9914 100.66 23.3443 100.679 22.7065C100.698 22.05 100.726 21.4403 100.764 20.8776C100.801 20.2961 100.829 19.8084 100.848 19.4145H100.736L94.0389 37H91.9568ZM108.62 37V16.9103H111.153V25.4076H114.248C116.123 25.4076 117.596 25.6609 118.665 26.1673C119.753 26.6738 120.522 27.3584 120.972 28.2213C121.441 29.0842 121.676 30.0502 121.676 31.1194C121.676 32.3011 121.422 33.3328 120.916 34.2145C120.428 35.0961 119.659 35.7807 118.609 36.2684C117.558 36.7561 116.208 37 114.557 37H108.62ZM114.332 34.8616C115.945 34.8616 117.136 34.5521 117.905 33.9331C118.674 33.3141 119.059 32.3762 119.059 31.1194C119.059 30.2565 118.871 29.5719 118.496 29.0654C118.14 28.559 117.586 28.1932 116.836 27.9681C116.086 27.743 115.129 27.6304 113.966 27.6304H111.153V34.8616H114.332ZM124.771 37V16.9103H127.303V37H124.771ZM138.513 16.9103C140.182 16.9103 141.58 17.0697 142.705 17.3886C143.849 17.7075 144.703 18.2327 145.266 18.9643C145.847 19.6958 146.138 20.6713 146.138 21.8905C146.138 22.6784 145.988 23.3818 145.688 24.0008C145.406 24.601 144.975 25.1075 144.393 25.5202C143.831 25.9141 143.137 26.1861 142.311 26.3361V26.4768C143.155 26.6081 143.915 26.852 144.59 27.2084C145.284 27.5648 145.828 28.0712 146.222 28.7278C146.616 29.3843 146.813 30.2378 146.813 31.2882C146.813 32.5075 146.532 33.5485 145.969 34.4114C145.406 35.2555 144.6 35.9027 143.549 36.3529C142.518 36.7843 141.28 37 139.835 37H132.773V16.9103H138.513ZM139.019 25.4639C140.745 25.4639 141.927 25.1919 142.564 24.6479C143.202 24.0852 143.521 23.2598 143.521 22.1719C143.521 21.0652 143.127 20.2773 142.339 19.8084C141.57 19.3207 140.332 19.0768 138.625 19.0768H135.305V25.4639H139.019ZM135.305 27.5742V34.8616H139.357C141.139 34.8616 142.377 34.5146 143.071 33.8205C143.765 33.1265 144.112 32.2167 144.112 31.0913C144.112 30.3785 143.953 29.7595 143.634 29.2342C143.333 28.709 142.818 28.3057 142.086 28.0244C141.373 27.7242 140.398 27.5742 139.16 27.5742H135.305ZM159.936 37L153.324 19.3863H153.211C153.249 19.7615 153.277 20.2398 153.296 20.8213C153.333 21.4028 153.361 22.0406 153.38 22.7346C153.399 23.4099 153.408 24.104 153.408 24.8168V37H151.073V16.9103H154.815L161.005 33.3703H161.118L167.42 16.9103H171.134V37H168.63V24.6479C168.63 23.9914 168.64 23.3443 168.658 22.7065C168.677 22.05 168.705 21.4403 168.743 20.8776C168.78 20.2961 168.808 19.8084 168.827 19.4145H168.715L162.018 37H159.936ZM187.826 37H176.599V16.9103H187.826V19.1331H179.132V25.4076H187.319V27.6023H179.132V34.7772H187.826V37ZM200.844 18.8517C199.775 18.8517 198.808 19.0393 197.946 19.4145C197.083 19.7709 196.351 20.3055 195.751 21.0183C195.151 21.7123 194.691 22.5658 194.372 23.5787C194.053 24.5729 193.894 25.6984 193.894 26.9552C193.894 28.6058 194.147 30.0408 194.654 31.2601C195.179 32.4793 195.948 33.4172 196.961 34.0738C197.993 34.7303 199.277 35.0586 200.816 35.0586C201.697 35.0586 202.532 34.9835 203.32 34.8335C204.108 34.6834 204.877 34.4958 205.627 34.2707V36.4654C204.877 36.7468 204.098 36.9531 203.292 37.0844C202.504 37.2157 201.557 37.2814 200.45 37.2814C198.405 37.2814 196.698 36.8593 195.329 36.0152C193.96 35.1711 192.928 33.9706 192.234 32.4137C191.559 30.8568 191.221 29.0279 191.221 26.927C191.221 25.4076 191.427 24.0195 191.84 22.7628C192.271 21.506 192.89 20.418 193.697 19.4989C194.522 18.5798 195.535 17.8763 196.736 17.3886C197.936 16.8822 199.315 16.6289 200.872 16.6289C201.904 16.6289 202.898 16.7321 203.854 16.9384C204.811 17.1448 205.664 17.4355 206.415 17.8107L205.402 19.9491C204.783 19.6677 204.089 19.4145 203.32 19.1894C202.569 18.9643 201.744 18.8517 200.844 18.8517ZM216.371 37H213.838V19.1331H207.564V16.9103H222.617V19.1331H216.371V37ZM236.873 37H225.646V16.9103H236.873V19.1331H228.179V25.4076H236.366V27.6023H228.179V34.7772H236.873V37ZM71.2481 74V71.3833C72.4486 70.3891 73.6116 69.4043 74.7371 68.4289C75.8813 67.4535 76.8942 66.4875 77.7759 65.5308C78.6762 64.5742 79.389 63.6456 79.9143 62.7453C80.4582 61.8261 80.7302 60.9351 80.7302 60.0723C80.7302 59.2657 80.5051 58.5529 80.0549 57.9339C79.6235 57.3149 78.9013 57.0054 77.8884 57.0054C76.8567 57.0054 76.0783 57.343 75.553 58.0183C75.0278 58.6936 74.7652 59.5095 74.7652 60.4662H71.2762C71.3138 59.0218 71.6326 57.8213 72.2329 56.8647C72.8332 55.8893 73.6304 55.1671 74.6245 54.6981C75.6187 54.2104 76.7348 53.9666 77.9728 53.9666C79.9799 53.9666 81.5368 54.5199 82.6435 55.6266C83.769 56.7146 84.3317 58.1308 84.3317 59.8753C84.3317 60.9633 84.0785 62.0231 83.572 63.0548C83.0843 64.0865 82.4372 65.0806 81.6306 66.0373C80.824 66.9939 79.9518 67.8943 79.0139 68.7384C78.076 69.5638 77.1662 70.3328 76.2846 71.0456H84.8101V74H71.2481ZM95.7386 74.3376C93.9191 74.3376 92.3622 73.9156 91.0679 73.0715C89.7736 72.2086 88.77 71.0175 88.0572 69.4981C87.3632 67.96 87.0162 66.178 87.0162 64.1521C87.0162 62.145 87.3632 60.3724 88.0572 58.8342C88.77 57.2961 89.7736 56.105 91.0679 55.2609C92.3622 54.398 93.9191 53.9666 95.7386 53.9666C97.5581 53.9666 99.115 54.398 100.409 55.2609C101.704 56.105 102.698 57.2961 103.392 58.8342C104.105 60.3724 104.461 62.145 104.461 64.1521C104.461 66.178 104.105 67.96 103.392 69.4981C102.698 71.0175 101.704 72.2086 100.409 73.0715C99.115 73.9156 97.5581 74.3376 95.7386 74.3376ZM95.7386 71.1019C97.2205 71.1019 98.4303 70.4829 99.3682 69.2449C100.306 68.0069 100.775 66.3093 100.775 64.1521C100.775 61.995 100.306 60.2974 99.3682 59.0593C98.4303 57.8213 97.2205 57.2023 95.7386 57.2023C94.238 57.2023 93.0187 57.8213 92.0808 59.0593C91.1617 60.2974 90.7021 61.995 90.7021 64.1521C90.7021 66.3093 91.1617 68.0069 92.0808 69.2449C93.0187 70.4829 94.238 71.1019 95.7386 71.1019ZM107.024 74V71.3833C108.224 70.3891 109.387 69.4043 110.513 68.4289C111.657 67.4535 112.67 66.4875 113.551 65.5308C114.452 64.5742 115.165 63.6456 115.69 62.7453C116.234 61.8261 116.506 60.9351 116.506 60.0723C116.506 59.2657 116.281 58.5529 115.83 57.9339C115.399 57.3149 114.677 57.0054 113.664 57.0054C112.632 57.0054 111.854 57.343 111.329 58.0183C110.803 58.6936 110.541 59.5095 110.541 60.4662H107.052C107.089 59.0218 107.408 57.8213 108.008 56.8647C108.609 55.8893 109.406 55.1671 110.4 54.6981C111.394 54.2104 112.51 53.9666 113.748 53.9666C115.755 53.9666 117.312 54.5199 118.419 55.6266C119.545 56.7146 120.107 58.1308 120.107 59.8753C120.107 60.9633 119.854 62.0231 119.348 63.0548C118.86 64.0865 118.213 65.0806 117.406 66.0373C116.6 66.9939 115.727 67.8943 114.789 68.7384C113.852 69.5638 112.942 70.3328 112.06 71.0456H120.586V74H107.024ZM131.514 74.3376C129.695 74.3376 128.138 73.9156 126.843 73.0715C125.549 72.2086 124.546 71.0175 123.833 69.4981C123.139 67.96 122.792 66.178 122.792 64.1521C122.792 62.145 123.139 60.3724 123.833 58.8342C124.546 57.2961 125.549 56.105 126.843 55.2609C128.138 54.398 129.695 53.9666 131.514 53.9666C133.334 53.9666 134.891 54.398 136.185 55.2609C137.479 56.105 138.473 57.2961 139.167 58.8342C139.88 60.3724 140.237 62.145 140.237 64.1521C140.237 66.178 139.88 67.96 139.167 69.4981C138.473 71.0175 137.479 72.2086 136.185 73.0715C134.891 73.9156 133.334 74.3376 131.514 74.3376ZM131.514 71.1019C132.996 71.1019 134.206 70.4829 135.144 69.2449C136.082 68.0069 136.551 66.3093 136.551 64.1521C136.551 61.995 136.082 60.2974 135.144 59.0593C134.206 57.8213 132.996 57.2023 131.514 57.2023C130.013 57.2023 128.794 57.8213 127.856 59.0593C126.937 60.2974 126.478 61.995 126.478 64.1521C126.478 66.3093 126.937 68.0069 127.856 69.2449C128.794 70.4829 130.013 71.1019 131.514 71.1019ZM163.428 53.9103V57.4274H154.987V74H150.738V53.9103H163.428ZM184.194 63.927C184.194 65.4839 183.997 66.9001 183.603 68.1757C183.227 69.4325 182.646 70.5204 181.858 71.4395C181.089 72.3587 180.095 73.0621 178.876 73.5498C177.675 74.0375 176.259 74.2814 174.627 74.2814C172.995 74.2814 171.569 74.0375 170.35 73.5498C169.15 73.0433 168.156 72.3399 167.368 71.4395C166.599 70.5204 166.017 69.4231 165.623 68.1475C165.248 66.872 165.06 65.4558 165.06 63.8989C165.06 61.8168 165.398 60.0066 166.073 58.4685C166.767 56.9303 167.818 55.7392 169.225 54.8951C170.65 54.0322 172.46 53.6008 174.655 53.6008C176.831 53.6008 178.622 54.0322 180.029 54.8951C181.436 55.7392 182.477 56.9397 183.152 58.4966C183.847 60.0348 184.194 61.8449 184.194 63.927ZM169.534 63.927C169.534 65.3339 169.712 66.5437 170.069 67.5567C170.425 68.5696 170.979 69.348 171.729 69.892C172.479 70.436 173.445 70.708 174.627 70.708C175.846 70.708 176.822 70.436 177.553 69.892C178.304 69.348 178.848 68.5696 179.185 67.5567C179.542 66.5437 179.72 65.3339 179.72 63.927C179.72 61.8074 179.326 60.1473 178.538 58.9468C177.75 57.7463 176.456 57.146 174.655 57.146C173.455 57.146 172.479 57.418 171.729 57.962C170.979 58.506 170.425 59.2844 170.069 60.2974C169.712 61.3103 169.534 62.5202 169.534 63.927ZM203.534 53.9103V70.4548H206.207V79.8525H202.099V74H189.522V79.8525H185.414V70.4548H186.961C187.486 69.4043 187.993 68.2976 188.481 67.1346C188.968 65.9716 189.419 64.7242 189.831 63.3924C190.263 62.0606 190.647 60.6162 190.985 59.0593C191.322 57.4837 191.604 55.7673 191.829 53.9103H203.534ZM195.205 57.4555C195.074 58.431 194.886 59.472 194.643 60.5787C194.399 61.6667 194.108 62.7828 193.77 63.927C193.451 65.0712 193.095 66.1967 192.701 67.3034C192.307 68.4101 191.885 69.4606 191.435 70.4548H199.285V57.4555H195.205ZM221.588 74L220.125 69.2167H212.81L211.347 74H206.76L213.851 53.8259H219.056L226.175 74H221.588ZM217.649 60.9726C217.556 60.6538 217.434 60.2505 217.284 59.7628C217.133 59.2751 216.983 58.778 216.833 58.2715C216.683 57.765 216.561 57.3242 216.468 56.9491C216.374 57.3242 216.242 57.7932 216.074 58.3559C215.924 58.8999 215.774 59.4251 215.623 59.9316C215.492 60.4193 215.389 60.7663 215.314 60.9726L213.879 65.6434H219.112L217.649 60.9726Z" fill="white"/>
	<path d="M11.6556 29.9221C11.6556 29.9221 14.9497 25.6762 12.8193 19.7796C10.6815 13.8866 5.70321 11.6484 5.70321 11.6484C5.70321 11.6484 1.97783 16.7086 4.05988 22.4528C6.1382 28.2007 11.6556 29.9221 11.6556 29.9221Z" fill="white"/>
	<path d="M20.8024 32.9372C20.8024 32.9372 26.5614 32.4761 29.8593 27.3268C33.1571 22.1812 30.6363 16.4258 30.6363 16.4258C30.6363 16.4258 25.2899 17.5114 21.9029 22.7946C18.5195 28.0741 20.8024 32.9372 20.8024 32.9372Z" fill="white"/>
	<path d="M21.3877 39.741C18.722 45.4183 21.6182 49.9467 21.6182 49.9467C21.6182 49.9467 27.2732 48.7347 29.8684 43.2061C32.4598 37.6701 29.2103 32.2939 29.2103 32.2939C29.2103 32.2939 24.0535 34.0637 21.3877 39.741Z" fill="white"/>
	<path d="M34.3986 44.3145C34.3986 44.3145 29.4277 46.5675 27.3085 52.4642C25.1893 58.372 28.4945 62.603 28.4945 62.603C28.4945 62.603 34.0045 60.8667 36.0717 55.1151C38.1351 49.3634 34.3986 44.3145 34.3986 44.3145Z" fill="white"/>
	<path d="M38.5445 75.3667C38.5445 75.3667 43.3258 72.1135 43.6493 66.0123C43.969 59.9075 38.9312 56.1523 38.9312 56.1523C38.9312 56.1523 34.8192 59.7402 34.4883 66.0012C34.1611 72.2585 38.5445 75.3667 38.5445 75.3667Z" fill="white"/>
	<path d="M19.0003 18.56C19.0003 18.56 24.0976 16.8572 25.5922 10.771C27.0906 4.68469 24.1943 0.0595703 24.1943 0.0595703C24.1943 0.0595703 18.2902 2.2011 16.829 8.13866C15.3716 14.0725 19.0003 18.56 19.0003 18.56Z" fill="white"/>
	<path d="M11.6543 42.8636C11.6543 42.8636 13.5467 37.8332 9.77299 32.8326C5.99185 27.8282 0.578524 27.1553 0.578524 27.1553C0.578524 27.1553 -1.48865 33.0891 2.19211 37.967C5.87287 42.8487 11.6543 42.8636 11.6543 42.8636Z" fill="white"/>
	<path d="M15.8791 56.1369C15.8791 56.1369 16.6041 50.8128 11.8154 46.7751C7.01925 42.7337 1.59106 43.284 1.59106 43.284C1.59106 43.284 0.892084 49.5301 5.56182 53.4674C10.239 57.401 15.8791 56.1369 15.8791 56.1369Z" fill="white"/>
	<path d="M22.3113 67.1125C22.3113 67.1125 21.4004 61.8181 15.6078 59.4238C9.81154 57.022 4.80719 59.1895 4.80719 59.1895C4.80719 59.1895 6.03411 65.3539 11.6779 67.6962C17.3218 70.0273 22.3113 67.1125 22.3113 67.1125Z" fill="white"/>
	<path d="M25.123 71.6714C19.0851 69.9835 14.3707 72.731 14.3707 72.731C14.3707 72.731 16.3226 78.702 22.2044 80.3491C28.0936 81.9961 32.6965 78.505 32.6965 78.505C32.6965 78.505 31.1609 73.3556 25.123 71.6714Z" fill="white"/>
	<path d="M19.6283 22.189L16.944 20.8691C16.8027 21.1629 2.99425 50.4937 41.7947 83.6614L43.7355 81.3898C6.79399 49.8059 19.0855 23.3007 19.6283 22.189Z" fill="white"/>
	<path d="M284.812 29.8665C284.812 29.8665 281.514 25.6206 283.648 19.7276C285.778 13.831 290.76 11.5928 290.76 11.5928C290.76 11.5928 294.482 16.6492 292.4 22.3971C290.329 28.145 284.812 29.8665 284.812 29.8665Z" fill="white"/>
	<path d="M275.665 32.8815C275.665 32.8815 269.906 32.4167 266.604 27.2711C263.306 22.1255 265.827 16.3701 265.827 16.3701C265.827 16.3701 271.174 17.4558 274.564 22.7352C277.948 28.0184 275.665 32.8815 275.665 32.8815Z" fill="white"/>
	<path d="M275.081 39.6814C277.747 45.3587 274.851 49.8872 274.851 49.8872C274.851 49.8872 269.196 48.6751 266.597 43.1465C264.009 37.6105 267.255 32.2344 267.255 32.2344C267.255 32.2344 272.416 34.0078 275.081 39.6814Z" fill="white"/>
	<path d="M262.068 44.2588C262.068 44.2588 267.035 46.5081 269.158 52.416C271.277 58.32 267.968 62.5511 267.968 62.5511C267.968 62.5511 262.462 60.8111 260.395 55.0594C258.328 49.3077 262.068 44.2588 262.068 44.2588Z" fill="white"/>
	<path d="M257.917 75.3079C257.917 75.3079 253.139 72.0584 252.815 65.9535C252.496 59.8487 257.537 56.0898 257.537 56.0898C257.537 56.0898 261.642 59.6777 261.977 65.9424C262.307 72.2071 257.917 75.3079 257.917 75.3079Z" fill="white"/>
	<path d="M277.461 18.5042C277.461 18.5042 272.371 16.8014 270.876 10.7151C269.378 4.62884 272.278 0 272.278 0C272.278 0 278.182 2.14153 279.64 8.0828C281.097 14.0129 277.461 18.5042 277.461 18.5042Z" fill="white"/>
	<path d="M284.813 42.8079C284.813 42.8079 282.921 37.7775 286.691 32.7769C290.472 27.7726 295.889 27.0996 295.889 27.0996C295.889 27.0996 297.96 33.0334 294.275 37.9114C290.591 42.793 284.813 42.8079 284.813 42.8079Z" fill="white"/>
	<path d="M280.587 56.0821C280.587 56.0821 279.858 50.758 284.651 46.7129C289.447 42.6752 294.875 43.2254 294.875 43.2254C294.875 43.2254 295.574 49.4753 290.901 53.4089C286.227 57.3425 280.587 56.0821 280.587 56.0821Z" fill="white"/>
	<path d="M274.157 67.0574C274.157 67.0574 275.072 61.7593 280.864 59.3613C286.664 56.9595 291.665 59.127 291.665 59.127C291.665 59.127 290.438 65.2914 284.794 67.63C279.147 69.9723 274.157 67.0574 274.157 67.0574Z" fill="white"/>
	<path d="M271.346 71.6152C277.384 69.931 282.102 72.6748 282.102 72.6748C282.102 72.6748 280.154 78.6421 274.269 80.3003C268.383 81.9399 263.78 78.4488 263.78 78.4488C263.78 78.4488 265.312 73.3031 271.346 71.6152Z" fill="white"/>
	<path d="M276.835 22.1333L279.527 20.8135C279.668 21.1072 293.477 50.438 254.673 83.6021L252.735 81.3304C289.669 49.7539 277.378 23.2413 276.835 22.1333Z" fill="white"/>
</svg>
