<svg width="16" height="16" viewBox="0 0 16 16" fill="none" xmlns="http://www.w3.org/2000/svg">
	<path fill-rule="evenodd" clip-rule="evenodd" d="M8 0C5.82667 0 5.556 0.00933333 4.70133 0.0493333C1.79467 0.182667 0.181333 1.79467 0.048 4.70133C0.00933333 5.556 0 5.828 0 8C0 10.1733 0.00933333 10.4453 0.048 11.2987C0.181333 14.204 1.79467 15.8187 4.70133 15.952C5.556 15.9907 5.82667 16 8 16C10.1733 16 10.4453 15.9907 11.3 15.952C14.2013 15.8187 15.8213 14.2067 15.952 11.2987C15.9907 10.4453 16 10.1733 16 8C16 5.828 15.9907 5.556 15.952 4.70133C15.8213 1.79867 14.2067 0.181333 11.3 0.0493333C10.4453 0.00933333 10.1733 0 8 0ZM8 1.44238C10.136 1.44238 10.3893 1.45038 11.2333 1.48905C13.4027 1.58772 14.4133 2.61572 14.5133 4.76772C14.5507 5.61172 14.5587 5.86372 14.5587 7.99972C14.5587 10.1357 14.5507 10.389 14.5133 11.2317C14.4133 13.3824 13.404 14.413 11.2333 14.5117C10.3893 14.549 10.1373 14.5584 8 14.5584C5.864 14.5584 5.61067 14.5504 4.768 14.5117C2.59467 14.4117 1.588 13.3797 1.488 11.2317C1.45067 10.389 1.44133 10.1357 1.44133 7.99972C1.44133 5.86372 1.45067 5.61038 1.488 4.76772C1.58667 2.61438 2.59733 1.58638 4.768 1.48772C5.61067 1.44905 5.864 1.44238 8 1.44238ZM3.892 7.9996C3.892 5.73027 5.732 3.8916 8 3.8916C10.268 3.8916 12.108 5.7316 12.108 7.9996C12.108 10.2689 10.268 12.1076 8 12.1076C5.732 12.1076 3.892 10.2689 3.892 7.9996ZM8 10.6663C6.52667 10.6663 5.33333 9.47301 5.33333 7.99967C5.33333 6.52767 6.52667 5.33301 8 5.33301C9.472 5.33301 10.668 6.52634 10.668 7.99967C10.668 9.47301 9.472 10.6663 8 10.6663ZM11.3093 3.73067C11.3093 3.2 11.74 2.77067 12.2693 2.77067C12.8013 2.77067 13.2307 3.2 13.2307 3.73067C13.2307 4.26133 12.8 4.69067 12.2693 4.69067C11.7387 4.69067 11.3093 4.26 11.3093 3.73067Z" fill="white"/>
</svg>
