<svg width="191" height="46" viewBox="0 0 191 46" fill="none" xmlns="http://www.w3.org/2000/svg">
	<path d="M66.2903 27.1312V22.4409C66.2903 22.3374 66.237 22.2728 66.1331 22.2463C65.6682 22.1677 65.1974 22.1287 64.7259 22.1295C63.4102 22.1295 62.4517 22.3312 61.8529 22.7328C61.2666 23.1221 60.9734 23.713 60.9734 24.5038C60.9734 26.3722 62.3548 27.3063 65.1168 27.3063H66.1135C66.2308 27.3063 66.2894 27.2479 66.2894 27.1312H66.2903ZM67.3253 20.5726C67.638 20.6115 67.8983 20.7478 68.107 20.9813C68.3291 21.2148 68.4393 21.4944 68.4393 21.8182V33.7481C68.4393 34.0471 68.3291 34.3001 68.107 34.5071C67.8983 34.715 67.6451 34.8185 67.3448 34.8185C67.0579 34.8185 66.8109 34.715 66.6021 34.5071C66.5007 34.4085 66.4207 34.2903 66.3669 34.1598C66.3131 34.0293 66.2868 33.8891 66.2894 33.7481V29.1552C66.2894 29.0384 66.2308 28.98 66.1135 28.98H65.1177C64.1929 28.98 63.5604 29.0844 63.2219 29.2914C62.8959 29.486 62.5965 29.9336 62.3229 30.6342L61.0916 33.787C60.9743 34.0984 60.7718 34.3514 60.4857 34.546C60.2205 34.7251 59.9071 34.8201 59.5867 34.8185C59.4598 34.8224 59.334 34.7941 59.2212 34.7362C59.1083 34.6783 59.0121 34.5928 58.9417 34.4876C58.8718 34.3859 58.8297 34.2678 58.8194 34.145C58.8091 34.0222 58.8311 33.8988 58.8831 33.787L60.1339 30.6342C60.603 29.4798 61.1182 28.7146 61.6779 28.3378C61.6912 28.3378 61.6974 28.3254 61.6974 28.2988C61.6974 28.2865 61.6912 28.2794 61.6779 28.2794C60.7922 28.0069 60.101 27.5204 59.6062 26.8198C59.1114 26.1192 58.8635 25.2823 58.8635 24.3092C58.8635 23.0902 59.3388 22.1366 60.2903 21.4484C61.2408 20.761 62.6551 20.4169 64.5313 20.4169C65.4304 20.4169 66.3614 20.4691 67.3262 20.5726H67.3253ZM73.6816 22.4409V27.5593C73.6816 27.6637 73.7402 27.7283 73.8575 27.7539C74.522 27.845 75.1145 27.8902 75.636 27.8902C76.782 27.8902 77.6615 27.6442 78.2745 27.1506C78.8874 26.6446 79.193 25.9245 79.193 24.9904C79.193 24.0562 78.8928 23.3494 78.294 22.8691C77.6944 22.3763 76.8087 22.1295 75.636 22.1295C75.0106 22.1295 74.418 22.1685 73.8575 22.2463C73.7402 22.2728 73.6816 22.3374 73.6816 22.4409ZM73.3689 34.5071C73.1601 34.715 72.9069 34.8185 72.6067 34.8185C72.3064 34.8185 72.0523 34.715 71.8444 34.5071C71.743 34.4085 71.663 34.2903 71.6092 34.1598C71.5554 34.0293 71.529 33.8891 71.5317 33.7481V21.8182C71.5317 21.5068 71.6357 21.2281 71.8444 20.9813C72.0523 20.7354 72.3135 20.5992 72.6262 20.5726C73.6916 20.4708 74.7612 20.4189 75.8314 20.4169C77.6295 20.4169 78.9905 20.8 79.9162 21.5652C80.841 22.318 81.3038 23.3945 81.3038 24.7958C81.3038 27.9751 79.48 29.5638 75.8314 29.5638C75.063 29.5638 74.3976 29.5382 73.8379 29.486C73.734 29.486 73.6816 29.5382 73.6816 29.6417V33.7481C73.6816 34.0471 73.5776 34.3001 73.3689 34.5071ZM85.3743 34.5071C85.1656 34.715 84.9115 34.8185 84.6112 34.8185C84.3118 34.8185 84.0578 34.715 83.849 34.5071C83.7476 34.4085 83.6675 34.2903 83.6138 34.1598C83.56 34.0293 83.5336 33.8891 83.5363 33.7481V21.6819C83.5363 21.3838 83.6411 21.1308 83.849 20.9229C84.0578 20.7159 84.3118 20.6115 84.6112 20.6115C84.9115 20.6115 85.1656 20.7159 85.3743 20.9229C85.5822 21.1308 85.687 21.3838 85.687 21.6819V26.8198C85.687 26.833 85.6933 26.8392 85.7066 26.8392L85.7448 26.8198L90.2595 21.4484C90.7419 20.8911 91.3478 20.6115 92.0771 20.6115H92.3898C92.5986 20.6115 92.7487 20.7088 92.8393 20.9035C92.8914 20.988 92.9139 21.0873 92.9033 21.1859C92.8927 21.2845 92.8496 21.3768 92.7807 21.4484L87.7587 27.3063C87.693 27.3974 87.6868 27.4815 87.7383 27.5593L92.9957 33.9621C93.1396 34.1444 93.1591 34.3319 93.0543 34.5265C93.0163 34.6177 92.9507 34.6948 92.8666 34.7471C92.7826 34.7994 92.6842 34.8244 92.5853 34.8185H92.2725C91.5299 34.8185 90.9311 34.5336 90.4745 33.9621L85.7448 28.0264C85.7323 28.014 85.719 28.0069 85.7057 28.0069C85.6933 28.0069 85.687 28.014 85.687 28.0264V33.7481C85.687 34.0471 85.5822 34.3001 85.3743 34.5071ZM98.0292 29.2135C98.0159 29.2525 98.023 29.2914 98.0487 29.3303C98.0745 29.3568 98.1074 29.3692 98.1465 29.3692H102.055C102.073 29.3697 102.091 29.3665 102.108 29.3599C102.125 29.3532 102.14 29.3431 102.153 29.3303C102.179 29.2914 102.186 29.2525 102.173 29.2135L100.12 22.5772C100.12 22.5648 100.114 22.5577 100.101 22.5577C100.088 22.5577 100.081 22.5648 100.081 22.5772L98.0292 29.2135ZM95.1953 34.8185C95.0659 34.8211 94.9378 34.7924 94.822 34.7348C94.7062 34.6771 94.6063 34.5923 94.5308 34.4876C94.4547 34.3856 94.4059 34.266 94.3888 34.1401C94.3717 34.0142 94.3869 33.886 94.4331 33.7675L98.6155 21.6625C98.7195 21.3511 98.9087 21.0981 99.1823 20.9035C99.4559 20.7088 99.7553 20.6115 100.081 20.6115H100.199C100.537 20.6115 100.837 20.7088 101.098 20.9035C101.371 21.0981 101.56 21.3511 101.664 21.6625L105.847 33.7675C105.893 33.8871 105.907 34.0168 105.886 34.1434C105.865 34.2699 105.811 34.3887 105.73 34.4876C105.659 34.5928 105.563 34.6783 105.45 34.7362C105.337 34.7941 105.212 34.8224 105.085 34.8185H105.006C104.684 34.8194 104.371 34.7179 104.11 34.5289C103.85 34.3399 103.658 34.0732 103.56 33.7675L102.778 31.1986C102.765 31.0951 102.694 31.0429 102.563 31.0429H97.6383C97.521 31.0429 97.4491 31.0951 97.4233 31.1986L96.6416 33.7675C96.5525 34.0758 96.3591 34.3439 96.0943 34.5265C95.834 34.7211 95.5338 34.8185 95.1953 34.8185ZM114.673 27.1312V22.4409C114.673 22.3374 114.62 22.2728 114.517 22.2463C114.052 22.1677 113.581 22.1286 113.109 22.1295C111.794 22.1295 110.836 22.3312 110.236 22.7328C109.65 23.1221 109.357 23.713 109.357 24.5038C109.357 26.3722 110.738 27.3063 113.5 27.3063H114.497C114.614 27.3063 114.673 27.2479 114.673 27.1312ZM115.709 20.5726C116.021 20.6115 116.282 20.7478 116.49 20.9813C116.712 21.2148 116.823 21.4944 116.823 21.8182V33.7481C116.823 34.0471 116.712 34.3001 116.49 34.5071C116.391 34.608 116.273 34.6877 116.142 34.7413C116.011 34.7948 115.87 34.8211 115.728 34.8185C115.441 34.8185 115.194 34.715 114.986 34.5071C114.884 34.4086 114.804 34.2904 114.75 34.1599C114.696 34.0293 114.67 33.8892 114.673 33.7481V29.1552C114.673 29.0384 114.614 28.98 114.497 28.98H113.5C112.575 28.98 111.943 29.0844 111.604 29.2914C111.278 29.486 110.979 29.9336 110.705 30.6342L109.474 33.787C109.358 34.0974 109.146 34.3631 108.868 34.546C108.603 34.7251 108.29 34.8201 107.969 34.8185C107.842 34.8224 107.717 34.7941 107.604 34.7362C107.491 34.6783 107.395 34.5928 107.324 34.4876C107.254 34.3858 107.212 34.2678 107.202 34.145C107.192 34.0222 107.214 33.8989 107.266 33.787L108.516 30.6342C108.985 29.4798 109.5 28.7146 110.06 28.3378C110.074 28.3378 110.08 28.3254 110.08 28.2988C110.08 28.2865 110.074 28.2794 110.06 28.2794C109.175 28.0069 108.484 27.5204 107.989 26.8198C107.494 26.1192 107.246 25.2823 107.246 24.3092C107.246 23.0902 107.721 22.1366 108.673 21.4484C109.624 20.761 111.038 20.4169 112.914 20.4169C113.813 20.4169 114.745 20.4691 115.709 20.5726ZM125.257 34.8185C125.146 34.8208 125.036 34.793 124.94 34.7382C124.844 34.6833 124.764 34.6035 124.71 34.5071C124.652 34.4098 124.622 34.2989 124.622 34.186C124.622 34.073 124.652 33.9621 124.71 33.8648L128.364 27.4231C128.43 27.3196 128.43 27.2285 128.364 27.1506L124.886 21.5457C124.822 21.4549 124.787 21.3477 124.783 21.2372C124.78 21.1267 124.809 21.0175 124.866 20.9229C124.918 20.8245 124.997 20.7429 125.094 20.6878C125.191 20.6326 125.302 20.6062 125.413 20.6115H125.433C125.772 20.6121 126.106 20.698 126.403 20.8613C126.701 21.0246 126.952 21.26 127.133 21.5457L130.084 26.2748C130.112 26.317 130.149 26.3515 130.194 26.3753C130.238 26.3992 130.288 26.4114 130.338 26.4111H131.159C131.277 26.4111 131.335 26.3598 131.335 26.2554V21.6819C131.335 21.3838 131.44 21.1308 131.648 20.9229C131.87 20.7159 132.124 20.6115 132.41 20.6115C132.71 20.6115 132.964 20.7159 133.172 20.9229C133.381 21.1308 133.485 21.3838 133.485 21.6819V26.2554C133.485 26.3598 133.544 26.4111 133.661 26.4111H134.482C134.532 26.4116 134.582 26.3994 134.626 26.3756C134.671 26.3517 134.709 26.3171 134.736 26.2748L137.687 21.5457C137.87 21.2608 138.111 21.0335 138.41 20.8645C138.709 20.6994 139.045 20.6124 139.387 20.6115H139.407C139.655 20.6115 139.837 20.7159 139.954 20.9229C140.012 21.0174 140.041 21.1266 140.037 21.2372C140.034 21.3478 139.998 21.4549 139.935 21.5457L136.456 27.1506C136.404 27.2285 136.404 27.3196 136.456 27.4231L140.111 33.8648C140.168 33.9621 140.198 34.073 140.198 34.186C140.198 34.2989 140.168 34.4098 140.111 34.5071C140.059 34.6056 139.98 34.6873 139.883 34.7425C139.786 34.7977 139.675 34.824 139.563 34.8185H139.485C139.149 34.8191 138.819 34.7318 138.527 34.5655C138.241 34.3966 138.005 34.1547 137.843 33.8648L134.716 28.3183C134.694 28.2757 134.661 28.2402 134.619 28.2161C134.577 28.192 134.53 28.1802 134.482 28.1821H133.661C133.544 28.1821 133.485 28.2405 133.485 28.3572V33.7481C133.485 34.0471 133.381 34.3001 133.172 34.5071C132.964 34.715 132.71 34.8185 132.41 34.8185C132.124 34.8185 131.87 34.715 131.648 34.5071C131.547 34.4085 131.467 34.2903 131.413 34.1597C131.359 34.0292 131.333 33.8891 131.335 33.7481V28.3572C131.335 28.2405 131.277 28.1821 131.159 28.1821H130.338C130.29 28.1804 130.243 28.1923 130.201 28.2164C130.16 28.2405 130.126 28.2758 130.104 28.3183L126.977 33.8648C126.808 34.1638 126.573 34.3974 126.273 34.5655C125.987 34.7344 125.674 34.8185 125.335 34.8185H125.257ZM143.397 34.8185C143.11 34.8185 142.863 34.715 142.654 34.5071C142.554 34.4116 142.474 34.2968 142.421 34.1696C142.367 34.0424 142.34 33.9055 142.341 33.7675V21.6625C142.341 21.3776 142.445 21.1308 142.654 20.9229C142.863 20.7159 143.11 20.6115 143.397 20.6115C143.684 20.6115 143.931 20.7159 144.139 20.9229C144.348 21.1308 144.452 21.3776 144.452 21.6625V31.1986C144.452 31.2119 144.458 31.2181 144.472 31.2181C144.497 31.2181 144.511 31.2119 144.511 31.1986L150.061 21.5262C150.426 20.9167 150.954 20.6115 151.644 20.6115C151.931 20.6115 152.178 20.7159 152.387 20.9229C152.596 21.1308 152.7 21.3776 152.7 21.6625V33.7675C152.7 34.0533 152.596 34.3001 152.387 34.5071C152.291 34.6067 152.176 34.6858 152.048 34.7393C151.92 34.7929 151.783 34.8198 151.644 34.8185C151.357 34.8185 151.11 34.715 150.902 34.5071C150.801 34.4116 150.722 34.2968 150.668 34.1696C150.614 34.0424 150.587 33.9055 150.589 33.7675V24.2314C150.589 24.219 150.583 24.2119 150.569 24.2119C150.556 24.2119 150.55 24.219 150.55 24.2314L144.98 33.9038C144.615 34.5142 144.087 34.8185 143.397 34.8185ZM156.107 34.4876C155.842 34.4036 155.614 34.2319 155.462 34.0011C155.306 33.7568 155.224 33.473 155.227 33.1837C155.222 33.0851 155.245 32.9871 155.293 32.901C155.342 32.8149 155.414 32.7442 155.501 32.6972C155.59 32.6403 155.691 32.6054 155.797 32.5953C155.902 32.5851 156.008 32.6 156.107 32.6388C157.118 33.0503 158.2 33.2619 159.292 33.2615C160.309 33.2615 161.084 33.0351 161.618 32.5804C162.153 32.1266 162.419 31.4782 162.419 30.6342C162.419 29.8168 162.094 29.2073 161.442 28.8048C160.791 28.4032 159.71 28.2015 158.198 28.2015H158.12C157.873 28.2015 157.658 28.1175 157.475 27.9485C157.392 27.8674 157.327 27.7703 157.283 27.6632C157.239 27.5562 157.218 27.4413 157.221 27.3258C157.218 27.2102 157.239 27.0954 157.283 26.9883C157.327 26.8812 157.392 26.7841 157.475 26.703C157.658 26.5349 157.873 26.45 158.12 26.45H158.198C160.83 26.45 162.146 25.6715 162.146 24.1146C162.146 22.8178 161.26 22.1685 159.488 22.1685C158.383 22.1704 157.288 22.3818 156.263 22.7912C156.168 22.8303 156.065 22.8454 155.962 22.8352C155.86 22.825 155.762 22.7899 155.677 22.7328C155.596 22.6802 155.53 22.6078 155.486 22.5226C155.441 22.4374 155.419 22.3423 155.422 22.2463C155.422 21.9482 155.501 21.6819 155.657 21.4484C155.827 21.2025 156.048 21.0335 156.322 20.9424C157.434 20.5894 158.594 20.4121 159.761 20.4169C161.168 20.4169 162.27 20.7159 163.064 21.3121C163.859 21.9093 164.256 22.7134 164.256 23.7254C164.256 25.5291 163.26 26.6906 161.266 27.209C161.254 27.209 161.247 27.2161 161.247 27.2285C161.247 27.2417 161.254 27.2479 161.266 27.2479C163.468 27.5982 164.569 28.7597 164.569 30.7315C164.569 32.0815 164.107 33.1324 163.182 33.8843C162.27 34.6371 161 35.0131 159.37 35.0131C158.25 35.0131 157.162 34.8379 156.107 34.4876ZM168.723 34.5071C168.624 34.608 168.505 34.6877 168.374 34.7413C168.243 34.7948 168.103 34.8211 167.961 34.8185C167.661 34.8185 167.407 34.715 167.199 34.5071C167.097 34.4086 167.017 34.2904 166.963 34.1599C166.91 34.0293 166.883 33.8892 166.886 33.7481V21.6819C166.886 21.3838 166.99 21.1308 167.199 20.9229C167.407 20.7159 167.661 20.6115 167.961 20.6115C168.26 20.6115 168.514 20.7159 168.723 20.9229C168.931 21.1308 169.036 21.3838 169.036 21.6819V26.2359C169.036 26.3527 169.095 26.4111 169.212 26.4111H174.919C175.036 26.4111 175.095 26.3527 175.095 26.2359V21.6819C175.095 21.3838 175.199 21.1308 175.407 20.9229C175.615 20.7159 175.869 20.6115 176.17 20.6115C176.469 20.6115 176.723 20.7159 176.932 20.9229C177.14 21.1308 177.244 21.3838 177.244 21.6819V33.7481C177.244 34.0471 177.14 34.3001 176.932 34.5071C176.833 34.608 176.714 34.6877 176.583 34.7413C176.452 34.7948 176.311 34.8211 176.17 34.8185C175.869 34.8185 175.615 34.715 175.407 34.5071C175.306 34.4086 175.226 34.2904 175.172 34.1599C175.118 34.0293 175.092 33.8892 175.095 33.7481V28.2599C175.095 28.1431 175.036 28.0848 174.919 28.0848H169.212C169.095 28.0848 169.036 28.1431 169.036 28.2599V33.7481C169.036 34.0471 168.931 34.3001 168.723 34.5071ZM182.606 27.9096V32.9502C182.606 33.0545 182.658 33.1191 182.762 33.1448C183.29 33.2492 183.827 33.3013 184.365 33.3005C186.814 33.3005 188.039 32.3079 188.039 30.3228C188.039 28.5067 186.814 27.5982 184.365 27.5982C183.792 27.5982 183.257 27.6372 182.762 27.715C182.658 27.7415 182.606 27.8061 182.606 27.9096ZM181.531 34.8574C181.224 34.8216 180.944 34.668 180.749 34.4292C180.557 34.1924 180.453 33.8967 180.456 33.5924V21.6819C180.456 21.3838 180.56 21.1308 180.769 20.9229C180.977 20.7159 181.231 20.6115 181.531 20.6115C181.83 20.6115 182.084 20.7159 182.293 20.9229C182.502 21.1308 182.606 21.3838 182.606 21.6819V25.9051C182.606 26.0218 182.658 26.0678 182.762 26.0413C183.358 25.9602 183.959 25.9212 184.56 25.9245C186.372 25.9245 187.733 26.3014 188.645 27.0533C189.57 27.8061 190.033 28.8898 190.033 30.3034C190.033 31.8992 189.564 33.0864 188.625 33.8648C187.701 34.6309 186.247 35.0131 184.267 35.0131C183.381 35.0131 182.469 34.9618 181.531 34.8574Z" fill="white"/>
	<path d="M61.4718 10.5535H59.0359V12.06H60.292C60.8197 12.067 61.231 12.2015 61.5269 12.4642C61.8236 12.727 61.9711 13.0835 61.9711 13.5346C61.9711 13.9893 61.8227 14.3511 61.5242 14.62C61.2257 14.8898 60.818 15.0296 60.3027 15.0385H58.366V10.0068H61.4718V10.5535ZM59.0359 12.6058V14.4962H60.2538C60.5843 14.4962 60.8419 14.4077 61.0241 14.2335C61.2097 14.0583 61.3021 13.823 61.3021 13.5284C61.3021 13.2453 61.2133 13.0215 61.0347 12.8579C60.8588 12.6942 60.6083 12.6102 60.2814 12.6058H59.0359ZM68.1159 10.0068V15.0385H67.4497V10.5535H65.6374L65.5485 12.5474C65.513 13.2153 65.4437 13.7177 65.3398 14.0539C65.2376 14.39 65.0875 14.6377 64.8885 14.797C64.6895 14.9535 64.4239 15.034 64.0907 15.0385H63.8722V14.4962L64.0108 14.4891C64.2257 14.4732 64.391 14.4042 64.5065 14.2812C64.622 14.1574 64.7108 13.9601 64.7703 13.6912C64.8307 13.4214 64.8734 13.0065 64.8991 12.4465L65.0031 10.0068H68.1159ZM73.6007 13.7257H71.4838L71.0085 15.0385H70.3218L72.2513 10.0068H72.8341L74.7672 15.0385H74.0831L73.6007 13.7257ZM71.6854 13.179H73.4035L72.5418 10.8259L71.6854 13.179ZM80.0023 10.5535H77.5655V15.0385H76.8966V10.0068H80.0023V10.5535ZM85.8967 12.6854C85.8967 13.1781 85.8132 13.6089 85.6471 13.9769C85.48 14.344 85.2437 14.6236 84.939 14.8173C84.6185 15.015 84.2473 15.1158 83.8703 15.1075C83.4723 15.1075 83.1188 15.0102 82.8114 14.8173C82.4972 14.6137 82.2481 14.3249 82.0936 13.9849C81.9248 13.6222 81.8377 13.2047 81.8333 12.7305V12.3678C81.8333 11.8839 81.9177 11.4567 82.0865 11.0851C82.2553 10.7145 82.4933 10.4305 82.8016 10.2359C83.1187 10.0354 83.4877 9.9318 83.8632 9.93777C84.2683 9.93777 84.6237 10.036 84.9319 10.2315C85.242 10.4261 85.48 10.7074 85.6471 11.078C85.8132 11.4469 85.8958 11.8768 85.8958 12.3669V12.6854H85.8967ZM85.234 12.3607C85.234 11.7636 85.1132 11.3063 84.8724 10.9887C84.6325 10.6685 84.295 10.5083 83.8632 10.5083C83.4421 10.5083 83.1099 10.6676 82.8673 10.9887C82.6266 11.3072 82.5031 11.7495 82.496 12.3156V12.6854C82.496 13.263 82.6168 13.7186 82.8602 14.0503C83.1054 14.3794 83.4421 14.544 83.8703 14.544C84.3003 14.544 84.6334 14.3892 84.8697 14.0778C85.1052 13.7646 85.2269 13.317 85.234 12.7332V12.3607ZM91.7111 10.5535H90.0871V15.0385H89.4244V10.5535H87.804V10.0077H91.7111V10.5535ZM93.8823 15.0385V10.0068H95.5338C96.0819 10.0068 96.4941 10.12 96.7695 10.3456C97.0467 10.5712 97.1861 10.9055 97.1861 11.3478C97.1861 11.5832 97.1186 11.791 96.9845 11.9733C96.8503 12.1528 96.6673 12.2917 96.4363 12.3917C96.7091 12.4678 96.9241 12.6128 97.0813 12.8269C97.2412 13.0392 97.3212 13.2922 97.3212 13.5877C97.3212 14.0388 97.1746 14.3927 96.8805 14.6519C96.5865 14.9093 96.1716 15.0385 95.635 15.0385H93.8823ZM94.5486 12.6854V14.4962H95.6484C95.9584 14.4962 96.2027 14.4166 96.3804 14.2573C96.5616 14.0963 96.6513 13.8752 96.6513 13.5939C96.6513 12.9879 96.3209 12.6854 95.659 12.6854H94.5486ZM94.5486 12.1528H95.5551C95.8465 12.1528 96.0792 12.0803 96.2525 11.9352C96.4283 11.7902 96.5163 11.5929 96.5163 11.3443C96.5163 11.0683 96.4355 10.8675 96.2729 10.7428C96.1112 10.6163 95.8651 10.5535 95.5338 10.5535H94.5486V12.1528ZM103.618 12.6854C103.618 13.1781 103.535 13.6089 103.368 13.9769C103.202 14.344 102.966 14.6236 102.66 14.8173C102.34 15.0149 101.968 15.1157 101.592 15.1075C101.194 15.1075 100.841 15.0102 100.534 14.8173C100.219 14.614 99.9696 14.3251 99.8148 13.9849C99.646 13.6222 99.559 13.2047 99.5545 12.7305V12.3678C99.5545 11.8839 99.6389 11.4567 99.8077 11.0851C99.9765 10.7145 100.215 10.4305 100.523 10.2359C100.84 10.0354 101.209 9.93175 101.584 9.93777C101.99 9.93777 102.346 10.036 102.653 10.2315C102.963 10.4261 103.202 10.7074 103.368 11.078C103.535 11.4469 103.618 11.8768 103.618 12.3669V12.6854ZM102.955 12.3607C102.955 11.7636 102.835 11.3063 102.595 10.9887C102.354 10.6685 102.017 10.5083 101.584 10.5083C101.163 10.5083 100.832 10.6676 100.589 10.9887C100.348 11.3072 100.224 11.7495 100.217 12.3156V12.6854C100.217 13.263 100.339 13.7186 100.581 14.0503C100.827 14.3794 101.163 14.544 101.592 14.544C102.022 14.544 102.355 14.3892 102.591 14.0778C102.827 13.7646 102.948 13.317 102.955 12.7332V12.3607ZM106.705 13.0684V15.0385H106.039V10.0068H107.903C108.455 10.0068 108.888 10.1483 109.2 10.4287C109.515 10.71 109.672 11.0816 109.672 11.5451C109.672 12.0334 109.519 12.4103 109.211 12.6748C108.906 12.9375 108.467 13.0684 107.895 13.0684H106.705ZM106.705 12.5262H107.903C108.259 12.5262 108.532 12.443 108.722 12.2776C108.911 12.1095 109.006 11.8671 109.006 11.5522C109.006 11.2523 108.911 11.0126 108.722 10.833C108.532 10.6534 108.271 10.5597 107.941 10.5535H106.705V12.5262ZM115.129 10.0068H115.796V15.0385H115.129V11.1612L112.641 15.0385H111.971V10.0068H112.641V13.884L115.129 10.0068ZM121.819 10.5535H120.195V15.0385H119.532V10.5535H117.911V10.0077H121.819V10.5535ZM126.845 12.7128H124.656V14.4962H127.2V15.0385H123.99V10.0068H127.165V10.5535H124.656V12.1705H126.845V12.7128ZM133.271 10.0068V15.0385H132.605V10.5535H130.793L130.704 12.5474C130.668 13.2153 130.599 13.7177 130.495 14.0539C130.393 14.39 130.242 14.6377 130.043 14.797C129.844 14.9535 129.579 15.034 129.246 15.0385H129.027V14.4962L129.166 14.4891C129.381 14.4732 129.546 14.4042 129.662 14.2812C129.778 14.1574 129.866 13.9601 129.926 13.6912C129.986 13.4214 130.028 13.0065 130.054 12.4465L130.158 10.0068H133.271ZM136.549 12.0591H137.805C138.333 12.067 138.744 12.2015 139.041 12.4642C139.337 12.727 139.485 13.0835 139.485 13.5346C139.485 13.9893 139.336 14.3511 139.037 14.62C138.739 14.8898 138.332 15.0296 137.816 15.0385H135.883V10.0068H136.549V12.0591ZM136.549 12.6058V14.4962H137.767C138.098 14.4962 138.355 14.4077 138.537 14.2335C138.723 14.0583 138.815 13.823 138.815 13.5284C138.815 13.2453 138.726 13.0215 138.548 12.8579C138.372 12.6942 138.121 12.6102 137.795 12.6058H136.549ZM145.671 15.0385H145.001V12.7128H142.454V15.0385H141.788V10.0068H142.454V12.1705H145.001V10.0077H145.671V15.0385ZM148.973 12.06H150.229C150.757 12.067 151.169 12.2015 151.465 12.4642C151.761 12.727 151.909 13.0835 151.909 13.5346C151.909 13.9893 151.76 14.3511 151.461 14.62C151.163 14.8898 150.756 15.0296 150.24 15.0385H148.307V10.0068H148.973V12.0591V12.06ZM148.973 12.6058V14.4962H150.191C150.522 14.4962 150.779 14.4077 150.961 14.2335C151.147 14.0583 151.239 13.823 151.239 13.5284C151.239 13.2453 151.15 13.0215 150.972 12.8579C150.796 12.6942 150.545 12.6102 150.219 12.6058H148.973ZM153.186 15.0385H152.519V10.0068H153.186V15.0385ZM159.032 10.0068H159.698V15.0385H159.032V11.1612L156.544 15.0385H155.874V10.0068H156.544V13.884L159.032 10.0068ZM158.844 8.75592C158.844 9.03546 158.749 9.26015 158.557 9.43C158.367 9.59807 158.117 9.68211 157.807 9.68211C157.497 9.68211 157.245 9.59719 157.054 9.42646C156.959 9.34272 156.884 9.23918 156.834 9.12326C156.785 9.00734 156.761 8.8819 156.766 8.75592H157.29C157.29 8.91781 157.333 9.04431 157.421 9.13631C157.509 9.22654 157.638 9.27077 157.807 9.27077C157.969 9.27077 158.095 9.22654 158.185 9.13631C158.278 9.04696 158.324 8.91957 158.324 8.75592H158.844ZM168.013 10.5119H168.121C168.486 10.5098 168.846 10.6011 169.166 10.7773C169.48 10.9533 169.724 11.1948 169.898 11.5027C170.074 11.8096 170.161 12.1528 170.161 12.5332C170.161 12.9154 170.074 13.2622 169.898 13.5735C169.727 13.879 169.475 14.1314 169.169 14.3025C168.853 14.4767 168.497 14.568 168.135 14.5678H168.013V15.2455H167.368V14.5687H167.271C166.884 14.5687 166.532 14.4803 166.216 14.306C165.908 14.1374 165.652 13.8861 165.48 13.5806C165.304 13.2622 165.214 12.9037 165.219 12.5403C165.219 12.1555 165.307 11.8087 165.48 11.5C165.656 11.1913 165.901 10.9498 166.216 10.7746C166.539 10.5979 166.902 10.5073 167.271 10.5119H167.368V9.79977H168.013V10.5119ZM167.271 11.0338C166.835 11.0338 166.491 11.1665 166.237 11.4345C165.984 11.6999 165.858 12.0679 165.858 12.5403C165.858 13.0145 165.984 13.3842 166.237 13.6496C166.489 13.9123 166.835 14.0433 167.278 14.0433H167.368V11.0338H167.271ZM168.013 11.0338V14.0433H168.11C168.553 14.0433 168.897 13.9088 169.144 13.639C169.395 13.3674 169.519 12.9985 169.519 12.5332C169.519 12.0732 169.395 11.707 169.144 11.4381C168.897 11.1683 168.548 11.0338 168.097 11.0338H168.013ZM176.309 12.6854C176.309 13.1781 176.226 13.6089 176.059 13.9769C175.893 14.344 175.657 14.6236 175.351 14.8173C175.031 15.0149 174.66 15.1157 174.283 15.1075C173.885 15.1075 173.532 15.0102 173.225 14.8173C172.91 14.614 172.661 14.3251 172.506 13.9849C172.337 13.6222 172.25 13.2047 172.246 12.7305V12.3678C172.246 11.8839 172.33 11.4567 172.499 11.0851C172.668 10.7145 172.907 10.4305 173.214 10.2359C173.531 10.0354 173.9 9.93175 174.276 9.93777C174.681 9.93777 175.037 10.036 175.344 10.2315C175.654 10.4261 175.893 10.7074 176.059 11.078C176.226 11.4469 176.309 11.8768 176.309 12.3669V12.6854ZM175.646 12.3607C175.646 11.7636 175.526 11.3063 175.286 10.9887C175.045 10.6685 174.708 10.5083 174.276 10.5083C173.854 10.5083 173.523 10.6676 173.28 10.9887C173.039 11.3072 172.915 11.7495 172.908 12.3156V12.6854C172.908 13.263 173.03 13.7186 173.273 14.0503C173.518 14.3794 173.854 14.544 174.283 14.544C174.713 14.544 175.046 14.3892 175.282 14.0778C175.518 13.7646 175.639 13.317 175.646 12.7332V12.3607ZM182.613 15.0385H181.943V12.7128H179.396V15.0385H178.73V10.0068H179.396V12.1705H181.943V10.0077H182.613V15.0385ZM189.841 16.2725H189.177V15.0385H185.551V16.2752H184.884L184.882 14.4962H185.294C185.512 14.252 185.684 13.9247 185.811 13.5143C185.941 13.102 186.022 12.6509 186.054 12.1608L186.165 10.0077H189.188V14.4962H189.847L189.841 16.2725ZM186.054 14.4962H188.518V10.5535H186.807L186.734 12.0325C186.705 12.6102 186.627 13.1029 186.502 13.5107C186.38 13.9185 186.23 14.2467 186.054 14.4962Z" fill="white"/>
	<path d="M39.3149 18.6778C34.0424 23.5078 25.0565 22.4586 25.0565 22.4586C25.0565 22.4586 24.6177 13.5771 29.8893 8.74708C35.1609 3.91619 44.1477 4.96535 44.1477 4.96535C44.1477 4.96535 44.5865 13.8469 39.3149 18.6778Z" fill="#F7528E"/>
	<path d="M9.54556 18.6778C14.8172 23.5078 23.803 22.4586 23.803 22.4586C23.803 22.4586 24.2419 13.5771 18.9703 8.74707C13.6987 3.9153 4.71192 4.96445 4.71192 4.96445C4.71192 4.96445 4.27307 13.846 9.54467 18.6769L9.54556 18.6778Z" fill="#32BDF2"/>
	<path d="M29.8902 37.2529C35.1618 42.0838 44.1485 41.0338 44.1485 41.0338C44.1485 41.0338 44.5874 32.1522 39.3158 27.3222C34.0433 22.4922 25.0574 23.5414 25.0574 23.5414C25.0574 23.5414 24.6186 32.4229 29.8902 37.2529Z" fill="#9D59A2"/>
	<path d="M18.9712 37.2529C13.6996 42.0838 4.71281 41.0338 4.71281 41.0338C4.71281 41.0338 4.27396 32.1522 9.54556 27.3222C14.818 22.4922 23.8039 23.5414 23.8039 23.5414C23.8039 23.5414 24.2428 32.4229 18.9712 37.2529Z" fill="#FFE465"/>
</svg>
