<svg width="277" height="42" viewBox="0 0 277 42" fill="none" xmlns="http://www.w3.org/2000/svg">
	<mask id="mask0_27_583" style="mask-type:alpha" maskUnits="userSpaceOnUse" x="0" y="0" width="42" height="42">
		<path fill-rule="evenodd" clip-rule="evenodd" d="M20.5053 0H20.5692C31.1917 0.01636 41.3937 8.18673 41.3937 20.5319C41.3937 31.834 31.9432 41.0279 20.72 41.0279C2.62794 41.0279 -7.09099 19.0701 6.10567 6.01116C10.2914 1.86809 15.4439 0.00779669 20.5053 0V0ZM1.18036 23.7607C1.90576 28.2043 4.25132 32.3336 7.632 35.2775L9.15609 30.9865L1.18036 23.7607ZM6.07482 7.29688C2.47008 11.2195 0.619932 16.4771 0.961837 21.8557L7.14461 17.5899L6.07482 7.29688ZM12.4755 13.6888L6.98517 7.60742L7.96261 17.0003L12.4755 13.6888ZM17.468 5.0049L7.27619 6.62469L13.0378 13.0074L17.468 5.0049ZM22.7746 0.96528C17.3316 0.41917 11.9025 2.12326 7.76939 5.66568L18.1224 4.02043L22.7746 0.96528ZM31.5448 9.30159L23.9295 1.24518L18.9101 4.54087L22.9677 9.86847L31.5448 9.30159ZM37.5564 10.1879C34.8256 5.79111 30.3108 2.56019 25.2485 1.37402L32.717 9.27469L37.5564 10.1879ZM34.7792 23.0072L37.8826 11.1357L32.8585 10.1866L31.1908 20.3419L34.7792 23.0072ZM39.6087 26.475C41.1191 21.7677 40.726 16.4344 38.556 11.998L35.5323 23.5628L39.6087 26.475ZM35.4639 33.6592C37.1306 31.8161 38.4284 29.6732 39.3125 27.3288L35.4721 24.5859L35.4639 33.6592ZM34.5918 33.631L34.6 23.9605L31.122 21.3758C30.9603 23.5274 30.1399 25.6762 28.822 27.3791L34.5918 33.631ZM25.9637 34.966L34.0929 34.3779L28.4122 28.2236L25.9637 34.966ZM25.9065 39.4876C28.8212 38.7079 31.5654 37.2384 33.8218 35.2705L25.774 35.8525L25.9065 39.4876ZM21.7398 31.3405L25.143 34.6624L27.1729 29.0683C25.6347 30.3225 23.7306 31.1504 21.7398 31.3405ZM16.727 39.7734C19.3966 40.3022 22.3832 40.2794 25.0456 39.6982L24.9132 36.0742L15.7894 39.5618C16.0989 39.6401 16.4123 39.7096 16.727 39.7734ZM10.4013 31.3037L14.6166 39.0741L24.5346 35.2827L20.5438 31.387L10.4013 31.3037ZM24.9736 10.6098C27.8309 11.9654 29.9247 14.5231 30.7608 17.5671L31.9796 10.1466L24.9736 10.6098ZM14.698 11.45C16.5004 10.3857 16.5179 10.4111 18.2044 9.96972C19.8909 9.52836 21.6299 9.61289 21.6299 9.61289L18.2044 5.11719L14.698 11.45ZM20.7191 10.5459C10.3 10.5459 7.57124 25.3527 16.9121 29.7005C25.5184 33.7077 33.9123 23.2958 28.6857 15.0072C26.9665 12.2809 23.9716 10.5459 20.7191 10.5459ZM9.03954 29.7076L7.28272 18.55L1.2891 22.6865L9.03954 29.7076ZM8.07658 17.993L10.0349 30.4286L16.5252 30.482C10.9673 27.8837 8.75569 20.9245 11.4761 15.4983L8.07658 17.993ZM7.87891 35.4951C9.55055 36.9033 11.4235 38.0133 13.4838 38.8222L9.74614 31.9307L8.41194 35.6837L7.87891 35.4951Z" fill="white"/>
	</mask>
	<g mask="url(#mask0_27_583)">
		<path fill-rule="evenodd" clip-rule="evenodd" d="M0.000671387 41.0279H41.3945V0H0.000671387V41.0279Z" fill="white"/>
	</g>
	<mask id="mask1_27_583" style="mask-type:alpha" maskUnits="userSpaceOnUse" x="16" y="3" width="4" height="4">
		<path fill-rule="evenodd" clip-rule="evenodd" d="M18.1927 3.07227C17.3634 3.07227 16.6913 3.74363 16.6913 4.57346C16.6913 5.40157 17.3634 6.07342 18.1927 6.07342C19.0211 6.07342 19.6934 5.40157 19.6934 4.57346C19.6934 3.74363 19.0211 3.07227 18.1927 3.07227Z" fill="white"/>
	</mask>
	<g mask="url(#mask1_27_583)">
		<path fill-rule="evenodd" clip-rule="evenodd" d="M18.1927 3.07227C17.3634 3.07227 16.6913 3.74363 16.6913 4.57346C16.6913 5.40157 17.3634 6.07342 18.1927 6.07342C19.0211 6.07342 19.6934 5.40157 19.6934 4.57346C19.6934 3.74363 19.0211 3.07227 18.1927 3.07227Z" fill="white"/>
	</g>
	<mask id="mask2_27_583" style="mask-type:alpha" maskUnits="userSpaceOnUse" x="6" y="16" width="3" height="4">
		<path fill-rule="evenodd" clip-rule="evenodd" d="M8.7219 17.946C8.7219 17.2235 8.13581 16.6377 7.4131 16.6377C6.69039 16.6377 6.10455 17.2235 6.10455 17.946C6.10455 18.6684 6.69039 19.254 7.4131 19.254C8.13581 19.254 8.7219 18.6684 8.7219 17.946Z" fill="white"/>
	</mask>
	<g mask="url(#mask2_27_583)">
		<path fill-rule="evenodd" clip-rule="evenodd" d="M8.7219 17.946C8.7219 17.2235 8.13581 16.6377 7.4131 16.6377C6.69039 16.6377 6.10455 17.2235 6.10455 17.946C6.10455 18.6684 6.69039 19.254 7.4131 19.254C8.13581 19.254 8.7219 18.6684 8.7219 17.946Z" fill="white"/>
	</g>
	<mask id="mask3_27_583" style="mask-type:alpha" maskUnits="userSpaceOnUse" x="7" y="28" width="5" height="5">
		<path fill-rule="evenodd" clip-rule="evenodd" d="M9.88495 28.6445C8.76175 28.6445 7.85101 29.554 7.85101 30.6767C7.85101 31.8009 8.76175 32.7104 9.88495 32.7104C11.0074 32.7104 11.9169 31.8009 11.9169 30.6767C11.9169 29.554 11.0074 28.6445 9.88495 28.6445Z" fill="white"/>
	</mask>
	<g mask="url(#mask3_27_583)">
		<path fill-rule="evenodd" clip-rule="evenodd" d="M9.88495 28.6445C8.76175 28.6445 7.85101 29.554 7.85101 30.6767C7.85101 31.8009 8.76175 32.7104 9.88495 32.7104C11.0074 32.7104 11.9169 31.8009 11.9169 30.6767C11.9169 29.554 11.0074 28.6445 9.88495 28.6445Z" fill="white"/>
	</g>
	<mask id="mask4_27_583" style="mask-type:alpha" maskUnits="userSpaceOnUse" x="23" y="33" width="5" height="5">
		<path fill-rule="evenodd" clip-rule="evenodd" d="M25.2275 33.3213C24.1055 33.3213 23.196 34.231 23.196 35.3515C23.196 36.4745 24.1055 37.384 25.2275 37.384C26.3502 37.384 27.2595 36.4745 27.2595 35.3515C27.2595 34.231 26.3502 33.3213 25.2275 33.3213Z" fill="white"/>
	</mask>
	<g mask="url(#mask4_27_583)">
		<path fill-rule="evenodd" clip-rule="evenodd" d="M25.2275 33.3213C24.1055 33.3213 23.196 34.231 23.196 35.3515C23.196 36.4745 24.1055 37.384 25.2275 37.384C26.3502 37.384 27.2595 36.4745 27.2595 35.3515C27.2595 34.231 26.3502 33.3213 25.2275 33.3213Z" fill="white"/>
	</g>
	<mask id="mask5_27_583" style="mask-type:alpha" maskUnits="userSpaceOnUse" x="34" y="22" width="3" height="4">
		<path fill-rule="evenodd" clip-rule="evenodd" d="M35.4092 22.4668C34.634 22.4668 34.0051 23.1021 34.0051 23.8866C34.0051 24.6712 34.634 25.3063 35.4092 25.3063C36.1849 25.3063 36.8138 24.6712 36.8138 23.8866C36.8138 23.1021 36.1849 22.4668 35.4092 22.4668Z" fill="white"/>
	</mask>
	<g mask="url(#mask5_27_583)">
		<path fill-rule="evenodd" clip-rule="evenodd" d="M35.4092 22.4668C34.634 22.4668 34.0051 23.1021 34.0051 23.8866C34.0051 24.6712 34.634 25.3063 35.4092 25.3063C36.1849 25.3063 36.8138 24.6712 36.8138 23.8866C36.8138 23.1021 36.1849 22.4668 35.4092 22.4668Z" fill="white"/>
	</g>
	<mask id="mask6_27_583" style="mask-type:alpha" maskUnits="userSpaceOnUse" x="30" y="8" width="4" height="4">
		<path fill-rule="evenodd" clip-rule="evenodd" d="M32.3919 8.24316C31.5548 8.24316 30.876 8.916 30.876 9.74534C30.876 10.5752 31.5548 11.2478 32.3919 11.2478C33.2295 11.2478 33.9083 10.5752 33.9083 9.74534C33.9083 8.916 33.2295 8.24316 32.3919 8.24316Z" fill="white"/>
	</mask>
	<g mask="url(#mask6_27_583)">
		<path fill-rule="evenodd" clip-rule="evenodd" d="M32.3919 8.24316C31.5548 8.24316 30.876 8.916 30.876 9.74534C30.876 10.5752 31.5548 11.2478 32.3919 11.2478C33.2295 11.2478 33.9083 10.5752 33.9083 9.74534C33.9083 8.916 33.2295 8.24316 32.3919 8.24316Z" fill="white"/>
	</g>
	<path d="M71.4848 24.5764H60.9304L58.1916 31.4234H56.4214L65.239 9.59249H67.2096L76.0272 31.4234H74.257L71.4848 24.5764ZM70.8836 23.0549L67.0426 13.5287L66.241 11.2133H66.2076L65.406 13.4625L61.565 23.0549H70.8836Z" fill="white"/>
	<path d="M94.4082 9.59249C96.7017 9.59249 98.5164 10.1658 99.8524 11.3125C101.211 12.4371 101.89 13.9917 101.89 15.9764C101.89 17.961 101.211 19.5266 99.8524 20.6733C98.5164 21.82 96.7017 22.3933 94.4082 22.3933H88.7637V31.4234H87.0937V9.59249H94.4082ZM94.2078 20.8387C96.1228 20.8387 97.5812 20.4197 98.5832 19.5818C99.6075 18.7438 100.12 17.542 100.12 15.9764C100.12 14.4328 99.6075 13.242 98.5832 12.404C97.5812 11.544 96.1228 11.114 94.2078 11.114H88.7637V20.8387H94.2078Z" fill="white"/>
	<path d="M120.969 9.59249C123.263 9.59249 125.078 10.1658 126.414 11.3125C127.772 12.4371 128.451 13.9917 128.451 15.9764C128.451 17.961 127.772 19.5266 126.414 20.6733C125.078 21.82 123.263 22.3933 120.969 22.3933H115.325V31.4234H113.655V9.59249H120.969ZM120.769 20.8387C122.684 20.8387 124.142 20.4197 125.144 19.5818C126.169 18.7438 126.681 17.542 126.681 15.9764C126.681 14.4328 126.169 13.242 125.144 12.404C124.142 11.544 122.684 11.114 120.769 11.114H115.325V20.8387H120.769Z" fill="white"/>
	<path d="M148.967 9.26172C151.038 9.26172 152.83 9.7248 154.344 10.651C155.881 11.5551 157.061 12.8561 157.885 14.5541C158.708 16.23 159.12 18.2146 159.12 20.5079C159.12 22.8013 158.708 24.7969 157.885 26.4949C157.061 28.1708 155.881 29.4718 154.344 30.398C152.83 31.3021 151.038 31.7541 148.967 31.7541C146.896 31.7541 145.092 31.3021 143.556 30.398C142.042 29.4718 140.873 28.1708 140.049 26.4949C139.225 24.7969 138.813 22.8013 138.813 20.5079C138.813 18.2146 139.225 16.23 140.049 14.5541C140.873 12.8561 142.042 11.5551 143.556 10.651C145.092 9.7248 146.896 9.26172 148.967 9.26172ZM148.967 10.7833C147.252 10.7833 145.76 11.1802 144.491 11.974C143.244 12.7458 142.276 13.8705 141.585 15.3479C140.917 16.8033 140.583 18.5233 140.583 20.5079C140.583 22.4926 140.917 24.2236 141.585 25.701C142.276 27.1564 143.244 28.2811 144.491 29.0749C145.76 29.8467 147.252 30.2326 148.967 30.2326C150.681 30.2326 152.173 29.8467 153.442 29.0749C154.712 28.2811 155.68 27.1564 156.348 25.701C157.038 24.2236 157.384 22.4926 157.384 20.5079C157.384 18.5233 157.038 16.8033 156.348 15.3479C155.68 13.8705 154.712 12.7458 153.442 11.974C152.173 11.1802 150.681 10.7833 148.967 10.7833Z" fill="white"/>
	<path d="M192.145 31.4234H190.541V15.1494L190.742 11.1802H190.708L182.659 31.4234H181.123L173.073 11.1802H173.04L173.24 15.1494V31.4234H171.637V9.59249H174.142L180.789 26.131L181.891 29.4718H181.924L182.993 26.1641L189.64 9.59249H192.145V31.4234Z" fill="white"/>
	<path d="M218.283 24.5764H207.729L204.99 31.4234H203.22L212.038 9.59249H214.008L222.826 31.4234H221.056L218.283 24.5764ZM217.682 23.0549L213.841 13.5287L213.04 11.2133H213.006L212.205 13.4625L208.364 23.0549H217.682Z" fill="white"/>
	<path d="M248.488 31.4234L242.175 21.9633H235.562V31.4234H233.892V9.59249H242.075C244.28 9.59249 246.027 10.1438 247.319 11.2463C248.633 12.3489 249.29 13.8594 249.29 15.7779C249.29 17.3656 248.822 18.6887 247.887 19.7472C246.952 20.7836 245.671 21.4561 244.046 21.7649L250.459 31.4234H248.488ZM235.562 20.4087H242.042C243.823 20.4087 245.181 20.0118 246.117 19.2179C247.074 18.4241 247.553 17.2774 247.553 15.7779C247.553 14.2784 247.074 13.1317 246.117 12.3379C245.181 11.522 243.823 11.114 242.042 11.114H235.562V20.4087Z" fill="white"/>
	<path d="M276.494 11.114H268.445V31.4234H266.775V11.114H258.726V9.59249H276.494V11.114Z" fill="white"/>
</svg>
