<svg width="244" height="244" viewBox="0 0 244 244" fill="none" xmlns="http://www.w3.org/2000/svg">
<mask id="mask0_27_820" style="mask-type:alpha" maskUnits="userSpaceOnUse" x="0" y="0" width="244" height="244">
<path d="M122 244C189.379 244 244 189.379 244 122C244 54.6213 189.379 0 122 0C54.6213 0 0 54.6213 0 122C0 189.379 54.6213 244 122 244Z" fill="white"/>
</mask>
<g mask="url(#mask0_27_820)">
<path fill-rule="evenodd" clip-rule="evenodd" d="M164.526 -5.55664C164.526 -4.45207 163.631 -3.55664 162.526 -3.55664C161.422 -3.55664 160.526 -4.45207 160.526 -5.55664C160.526 -6.66121 161.422 -7.55664 162.526 -7.55664C163.631 -7.55664 164.526 -6.66121 164.526 -5.55664ZM162.526 12.4434C163.631 12.4434 164.526 11.5479 164.526 10.4434C164.526 9.33879 163.631 8.44336 162.526 8.44336C161.422 8.44336 160.526 9.33879 160.526 10.4434C160.526 11.5479 161.422 12.4434 162.526 12.4434ZM178.526 12.4434C179.631 12.4434 180.526 11.5479 180.526 10.4434C180.526 9.33879 179.631 8.44336 178.526 8.44336C177.422 8.44336 176.526 9.33879 176.526 10.4434C176.526 11.5479 177.422 12.4434 178.526 12.4434ZM196.526 10.4434C196.526 11.5479 195.631 12.4434 194.526 12.4434C193.422 12.4434 192.526 11.5479 192.526 10.4434C192.526 9.33879 193.422 8.44336 194.526 8.44336C195.631 8.44336 196.526 9.33879 196.526 10.4434ZM210.526 12.4434C211.631 12.4434 212.526 11.5479 212.526 10.4434C212.526 9.33879 211.631 8.44336 210.526 8.44336C209.422 8.44336 208.526 9.33879 208.526 10.4434C208.526 11.5479 209.422 12.4434 210.526 12.4434ZM228.526 10.4434C228.526 11.5479 227.631 12.4434 226.526 12.4434C225.422 12.4434 224.526 11.5479 224.526 10.4434C224.526 9.33879 225.422 8.44336 226.526 8.44336C227.631 8.44336 228.526 9.33879 228.526 10.4434ZM242.526 12.4434C243.631 12.4434 244.526 11.5479 244.526 10.4434C244.526 9.33879 243.631 8.44336 242.526 8.44336C241.422 8.44336 240.526 9.33879 240.526 10.4434C240.526 11.5479 241.422 12.4434 242.526 12.4434ZM178.526 -3.55664C179.631 -3.55664 180.526 -4.45207 180.526 -5.55664C180.526 -6.66121 179.631 -7.55664 178.526 -7.55664C177.422 -7.55664 176.526 -6.66121 176.526 -5.55664C176.526 -4.45207 177.422 -3.55664 178.526 -3.55664ZM196.526 -5.55664C196.526 -4.45207 195.631 -3.55664 194.526 -3.55664C193.422 -3.55664 192.526 -4.45207 192.526 -5.55664C192.526 -6.66121 193.422 -7.55664 194.526 -7.55664C195.631 -7.55664 196.526 -6.66121 196.526 -5.55664ZM210.526 -3.55664C211.631 -3.55664 212.526 -4.45207 212.526 -5.55664C212.526 -6.66121 211.631 -7.55664 210.526 -7.55664C209.422 -7.55664 208.526 -6.66121 208.526 -5.55664C208.526 -4.45207 209.422 -3.55664 210.526 -3.55664ZM228.526 -5.55664C228.526 -4.45207 227.631 -3.55664 226.526 -3.55664C225.422 -3.55664 224.526 -4.45207 224.526 -5.55664C224.526 -6.66121 225.422 -7.55664 226.526 -7.55664C227.631 -7.55664 228.526 -6.66121 228.526 -5.55664ZM242.526 -3.55664C243.631 -3.55664 244.526 -4.45207 244.526 -5.55664C244.526 -6.66121 243.631 -7.55664 242.526 -7.55664C241.422 -7.55664 240.526 -6.66121 240.526 -5.55664C240.526 -4.45207 241.422 -3.55664 242.526 -3.55664ZM58.5264 12.4434C59.6309 12.4434 60.5264 11.5479 60.5264 10.4434C60.5264 9.33879 59.6309 8.44336 58.5264 8.44336C57.4218 8.44336 56.5264 9.33879 56.5264 10.4434C56.5264 11.5479 57.4218 12.4434 58.5264 12.4434ZM74.5264 12.4434C75.6309 12.4434 76.5264 11.5479 76.5264 10.4434C76.5264 9.33879 75.6309 8.44336 74.5264 8.44336C73.4218 8.44336 72.5264 9.33879 72.5264 10.4434C72.5264 11.5479 73.4218 12.4434 74.5264 12.4434ZM92.5264 10.4434C92.5264 11.5479 91.6309 12.4434 90.5264 12.4434C89.4218 12.4434 88.5264 11.5479 88.5264 10.4434C88.5264 9.33879 89.4218 8.44336 90.5264 8.44336C91.6309 8.44336 92.5264 9.33879 92.5264 10.4434ZM106.526 12.4434C107.631 12.4434 108.526 11.5479 108.526 10.4434C108.526 9.33879 107.631 8.44336 106.526 8.44336C105.422 8.44336 104.526 9.33879 104.526 10.4434C104.526 11.5479 105.422 12.4434 106.526 12.4434ZM124.526 10.4434C124.526 11.5479 123.631 12.4434 122.526 12.4434C121.422 12.4434 120.526 11.5479 120.526 10.4434C120.526 9.33879 121.422 8.44336 122.526 8.44336C123.631 8.44336 124.526 9.33879 124.526 10.4434ZM138.526 12.4434C139.631 12.4434 140.526 11.5479 140.526 10.4434C140.526 9.33879 139.631 8.44336 138.526 8.44336C137.422 8.44336 136.526 9.33879 136.526 10.4434C136.526 11.5479 137.422 12.4434 138.526 12.4434ZM58.5264 -3.55664C59.6309 -3.55664 60.5264 -4.45207 60.5264 -5.55664C60.5264 -6.66121 59.6309 -7.55664 58.5264 -7.55664C57.4218 -7.55664 56.5264 -6.66121 56.5264 -5.55664C56.5264 -4.45207 57.4218 -3.55664 58.5264 -3.55664ZM68.5264 26.4434C68.5264 27.5479 67.6309 28.4434 66.5264 28.4434C65.4218 28.4434 64.5264 27.5479 64.5264 26.4434C64.5264 25.3388 65.4218 24.4434 66.5264 24.4434C67.6309 24.4434 68.5264 25.3388 68.5264 26.4434ZM66.5264 44.4434C67.6309 44.4434 68.5264 43.5479 68.5264 42.4434C68.5264 41.3388 67.6309 40.4434 66.5264 40.4434C65.4218 40.4434 64.5264 41.3388 64.5264 42.4434C64.5264 43.5479 65.4218 44.4434 66.5264 44.4434ZM82.5264 44.4434C83.6309 44.4434 84.5264 43.5479 84.5264 42.4434C84.5264 41.3388 83.6309 40.4434 82.5264 40.4434C81.4218 40.4434 80.5264 41.3388 80.5264 42.4434C80.5264 43.5479 81.4218 44.4434 82.5264 44.4434ZM100.526 42.4434C100.526 43.5479 99.6309 44.4434 98.5264 44.4434C97.4218 44.4434 96.5264 43.5479 96.5264 42.4434C96.5264 41.3388 97.4218 40.4434 98.5264 40.4434C99.6309 40.4434 100.526 41.3388 100.526 42.4434ZM114.526 44.4434C115.631 44.4434 116.526 43.5479 116.526 42.4434C116.526 41.3388 115.631 40.4434 114.526 40.4434C113.422 40.4434 112.526 41.3388 112.526 42.4434C112.526 43.5479 113.422 44.4434 114.526 44.4434ZM132.526 42.4434C132.526 43.5479 131.631 44.4434 130.526 44.4434C129.422 44.4434 128.526 43.5479 128.526 42.4434C128.526 41.3388 129.422 40.4434 130.526 40.4434C131.631 40.4434 132.526 41.3388 132.526 42.4434ZM146.526 44.4434C147.631 44.4434 148.526 43.5479 148.526 42.4434C148.526 41.3388 147.631 40.4434 146.526 40.4434C145.422 40.4434 144.526 41.3388 144.526 42.4434C144.526 43.5479 145.422 44.4434 146.526 44.4434ZM82.5264 28.4434C83.6309 28.4434 84.5264 27.5479 84.5264 26.4434C84.5264 25.3388 83.6309 24.4434 82.5264 24.4434C81.4218 24.4434 80.5264 25.3388 80.5264 26.4434C80.5264 27.5479 81.4218 28.4434 82.5264 28.4434ZM100.526 26.4434C100.526 27.5479 99.6309 28.4434 98.5264 28.4434C97.4218 28.4434 96.5264 27.5479 96.5264 26.4434C96.5264 25.3388 97.4218 24.4434 98.5264 24.4434C99.6309 24.4434 100.526 25.3388 100.526 26.4434ZM114.526 28.4434C115.631 28.4434 116.526 27.5479 116.526 26.4434C116.526 25.3388 115.631 24.4434 114.526 24.4434C113.422 24.4434 112.526 25.3388 112.526 26.4434C112.526 27.5479 113.422 28.4434 114.526 28.4434ZM132.526 26.4434C132.526 27.5479 131.631 28.4434 130.526 28.4434C129.422 28.4434 128.526 27.5479 128.526 26.4434C128.526 25.3388 129.422 24.4434 130.526 24.4434C131.631 24.4434 132.526 25.3388 132.526 26.4434ZM146.526 28.4434C147.631 28.4434 148.526 27.5479 148.526 26.4434C148.526 25.3388 147.631 24.4434 146.526 24.4434C145.422 24.4434 144.526 25.3388 144.526 26.4434C144.526 27.5479 145.422 28.4434 146.526 28.4434ZM74.5264 -3.55664C75.6309 -3.55664 76.5264 -4.45207 76.5264 -5.55664C76.5264 -6.66121 75.6309 -7.55664 74.5264 -7.55664C73.4218 -7.55664 72.5264 -6.66121 72.5264 -5.55664C72.5264 -4.45207 73.4218 -3.55664 74.5264 -3.55664ZM164.526 26.4434C164.526 27.5479 163.631 28.4434 162.526 28.4434C161.422 28.4434 160.526 27.5479 160.526 26.4434C160.526 25.3388 161.422 24.4434 162.526 24.4434C163.631 24.4434 164.526 25.3388 164.526 26.4434ZM162.526 44.4434C163.631 44.4434 164.526 43.5479 164.526 42.4434C164.526 41.3388 163.631 40.4434 162.526 40.4434C161.422 40.4434 160.526 41.3388 160.526 42.4434C160.526 43.5479 161.422 44.4434 162.526 44.4434ZM178.526 44.4434C179.631 44.4434 180.526 43.5479 180.526 42.4434C180.526 41.3388 179.631 40.4434 178.526 40.4434C177.422 40.4434 176.526 41.3388 176.526 42.4434C176.526 43.5479 177.422 44.4434 178.526 44.4434ZM196.526 42.4434C196.526 43.5479 195.631 44.4434 194.526 44.4434C193.422 44.4434 192.526 43.5479 192.526 42.4434C192.526 41.3388 193.422 40.4434 194.526 40.4434C195.631 40.4434 196.526 41.3388 196.526 42.4434ZM210.526 44.4434C211.631 44.4434 212.526 43.5479 212.526 42.4434C212.526 41.3388 211.631 40.4434 210.526 40.4434C209.422 40.4434 208.526 41.3388 208.526 42.4434C208.526 43.5479 209.422 44.4434 210.526 44.4434ZM228.526 42.4434C228.526 43.5479 227.631 44.4434 226.526 44.4434C225.422 44.4434 224.526 43.5479 224.526 42.4434C224.526 41.3388 225.422 40.4434 226.526 40.4434C227.631 40.4434 228.526 41.3388 228.526 42.4434ZM242.526 44.4434C243.631 44.4434 244.526 43.5479 244.526 42.4434C244.526 41.3388 243.631 40.4434 242.526 40.4434C241.422 40.4434 240.526 41.3388 240.526 42.4434C240.526 43.5479 241.422 44.4434 242.526 44.4434ZM178.526 28.4434C179.631 28.4434 180.526 27.5479 180.526 26.4434C180.526 25.3388 179.631 24.4434 178.526 24.4434C177.422 24.4434 176.526 25.3388 176.526 26.4434C176.526 27.5479 177.422 28.4434 178.526 28.4434ZM196.526 26.4434C196.526 27.5479 195.631 28.4434 194.526 28.4434C193.422 28.4434 192.526 27.5479 192.526 26.4434C192.526 25.3388 193.422 24.4434 194.526 24.4434C195.631 24.4434 196.526 25.3388 196.526 26.4434ZM210.526 28.4434C211.631 28.4434 212.526 27.5479 212.526 26.4434C212.526 25.3388 211.631 24.4434 210.526 24.4434C209.422 24.4434 208.526 25.3388 208.526 26.4434C208.526 27.5479 209.422 28.4434 210.526 28.4434ZM228.526 26.4434C228.526 27.5479 227.631 28.4434 226.526 28.4434C225.422 28.4434 224.526 27.5479 224.526 26.4434C224.526 25.3388 225.422 24.4434 226.526 24.4434C227.631 24.4434 228.526 25.3388 228.526 26.4434ZM242.526 28.4434C243.631 28.4434 244.526 27.5479 244.526 26.4434C244.526 25.3388 243.631 24.4434 242.526 24.4434C241.422 24.4434 240.526 25.3388 240.526 26.4434C240.526 27.5479 241.422 28.4434 242.526 28.4434ZM90.5264 -3.55664C91.6309 -3.55664 92.5264 -4.45207 92.5264 -5.55664C92.5264 -6.66121 91.6309 -7.55664 90.5264 -7.55664C89.4218 -7.55664 88.5264 -6.66121 88.5264 -5.55664C88.5264 -4.45207 89.4218 -3.55664 90.5264 -3.55664ZM108.526 -5.55664C108.526 -4.45207 107.631 -3.55664 106.526 -3.55664C105.422 -3.55664 104.526 -4.45207 104.526 -5.55664C104.526 -6.66121 105.422 -7.55664 106.526 -7.55664C107.631 -7.55664 108.526 -6.66121 108.526 -5.55664ZM122.526 -3.55664C123.631 -3.55664 124.526 -4.45207 124.526 -5.55664C124.526 -6.66121 123.631 -7.55664 122.526 -7.55664C121.422 -7.55664 120.526 -6.66121 120.526 -5.55664C120.526 -4.45207 121.422 -3.55664 122.526 -3.55664ZM140.526 -5.55664C140.526 -4.45207 139.631 -3.55664 138.526 -3.55664C137.422 -3.55664 136.526 -4.45207 136.526 -5.55664C136.526 -6.66121 137.422 -7.55664 138.526 -7.55664C139.631 -7.55664 140.526 -6.66121 140.526 -5.55664Z" fill="white"/>
<path fill-rule="evenodd" clip-rule="evenodd" d="M164.526 58.4434C164.526 59.5479 163.631 60.4434 162.526 60.4434C161.422 60.4434 160.526 59.5479 160.526 58.4434C160.526 57.3388 161.422 56.4434 162.526 56.4434C163.631 56.4434 164.526 57.3388 164.526 58.4434ZM162.526 76.4434C163.631 76.4434 164.526 75.5479 164.526 74.4434C164.526 73.3388 163.631 72.4434 162.526 72.4434C161.422 72.4434 160.526 73.3388 160.526 74.4434C160.526 75.5479 161.422 76.4434 162.526 76.4434ZM178.526 76.4434C179.631 76.4434 180.526 75.5479 180.526 74.4434C180.526 73.3388 179.631 72.4434 178.526 72.4434C177.422 72.4434 176.526 73.3388 176.526 74.4434C176.526 75.5479 177.422 76.4434 178.526 76.4434ZM196.526 74.4434C196.526 75.5479 195.631 76.4434 194.526 76.4434C193.422 76.4434 192.526 75.5479 192.526 74.4434C192.526 73.3388 193.422 72.4434 194.526 72.4434C195.631 72.4434 196.526 73.3388 196.526 74.4434ZM210.526 76.4434C211.631 76.4434 212.526 75.5479 212.526 74.4434C212.526 73.3388 211.631 72.4434 210.526 72.4434C209.422 72.4434 208.526 73.3388 208.526 74.4434C208.526 75.5479 209.422 76.4434 210.526 76.4434ZM228.526 74.4434C228.526 75.5479 227.631 76.4434 226.526 76.4434C225.422 76.4434 224.526 75.5479 224.526 74.4434C224.526 73.3388 225.422 72.4434 226.526 72.4434C227.631 72.4434 228.526 73.3388 228.526 74.4434ZM242.526 76.4434C243.631 76.4434 244.526 75.5479 244.526 74.4434C244.526 73.3388 243.631 72.4434 242.526 72.4434C241.422 72.4434 240.526 73.3388 240.526 74.4434C240.526 75.5479 241.422 76.4434 242.526 76.4434ZM178.526 60.4434C179.631 60.4434 180.526 59.5479 180.526 58.4434C180.526 57.3388 179.631 56.4434 178.526 56.4434C177.422 56.4434 176.526 57.3388 176.526 58.4434C176.526 59.5479 177.422 60.4434 178.526 60.4434ZM196.526 58.4434C196.526 59.5479 195.631 60.4434 194.526 60.4434C193.422 60.4434 192.526 59.5479 192.526 58.4434C192.526 57.3388 193.422 56.4434 194.526 56.4434C195.631 56.4434 196.526 57.3388 196.526 58.4434ZM210.526 60.4434C211.631 60.4434 212.526 59.5479 212.526 58.4434C212.526 57.3388 211.631 56.4434 210.526 56.4434C209.422 56.4434 208.526 57.3388 208.526 58.4434C208.526 59.5479 209.422 60.4434 210.526 60.4434ZM228.526 58.4434C228.526 59.5479 227.631 60.4434 226.526 60.4434C225.422 60.4434 224.526 59.5479 224.526 58.4434C224.526 57.3388 225.422 56.4434 226.526 56.4434C227.631 56.4434 228.526 57.3388 228.526 58.4434ZM242.526 60.4434C243.631 60.4434 244.526 59.5479 244.526 58.4434C244.526 57.3388 243.631 56.4434 242.526 56.4434C241.422 56.4434 240.526 57.3388 240.526 58.4434C240.526 59.5479 241.422 60.4434 242.526 60.4434ZM58.5264 76.4434C59.6309 76.4434 60.5264 75.5479 60.5264 74.4434C60.5264 73.3388 59.6309 72.4434 58.5264 72.4434C57.4218 72.4434 56.5264 73.3388 56.5264 74.4434C56.5264 75.5479 57.4218 76.4434 58.5264 76.4434ZM74.5264 76.4434C75.6309 76.4434 76.5264 75.5479 76.5264 74.4434C76.5264 73.3388 75.6309 72.4434 74.5264 72.4434C73.4218 72.4434 72.5264 73.3388 72.5264 74.4434C72.5264 75.5479 73.4218 76.4434 74.5264 76.4434ZM92.5264 74.4434C92.5264 75.5479 91.6309 76.4434 90.5264 76.4434C89.4218 76.4434 88.5264 75.5479 88.5264 74.4434C88.5264 73.3388 89.4218 72.4434 90.5264 72.4434C91.6309 72.4434 92.5264 73.3388 92.5264 74.4434ZM106.526 76.4434C107.631 76.4434 108.526 75.5479 108.526 74.4434C108.526 73.3388 107.631 72.4434 106.526 72.4434C105.422 72.4434 104.526 73.3388 104.526 74.4434C104.526 75.5479 105.422 76.4434 106.526 76.4434ZM124.526 74.4434C124.526 75.5479 123.631 76.4434 122.526 76.4434C121.422 76.4434 120.526 75.5479 120.526 74.4434C120.526 73.3388 121.422 72.4434 122.526 72.4434C123.631 72.4434 124.526 73.3388 124.526 74.4434ZM138.526 76.4434C139.631 76.4434 140.526 75.5479 140.526 74.4434C140.526 73.3388 139.631 72.4434 138.526 72.4434C137.422 72.4434 136.526 73.3388 136.526 74.4434C136.526 75.5479 137.422 76.4434 138.526 76.4434ZM58.5264 60.4434C59.6309 60.4434 60.5264 59.5479 60.5264 58.4434C60.5264 57.3388 59.6309 56.4434 58.5264 56.4434C57.4218 56.4434 56.5264 57.3388 56.5264 58.4434C56.5264 59.5479 57.4218 60.4434 58.5264 60.4434ZM68.5264 90.4434C68.5264 91.5479 67.6309 92.4434 66.5264 92.4434C65.4218 92.4434 64.5264 91.5479 64.5264 90.4434C64.5264 89.3388 65.4218 88.4434 66.5264 88.4434C67.6309 88.4434 68.5264 89.3388 68.5264 90.4434ZM66.5264 108.443C67.6309 108.443 68.5264 107.548 68.5264 106.443C68.5264 105.339 67.6309 104.443 66.5264 104.443C65.4218 104.443 64.5264 105.339 64.5264 106.443C64.5264 107.548 65.4218 108.443 66.5264 108.443ZM82.5264 108.443C83.6309 108.443 84.5264 107.548 84.5264 106.443C84.5264 105.339 83.6309 104.443 82.5264 104.443C81.4218 104.443 80.5264 105.339 80.5264 106.443C80.5264 107.548 81.4218 108.443 82.5264 108.443ZM100.526 106.443C100.526 107.548 99.6309 108.443 98.5264 108.443C97.4218 108.443 96.5264 107.548 96.5264 106.443C96.5264 105.339 97.4218 104.443 98.5264 104.443C99.6309 104.443 100.526 105.339 100.526 106.443ZM114.526 108.443C115.631 108.443 116.526 107.548 116.526 106.443C116.526 105.339 115.631 104.443 114.526 104.443C113.422 104.443 112.526 105.339 112.526 106.443C112.526 107.548 113.422 108.443 114.526 108.443ZM132.526 106.443C132.526 107.548 131.631 108.443 130.526 108.443C129.422 108.443 128.526 107.548 128.526 106.443C128.526 105.339 129.422 104.443 130.526 104.443C131.631 104.443 132.526 105.339 132.526 106.443ZM146.526 108.443C147.631 108.443 148.526 107.548 148.526 106.443C148.526 105.339 147.631 104.443 146.526 104.443C145.422 104.443 144.526 105.339 144.526 106.443C144.526 107.548 145.422 108.443 146.526 108.443ZM82.5264 92.4434C83.6309 92.4434 84.5264 91.5479 84.5264 90.4434C84.5264 89.3388 83.6309 88.4434 82.5264 88.4434C81.4218 88.4434 80.5264 89.3388 80.5264 90.4434C80.5264 91.5479 81.4218 92.4434 82.5264 92.4434ZM100.526 90.4434C100.526 91.5479 99.6309 92.4434 98.5264 92.4434C97.4218 92.4434 96.5264 91.5479 96.5264 90.4434C96.5264 89.3388 97.4218 88.4434 98.5264 88.4434C99.6309 88.4434 100.526 89.3388 100.526 90.4434ZM114.526 92.4434C115.631 92.4434 116.526 91.5479 116.526 90.4434C116.526 89.3388 115.631 88.4434 114.526 88.4434C113.422 88.4434 112.526 89.3388 112.526 90.4434C112.526 91.5479 113.422 92.4434 114.526 92.4434ZM132.526 90.4434C132.526 91.5479 131.631 92.4434 130.526 92.4434C129.422 92.4434 128.526 91.5479 128.526 90.4434C128.526 89.3388 129.422 88.4434 130.526 88.4434C131.631 88.4434 132.526 89.3388 132.526 90.4434ZM146.526 92.4434C147.631 92.4434 148.526 91.5479 148.526 90.4434C148.526 89.3388 147.631 88.4434 146.526 88.4434C145.422 88.4434 144.526 89.3388 144.526 90.4434C144.526 91.5479 145.422 92.4434 146.526 92.4434ZM74.5264 60.4434C75.6309 60.4434 76.5264 59.5479 76.5264 58.4434C76.5264 57.3388 75.6309 56.4434 74.5264 56.4434C73.4218 56.4434 72.5264 57.3388 72.5264 58.4434C72.5264 59.5479 73.4218 60.4434 74.5264 60.4434ZM164.526 90.4434C164.526 91.5479 163.631 92.4434 162.526 92.4434C161.422 92.4434 160.526 91.5479 160.526 90.4434C160.526 89.3388 161.422 88.4434 162.526 88.4434C163.631 88.4434 164.526 89.3388 164.526 90.4434ZM162.526 108.443C163.631 108.443 164.526 107.548 164.526 106.443C164.526 105.339 163.631 104.443 162.526 104.443C161.422 104.443 160.526 105.339 160.526 106.443C160.526 107.548 161.422 108.443 162.526 108.443ZM178.526 108.443C179.631 108.443 180.526 107.548 180.526 106.443C180.526 105.339 179.631 104.443 178.526 104.443C177.422 104.443 176.526 105.339 176.526 106.443C176.526 107.548 177.422 108.443 178.526 108.443ZM196.526 106.443C196.526 107.548 195.631 108.443 194.526 108.443C193.422 108.443 192.526 107.548 192.526 106.443C192.526 105.339 193.422 104.443 194.526 104.443C195.631 104.443 196.526 105.339 196.526 106.443ZM210.526 108.443C211.631 108.443 212.526 107.548 212.526 106.443C212.526 105.339 211.631 104.443 210.526 104.443C209.422 104.443 208.526 105.339 208.526 106.443C208.526 107.548 209.422 108.443 210.526 108.443ZM228.526 106.443C228.526 107.548 227.631 108.443 226.526 108.443C225.422 108.443 224.526 107.548 224.526 106.443C224.526 105.339 225.422 104.443 226.526 104.443C227.631 104.443 228.526 105.339 228.526 106.443ZM242.526 108.443C243.631 108.443 244.526 107.548 244.526 106.443C244.526 105.339 243.631 104.443 242.526 104.443C241.422 104.443 240.526 105.339 240.526 106.443C240.526 107.548 241.422 108.443 242.526 108.443ZM178.526 92.4434C179.631 92.4434 180.526 91.5479 180.526 90.4434C180.526 89.3388 179.631 88.4434 178.526 88.4434C177.422 88.4434 176.526 89.3388 176.526 90.4434C176.526 91.5479 177.422 92.4434 178.526 92.4434ZM196.526 90.4434C196.526 91.5479 195.631 92.4434 194.526 92.4434C193.422 92.4434 192.526 91.5479 192.526 90.4434C192.526 89.3388 193.422 88.4434 194.526 88.4434C195.631 88.4434 196.526 89.3388 196.526 90.4434ZM210.526 92.4434C211.631 92.4434 212.526 91.5479 212.526 90.4434C212.526 89.3388 211.631 88.4434 210.526 88.4434C209.422 88.4434 208.526 89.3388 208.526 90.4434C208.526 91.5479 209.422 92.4434 210.526 92.4434ZM228.526 90.4434C228.526 91.5479 227.631 92.4434 226.526 92.4434C225.422 92.4434 224.526 91.5479 224.526 90.4434C224.526 89.3388 225.422 88.4434 226.526 88.4434C227.631 88.4434 228.526 89.3388 228.526 90.4434ZM242.526 92.4434C243.631 92.4434 244.526 91.5479 244.526 90.4434C244.526 89.3388 243.631 88.4434 242.526 88.4434C241.422 88.4434 240.526 89.3388 240.526 90.4434C240.526 91.5479 241.422 92.4434 242.526 92.4434ZM90.5264 60.4434C91.6309 60.4434 92.5264 59.5479 92.5264 58.4434C92.5264 57.3388 91.6309 56.4434 90.5264 56.4434C89.4218 56.4434 88.5264 57.3388 88.5264 58.4434C88.5264 59.5479 89.4218 60.4434 90.5264 60.4434ZM108.526 58.4434C108.526 59.5479 107.631 60.4434 106.526 60.4434C105.422 60.4434 104.526 59.5479 104.526 58.4434C104.526 57.3388 105.422 56.4434 106.526 56.4434C107.631 56.4434 108.526 57.3388 108.526 58.4434ZM122.526 60.4434C123.631 60.4434 124.526 59.5479 124.526 58.4434C124.526 57.3388 123.631 56.4434 122.526 56.4434C121.422 56.4434 120.526 57.3388 120.526 58.4434C120.526 59.5479 121.422 60.4434 122.526 60.4434ZM140.526 58.4434C140.526 59.5479 139.631 60.4434 138.526 60.4434C137.422 60.4434 136.526 59.5479 136.526 58.4434C136.526 57.3388 137.422 56.4434 138.526 56.4434C139.631 56.4434 140.526 57.3388 140.526 58.4434Z" fill="white"/>
</g>
</svg>
