<svg width="306" height="125" viewBox="0 0 306 125" fill="none" xmlns="http://www.w3.org/2000/svg">
<mask id="mask0_27_813" style="mask-type:alpha" maskUnits="userSpaceOnUse" x="0" y="0" width="306" height="125">
<rect width="306" height="125" fill="white"/>
</mask>
<g mask="url(#mask0_27_813)">
<path d="M261.328 -339.454C277.606 -339.408 287.156 -339.143 292.874 -337.917C295.723 -337.307 297.558 -336.469 298.792 -335.35C300.018 -334.24 300.702 -332.805 301.156 -330.886C301.556 -329.192 301.766 -327.168 302.022 -324.706C302.058 -324.354 302.096 -323.994 302.135 -323.624C302.446 -320.679 302.856 -317.191 303.719 -313.074C305.446 -304.834 308.981 -294.102 317.134 -280.119C324.803 -266.967 326.69 -256.389 328.337 -247.153C328.425 -246.659 328.513 -246.169 328.6 -245.682C330.329 -236.083 332.127 -227.857 340.587 -219.784C349.01 -211.745 363.998 -203.893 391.97 -194.83C419.957 -185.762 461.004 -175.465 521.606 -162.572C551.895 -156.128 574.982 -149.935 592.149 -143.895C609.328 -137.851 620.536 -131.975 627.107 -126.186C633.656 -120.417 635.548 -114.787 634.245 -109.158C632.926 -103.461 628.311 -97.6405 621.522 -91.5942C614.746 -85.5601 605.882 -79.3658 596.181 -72.9034C593.276 -70.9684 590.296 -69.0092 587.276 -67.0238C580.222 -62.386 572.951 -57.6052 565.911 -52.6548C555.855 -45.5831 546.247 -38.1475 538.377 -30.25C530.509 -22.3544 524.354 -13.9736 521.238 -5.0061C519.415 0.241547 517.675 5.32474 515.992 10.2456C506.281 38.6305 498.418 61.6129 486.863 79.5946C473.339 100.641 454.753 114.832 422.137 122.673C389.674 130.478 369.741 114.306 347.737 95.9778L346.934 95.309C325.165 77.1711 301.268 57.2604 261.329 57.2604C221.291 57.2604 197.196 77.2274 175.289 95.3802L174.649 95.911C152.551 114.219 132.619 130.39 100.522 122.673C36.0861 107.181 9.48717 52.7588 1.44383 -4.91104C-0.561547 -19.2894 0.750105 -29.0243 4.22875 -36.7876C7.71311 -44.5637 13.3932 -50.4167 20.2569 -57.0091C20.972 -57.696 21.6993 -58.3903 22.4377 -59.0952C35.8833 -71.9309 52.9716 -88.2442 66.1002 -126.026C78.3468 -161.27 77.4817 -187.752 76.7337 -210.65C76.6361 -213.637 76.5405 -216.563 76.4763 -219.44C76.1981 -231.904 76.5084 -243.416 79.7647 -254.964C83.0184 -266.503 89.2224 -278.107 100.774 -290.725C145.753 -339.855 193.619 -339.688 256.106 -339.472C257.836 -339.466 259.576 -339.459 261.328 -339.454Z" stroke="white"/>
<path d="M263.981 -292.019C277.123 -287.277 285.235 -280.063 290.822 -271.397C296.434 -262.69 299.524 -252.483 302.545 -241.67C302.802 -240.752 303.057 -239.83 303.314 -238.904C309.089 -218.094 315.338 -195.576 339.628 -179.137C364.318 -162.429 388.761 -164.699 410.975 -166.762C411.578 -166.818 412.18 -166.874 412.78 -166.93C435.549 -169.03 455.745 -170.334 472.345 -151.018C484.997 -136.294 498.852 -129.417 510.045 -123.861C513.98 -121.908 517.587 -120.118 520.696 -118.208C526.694 -114.523 530.874 -110.419 532.454 -103.888C534.052 -97.2811 533.036 -88.0099 528.112 -73.8931C518.274 -45.6909 497.502 -10.0685 472.654 19.4484C460.233 34.2023 446.816 47.405 433.265 57.3846C419.705 67.3712 406.071 74.0858 393.211 75.9531C380.279 77.8309 370.437 76.514 361.911 73.5086C353.487 70.539 346.312 65.912 338.626 60.9556L338.263 60.7215C322.599 50.621 305.035 39.4816 271.556 39.4816C238.112 39.4816 216.473 50.437 196.985 60.4343L196.528 60.6688C177.233 70.5682 160.098 79.3596 135.423 75.9521C110.413 72.4983 84.2327 60.1929 63.5045 43.0053C42.7663 25.8094 27.6025 3.82785 24.4193 -18.9071C22.8451 -30.1498 25.8125 -38.1309 31.4737 -44.8216C37.1961 -51.5847 45.6749 -57.0419 55.2263 -63.1449L55.5398 -63.3452C74.5066 -75.4636 97.2089 -89.9687 108.344 -121.891C118.598 -151.285 114.848 -178.67 111.46 -203.411C111.159 -205.614 110.86 -207.796 110.574 -209.956C107.068 -236.468 105.537 -259.634 123.792 -279.496C142.186 -299.509 163.883 -307.43 187.638 -307.97C211.44 -308.512 237.315 -301.642 263.981 -292.019Z" stroke="white" stroke-width="2"/>
<path d="M196.324 -292.5C209.035 -292.5 220.814 -286.342 232.013 -276.579C243.211 -266.815 253.779 -253.488 264.063 -239.242C268.358 -233.294 272.609 -227.177 276.833 -221.097C282.706 -212.646 288.529 -204.266 294.351 -196.509C304.37 -183.162 314.458 -171.558 324.953 -164.435C345.854 -150.247 362.574 -144.549 379.039 -142.408C390.613 -140.904 402.074 -141.159 414.736 -141.441C420.041 -141.559 425.558 -141.682 431.382 -141.682C450.996 -141.682 472.332 -130.978 486.784 -114.56C501.228 -98.1518 508.739 -76.106 500.852 -53.4264C492.959 -30.7329 470.139 -14.3312 443.93 -0.0368347C434.091 5.32935 423.801 10.3856 413.672 15.363C410.322 17.009 406.99 18.6463 403.697 20.2833C390.459 26.8658 377.864 33.4424 367.413 40.537C362.252 44.0402 357.686 45.741 353.55 46.0744C349.421 46.4073 345.679 45.3805 342.154 43.3568C335.067 39.288 328.902 31.2234 322.354 22.1568C321.749 21.3182 321.14 20.4714 320.527 19.619C314.543 11.2936 308.172 2.42953 300.484 -4.56653C291.993 -12.2931 281.864 -17.7733 268.824 -17.7733C255.788 -17.7733 245.141 -12.2968 235.874 -4.58099C227.709 2.21631 220.583 10.7803 213.825 18.9026C212.922 19.9875 212.026 21.0645 211.135 22.1284C203.545 31.189 196.335 39.268 188.458 43.3463C184.534 45.3777 180.458 46.4081 176.093 46.0742C171.725 45.7402 167.029 44.037 161.873 40.537C142.395 27.3153 123.305 30.989 107.013 34.1241C105.705 34.3758 104.415 34.624 103.145 34.8597C94.5576 36.4529 86.9134 37.4652 80.4329 35.2969C74.0067 33.1468 68.6225 27.8258 64.6739 16.472C60.7474 5.18149 62.4219 -5.99579 67.4391 -17.1646C72.4614 -28.3448 80.8181 -39.4812 90.2032 -50.6558C94.0711 -55.2612 98.121 -59.881 102.179 -64.5103C107.941 -71.0833 113.72 -77.6753 119.018 -84.2721C128.061 -95.5307 135.785 -106.898 139.794 -118.427C146.352 -137.283 144.265 -153.747 142.401 -168.446C141.989 -171.695 141.588 -174.858 141.294 -177.941C140.479 -186.476 140.477 -194.395 143.235 -201.927C145.99 -209.448 151.519 -216.639 161.873 -223.667C172.4 -230.813 176.646 -238.776 177.854 -246.712C179.008 -254.303 177.372 -261.83 175.929 -268.465C175.871 -268.731 175.814 -268.995 175.757 -269.257C175.013 -272.686 174.357 -275.852 174.182 -278.685C174.007 -281.517 174.317 -283.958 175.457 -285.963C177.72 -289.948 183.445 -292.5 196.324 -292.5Z" stroke="white"/>
</g>
</svg>
