<svg width="344" height="343" viewBox="0 0 344 343" fill="none" xmlns="http://www.w3.org/2000/svg">
	<mask id="mask0_3_313" style="mask-type:alpha" maskUnits="userSpaceOnUse" x="31" y="31" width="281" height="281">
		<path d="M207.954 306.49C282.59 286.491 326.882 209.775 306.883 135.14C286.885 60.504 210.169 16.212 135.533 36.2105C60.8978 56.209 16.6058 132.925 36.6043 207.561C56.6028 282.196 133.319 326.488 207.954 306.49Z" fill="white"/>
	</mask>
	<g mask="url(#mask0_3_313)">
		<path fill-rule="evenodd" clip-rule="evenodd" d="M64.1677 51.11C65.3913 50.7821 66.1174 49.5245 65.7895 48.3009C65.4617 47.0774 64.204 46.3513 62.9805 46.6792C61.757 47.007 61.0309 48.2646 61.3587 49.4882C61.6865 50.7117 62.9442 51.4378 64.1677 51.11ZM267.985 -3.5026C269.208 -3.83045 269.934 -5.08808 269.606 -6.31162C269.279 -7.53515 268.021 -8.26125 266.797 -7.93341C265.574 -7.60556 264.848 -6.34792 265.176 -5.12439C265.504 -3.90086 266.761 -3.17476 267.985 -3.5026ZM216.437 7.93514C216.765 9.15868 216.039 10.4163 214.815 10.7442C213.591 11.072 212.334 10.3459 212.006 9.12238C211.678 7.89884 212.404 6.6412 213.628 6.31336C214.851 5.98551 216.109 6.71161 216.437 7.93514ZM197.092 15.4931C198.315 15.1652 199.042 13.9076 198.714 12.6841C198.386 11.4605 197.128 10.7344 195.905 11.0623C194.681 11.3901 193.955 12.6478 194.283 13.8713C194.611 15.0948 195.868 15.8209 197.092 15.4931ZM180.991 17.433C181.318 18.6565 180.592 19.9142 179.369 20.242C178.145 20.5698 176.888 19.8438 176.56 18.6202C176.232 17.3967 176.958 16.139 178.181 15.8112C179.405 15.4834 180.663 16.2095 180.991 17.433ZM272.734 14.2206C273.957 13.8928 274.683 12.6352 274.355 11.4116C274.028 10.1881 272.77 9.46199 271.546 9.78983C270.323 10.1177 269.597 11.3753 269.925 12.5989C270.252 13.8224 271.51 14.5485 272.734 14.2206ZM221.186 25.6584C221.514 26.8819 220.788 28.1396 219.564 28.4674C218.34 28.7952 217.083 28.0691 216.755 26.8456C216.427 25.6221 217.153 24.3644 218.377 24.0366C219.6 23.7088 220.858 24.4349 221.186 25.6584ZM184.118 37.9652C185.341 37.6374 186.067 36.3798 185.739 35.1562C185.412 33.9327 184.154 33.2066 182.93 33.5344C181.707 33.8623 180.981 35.1199 181.309 36.3435C181.636 37.567 182.894 38.2931 184.118 37.9652ZM201.841 33.2163C203.064 32.8885 203.79 31.6308 203.463 30.4073C203.135 29.1838 201.877 28.4577 200.654 28.7855C199.43 29.1134 198.704 30.371 199.032 31.5945C199.36 32.8181 200.617 33.5442 201.841 33.2163ZM237.287 23.7185C238.511 23.3906 239.237 22.133 238.909 20.9095C238.581 19.6859 237.324 18.9598 236.1 19.2877C234.876 19.6155 234.15 20.8732 234.478 22.0967C234.806 23.3202 236.064 24.0463 237.287 23.7185ZM256.632 16.1605C256.96 17.3841 256.234 18.6417 255.01 18.9696C253.787 19.2974 252.529 18.5713 252.201 17.3478C251.874 16.1242 252.6 14.8666 253.823 14.5388C255.047 14.2109 256.304 14.937 256.632 16.1605ZM232.538 5.99524C233.762 5.66739 234.488 4.40975 234.16 3.18622C233.832 1.96269 232.575 1.23659 231.351 1.56444C230.128 1.89228 229.401 3.14992 229.729 4.37345C230.057 5.59699 231.315 6.32308 232.538 5.99524ZM251.883 -1.5627C252.211 -0.339165 251.485 0.918474 250.262 1.24632C249.038 1.57416 247.78 0.848063 247.453 -0.37547C247.125 -1.599 247.851 -2.85664 249.074 -3.18449C250.298 -3.51233 251.555 -2.78623 251.883 -1.5627ZM68.9166 68.8332C70.1402 68.5053 70.8663 67.2477 70.5384 66.0242C70.2106 64.8006 68.9529 64.0745 67.7294 64.4024C66.5059 64.7302 65.7798 65.9879 66.1076 67.2114C66.4355 68.4349 67.6931 69.161 68.9166 68.8332ZM86.6399 64.0843C87.8634 63.7564 88.5895 62.4988 88.2617 61.2752C87.9339 60.0517 86.6762 59.3256 85.4527 59.6535C84.2291 59.9813 83.503 61.2389 83.8309 62.4625C84.1587 63.686 85.4164 64.4121 86.6399 64.0843ZM105.985 56.5263C106.313 57.7499 105.587 59.0075 104.363 59.3353C103.14 59.6632 101.882 58.9371 101.554 57.7136C101.226 56.49 101.952 55.2324 103.176 54.9045C104.399 54.5767 105.657 55.3028 105.985 56.5263ZM122.086 54.5864C123.31 54.2586 124.036 53.0009 123.708 51.7774C123.38 50.5539 122.123 49.8278 120.899 50.1556C119.676 50.4835 118.949 51.7411 119.277 52.9646C119.605 54.1882 120.863 54.9143 122.086 54.5864ZM141.431 47.0285C141.759 48.252 141.033 49.5097 139.81 49.8375C138.586 50.1653 137.328 49.4392 137 48.2157C136.673 46.9922 137.399 45.7345 138.622 45.4067C139.846 45.0789 141.103 45.805 141.431 47.0285ZM157.533 45.0886C158.756 44.7607 159.482 43.5031 159.155 42.2796C158.827 41.056 157.569 40.3299 156.346 40.6578C155.122 40.9856 154.396 42.2433 154.724 43.4668C155.052 44.6903 156.309 45.4164 157.533 45.0886ZM84.149 81.3729C84.4768 82.5965 83.7507 83.8541 82.5272 84.1819C81.3037 84.5098 80.046 83.7837 79.7182 82.5602C79.3903 81.3366 80.1164 80.079 81.34 79.7511C82.5635 79.4233 83.8211 80.1494 84.149 81.3729ZM104.999 97.1562C106.223 96.8284 106.949 95.5707 106.621 94.3472C106.293 93.1237 105.036 92.3976 103.812 92.7254C102.589 93.0533 101.862 94.3109 102.19 95.5344C102.518 96.758 103.776 97.4841 104.999 97.1562ZM87.2761 101.905C88.4997 101.577 89.2258 100.32 88.8979 99.0961C88.5701 97.8726 87.3124 97.1465 86.0889 97.4744C84.8654 97.8022 84.1393 99.0598 84.4671 100.283C84.795 101.507 86.0526 102.233 87.2761 101.905ZM124.344 89.5983C124.672 90.8218 123.946 92.0795 122.723 92.4073C121.499 92.7352 120.241 92.0091 119.914 90.7855C119.586 89.562 120.312 88.3044 121.535 87.9765C122.759 87.6487 124.016 88.3748 124.344 89.5983ZM140.446 87.6584C141.669 87.3305 142.395 86.0729 142.068 84.8494C141.74 83.6258 140.482 82.8997 139.259 83.2276C138.035 83.5554 137.309 84.8131 137.637 86.0366C137.965 87.2601 139.222 87.9862 140.446 87.6584ZM159.791 80.1005C160.119 81.324 159.393 82.5816 158.169 82.9095C156.945 83.2373 155.688 82.5112 155.36 81.2877C155.032 80.0642 155.758 78.8065 156.982 78.4787C158.205 78.1508 159.463 78.8769 159.791 80.1005ZM175.892 78.1606C177.116 77.8327 177.842 76.5751 177.514 75.3515C177.186 74.128 175.929 73.4019 174.705 73.7297C173.481 74.0576 172.755 75.3152 173.083 76.5388C173.411 77.7623 174.669 78.4884 175.892 78.1606ZM100.25 79.433C101.474 79.1052 102.2 77.8475 101.872 76.624C101.544 75.4005 100.287 74.6744 99.0632 75.0022C97.8397 75.3301 97.1136 76.5877 97.4414 77.8112C97.7693 79.0348 99.0269 79.7609 100.25 79.433ZM119.595 71.8751C119.923 73.0986 119.197 74.3562 117.974 74.6841C116.75 75.0119 115.492 74.2858 115.165 73.0623C114.837 71.8388 115.563 70.5811 116.786 70.2533C118.01 69.9254 119.268 70.6515 119.595 71.8751ZM135.697 69.9352C136.92 69.6073 137.646 68.3497 137.319 67.1262C136.991 65.9026 135.733 65.1765 134.51 65.5044C133.286 65.8322 132.56 67.0899 132.888 68.3134C133.216 69.5369 134.473 70.263 135.697 69.9352ZM155.042 62.3772C155.37 63.6008 154.644 64.8584 153.42 65.1862C152.197 65.5141 150.939 64.788 150.611 63.5645C150.283 62.3409 151.009 61.0833 152.233 60.7554C153.456 60.4276 154.714 61.1537 155.042 62.3772ZM171.143 60.4373C172.367 60.1095 173.093 58.8519 172.765 57.6283C172.437 56.4048 171.18 55.6787 169.956 56.0065C168.733 56.3344 168.006 57.592 168.334 58.8155C168.662 60.0391 169.92 60.7652 171.143 60.4373ZM81.891 46.361C83.1145 46.0332 83.8406 44.7756 83.5128 43.552C83.1849 42.3285 81.9273 41.6024 80.7038 41.9302C79.4802 42.2581 78.7541 43.5157 79.082 44.7393C79.4098 45.9628 80.6674 46.6889 81.891 46.361ZM206.59 50.9395C207.813 50.6116 208.539 49.354 208.211 48.1305C207.884 46.9069 206.626 46.1808 205.402 46.5087C204.179 46.8365 203.453 48.0942 203.781 49.3177C204.109 50.5412 205.366 51.2673 206.59 50.9395ZM190.488 52.8794C190.816 54.1029 190.09 55.3606 188.867 55.6884C187.643 56.0163 186.385 55.2902 186.057 54.0666C185.73 52.8431 186.456 51.5855 187.679 51.2576C188.903 50.9298 190.16 51.6559 190.488 52.8794ZM193.615 73.4116C194.839 73.0838 195.565 71.8261 195.237 70.6026C194.909 69.3791 193.652 68.653 192.428 68.9808C191.205 69.3087 190.479 70.5663 190.806 71.7898C191.134 73.0134 192.392 73.7395 193.615 73.4116ZM211.339 68.6627C212.562 68.3349 213.288 67.0772 212.96 65.8537C212.633 64.6302 211.375 63.9041 210.151 64.2319C208.928 64.5598 208.202 65.8174 208.53 67.0409C208.857 68.2645 210.115 68.9906 211.339 68.6627ZM230.684 61.1048C231.011 62.3283 230.285 63.5859 229.062 63.9138C227.838 64.2416 226.581 63.5155 226.253 62.292C225.925 61.0685 226.651 59.8108 227.875 59.483C229.098 59.1551 230.356 59.8812 230.684 61.1048ZM246.785 59.1649C248.009 58.837 248.735 57.5794 248.407 56.3559C248.079 55.1323 246.821 54.4062 245.598 54.7341C244.374 55.0619 243.648 56.3196 243.976 57.5431C244.304 58.7666 245.562 59.4927 246.785 59.1649ZM266.13 51.6069C266.458 52.8305 265.732 54.0881 264.508 54.4159C263.285 54.7438 262.027 54.0177 261.699 52.7942C261.371 51.5706 262.098 50.313 263.321 49.9851C264.545 49.6573 265.802 50.3834 266.13 51.6069ZM282.231 49.667C283.455 49.3392 284.181 48.0815 283.853 46.858C283.525 45.6345 282.268 44.9084 281.044 45.2362C279.821 45.5641 279.095 46.8217 279.422 48.0452C279.75 49.2688 281.008 49.9949 282.231 49.667ZM225.935 43.3816C226.263 44.6051 225.536 45.8627 224.313 46.1906C223.089 46.5184 221.832 45.7923 221.504 44.5688C221.176 43.3453 221.902 42.0876 223.126 41.7598C224.349 41.4319 225.607 42.158 225.935 43.3816ZM242.036 41.4416C243.26 41.1138 243.986 39.8562 243.658 38.6326C243.33 37.4091 242.072 36.683 240.849 37.0108C239.625 37.3387 238.899 38.5963 239.227 39.8199C239.555 41.0434 240.813 41.7695 242.036 41.4416ZM261.381 33.8837C261.709 35.1072 260.983 36.3649 259.759 36.6927C258.536 37.0206 257.278 36.2945 256.95 35.0709C256.623 33.8474 257.349 32.5898 258.572 32.2619C259.796 31.9341 261.053 32.6602 261.381 33.8837ZM277.483 31.9438C278.706 31.616 279.432 30.3583 279.104 29.1348C278.777 27.9112 277.519 27.1851 276.295 27.513C275.072 27.8408 274.346 29.0985 274.674 30.322C275.001 31.5455 276.259 32.2716 277.483 31.9438ZM99.6142 41.6121C100.838 41.2843 101.564 40.0266 101.236 38.8031C100.908 37.5796 99.6505 36.8535 98.427 37.1813C97.2034 37.5092 96.4773 38.7668 96.8052 39.9903C97.133 41.2139 98.3907 41.94 99.6142 41.6121ZM118.959 34.0542C119.287 35.2777 118.561 36.5354 117.337 36.8632C116.114 37.191 114.856 36.4649 114.528 35.2414C114.2 34.0179 114.927 32.7602 116.15 32.4324C117.374 32.1046 118.631 32.8307 118.959 34.0542ZM135.061 32.1143C136.284 31.7864 137.01 30.5288 136.682 29.3053C136.355 28.0817 135.097 27.3556 133.873 27.6835C132.65 28.0113 131.924 29.269 132.252 30.4925C132.579 31.716 133.837 32.4421 135.061 32.1143ZM154.406 24.5563C154.733 25.7799 154.007 27.0375 152.784 27.3654C151.56 27.6932 150.303 26.9671 149.975 25.7436C149.647 24.52 150.373 23.2624 151.597 22.9346C152.82 22.6067 154.078 23.3328 154.406 24.5563Z" fill="white"/>
		<path fill-rule="evenodd" clip-rule="evenodd" d="M235.432 78.828C235.76 80.0515 235.034 81.3092 233.811 81.637C232.587 81.9649 231.33 81.2388 231.002 80.0152C230.674 78.7917 231.4 77.5341 232.623 77.2062C233.847 76.8784 235.105 77.6045 235.432 78.828ZM199.986 88.3259C200.314 89.5494 199.588 90.807 198.364 91.1349C197.141 91.4627 195.883 90.7366 195.555 89.5131C195.227 88.2896 195.953 87.0319 197.177 86.7041C198.401 86.3762 199.658 87.1023 199.986 88.3259ZM203.113 108.858C204.337 108.53 205.063 107.273 204.735 106.049C204.407 104.826 203.15 104.099 201.926 104.427C200.702 104.755 199.976 106.013 200.304 107.236C200.632 108.46 201.89 109.186 203.113 108.858ZM220.836 104.109C222.06 103.781 222.786 102.524 222.458 101.3C222.13 100.077 220.873 99.3505 219.649 99.6784C218.426 100.006 217.7 101.264 218.027 102.487C218.355 103.711 219.613 104.437 220.836 104.109ZM240.181 96.5512C240.509 97.7748 239.783 99.0324 238.56 99.3602C237.336 99.6881 236.079 98.962 235.751 97.7385C235.423 96.5149 236.149 95.2573 237.372 94.9294C238.596 94.6016 239.854 95.3277 240.181 96.5512ZM256.283 94.6113C257.507 94.2835 258.233 93.0258 257.905 91.8023C257.577 90.5788 256.319 89.8527 255.096 90.1805C253.872 90.5084 253.146 91.766 253.474 92.9895C253.802 94.2131 255.059 94.9392 256.283 94.6113ZM275.628 87.0534C275.956 88.2769 275.23 89.5346 274.006 89.8624C272.783 90.1902 271.525 89.4641 271.197 88.2406C270.869 87.0171 271.595 85.7594 272.819 85.4316C274.042 85.1038 275.3 85.8298 275.628 87.0534ZM291.729 85.1135C292.953 84.7856 293.679 83.528 293.351 82.3045C293.023 81.0809 291.766 80.3548 290.542 80.6827C289.319 81.0105 288.592 82.2682 288.92 83.4917C289.248 84.7152 290.506 85.4413 291.729 85.1135ZM216.088 86.3859C217.311 86.0581 218.037 84.8005 217.709 83.5769C217.381 82.3534 216.124 81.6273 214.9 81.9551C213.677 82.283 212.951 83.5406 213.279 84.7642C213.606 85.9877 214.864 86.7138 216.088 86.3859ZM251.534 76.8881C252.757 76.5603 253.484 75.3026 253.156 74.0791C252.828 72.8556 251.57 72.1295 250.347 72.4573C249.123 72.7851 248.397 74.0428 248.725 75.2663C249.053 76.4898 250.31 77.2159 251.534 76.8881ZM270.879 69.3302C271.207 70.5537 270.481 71.8113 269.257 72.1392C268.034 72.467 266.776 71.7409 266.448 70.5174C266.12 69.2939 266.846 68.0362 268.07 67.7084C269.293 67.3805 270.551 68.1066 270.879 69.3302ZM286.98 67.3903C288.204 67.0624 288.93 65.8048 288.602 64.5812C288.274 63.3577 287.017 62.6316 285.793 62.9595C284.57 63.2873 283.843 64.5449 284.171 65.7685C284.499 66.992 285.757 67.7181 286.98 67.3903ZM160.427 117.921C160.755 119.145 160.029 120.403 158.805 120.73C157.582 121.058 156.324 120.332 155.996 119.109C155.668 117.885 156.394 116.627 157.618 116.3C158.842 115.972 160.099 116.698 160.427 117.921ZM141.082 125.479C142.306 125.151 143.032 123.894 142.704 122.67C142.376 121.447 141.118 120.721 139.895 121.049C138.671 121.376 137.945 122.634 138.273 123.858C138.601 125.081 139.858 125.807 141.082 125.479ZM124.981 127.419C125.308 128.643 124.582 129.9 123.359 130.228C122.135 130.556 120.878 129.83 120.55 128.606C120.222 127.383 120.948 126.125 122.172 125.797C123.395 125.47 124.653 126.196 124.981 127.419ZM87.9124 139.726C89.1359 139.398 89.862 138.141 89.5342 136.917C89.2063 135.694 87.9487 134.967 86.7251 135.295C85.5016 135.623 84.7755 136.881 85.1033 138.104C85.4312 139.328 86.6888 140.054 87.9124 139.726ZM105.636 134.977C106.859 134.649 107.585 133.392 107.257 132.168C106.93 130.945 105.672 130.219 104.448 130.546C103.225 130.874 102.499 132.132 102.827 133.355C103.154 134.579 104.412 135.305 105.636 134.977ZM176.528 115.981C177.752 115.654 178.478 114.396 178.15 113.172C177.822 111.949 176.565 111.223 175.341 111.551C174.118 111.879 173.392 113.136 173.719 114.36C174.047 115.583 175.305 116.309 176.528 115.981ZM83.1635 122.003C84.387 121.675 85.1131 120.417 84.7852 119.194C84.4574 117.97 83.1998 117.244 81.9762 117.572C80.7527 117.9 80.0266 119.158 80.3544 120.381C80.6823 121.605 81.9399 122.331 83.1635 122.003ZM174.038 133.27C174.365 134.494 173.639 135.751 172.416 136.079C171.192 136.407 169.935 135.681 169.607 134.457C169.279 133.234 170.005 131.976 171.229 131.648C172.452 131.321 173.71 132.047 174.038 133.27ZM138.591 142.768C138.919 143.992 138.193 145.249 136.969 145.577C135.746 145.905 134.488 145.179 134.16 143.955C133.832 142.732 134.559 141.474 135.782 141.146C137.006 140.818 138.263 141.544 138.591 142.768ZM119.246 150.326C120.47 149.998 121.196 148.74 120.868 147.517C120.54 146.293 119.282 145.567 118.059 145.895C116.835 146.223 116.109 147.481 116.437 148.704C116.765 149.928 118.023 150.654 119.246 150.326ZM103.145 152.266C103.473 153.489 102.746 154.747 101.523 155.075C100.299 155.403 99.0417 154.677 98.7139 153.453C98.386 152.23 99.1121 150.972 100.336 150.644C101.559 150.316 102.817 151.042 103.145 152.266ZM178.786 150.993C179.114 152.217 178.388 153.475 177.165 153.802C175.941 154.13 174.683 153.404 174.356 152.181C174.028 150.957 174.754 149.699 175.977 149.372C177.201 149.044 178.459 149.77 178.786 150.993ZM106.272 172.798C107.495 172.47 108.221 171.213 107.894 169.989C107.566 168.766 106.308 168.039 105.085 168.367C103.861 168.695 103.135 169.953 103.463 171.176C103.791 172.4 105.048 173.126 106.272 172.798ZM123.995 168.049C125.219 167.721 125.945 166.464 125.617 165.24C125.289 164.017 124.031 163.291 122.808 163.618C121.584 163.946 120.858 165.204 121.186 166.427C121.514 167.651 122.771 168.377 123.995 168.049ZM143.34 160.491C143.668 161.715 142.942 162.972 141.718 163.3C140.495 163.628 139.237 162.902 138.909 161.678C138.581 160.455 139.307 159.197 140.531 158.869C141.755 158.542 143.012 159.268 143.34 160.491ZM159.441 158.551C160.665 158.223 161.391 156.966 161.063 155.742C160.735 154.519 159.478 153.793 158.254 154.121C157.031 154.448 156.305 155.706 156.632 156.93C156.96 158.153 158.218 158.879 159.441 158.551ZM194.888 149.053C196.111 148.726 196.837 147.468 196.51 146.244C196.182 145.021 194.924 144.295 193.701 144.623C192.477 144.951 191.751 146.208 192.079 147.432C192.407 148.655 193.664 149.381 194.888 149.053ZM154.693 140.828C155.916 140.5 156.642 139.243 156.314 138.019C155.987 136.796 154.729 136.069 153.505 136.397C152.282 136.725 151.556 137.983 151.884 139.206C152.211 140.43 153.469 141.156 154.693 140.828ZM190.139 131.33C191.362 131.002 192.089 129.745 191.761 128.521C191.433 127.298 190.175 126.572 188.952 126.899C187.728 127.227 187.002 128.485 187.33 129.708C187.658 130.932 188.915 131.658 190.139 131.33ZM100.887 117.254C102.11 116.926 102.836 115.668 102.508 114.445C102.181 113.221 100.923 112.495 99.6994 112.823C98.4758 113.151 97.7497 114.409 98.0776 115.632C98.4054 116.856 99.6631 117.582 100.887 117.254ZM296.478 102.837C297.702 102.509 298.428 101.251 298.1 100.028C297.772 98.8042 296.514 98.0781 295.291 98.4059C294.067 98.7337 293.341 99.9914 293.669 101.215C293.997 102.438 295.255 103.165 296.478 102.837ZM244.93 114.274C245.258 115.498 244.532 116.756 243.309 117.083C242.085 117.411 240.827 116.685 240.5 115.462C240.172 114.238 240.898 112.98 242.121 112.653C243.345 112.325 244.603 113.051 244.93 114.274ZM225.585 121.832C226.809 121.505 227.535 120.247 227.207 119.023C226.879 117.8 225.622 117.074 224.398 117.402C223.175 117.729 222.449 118.987 222.776 120.211C223.104 121.434 224.362 122.16 225.585 121.832ZM209.484 123.772C209.812 124.996 209.086 126.253 207.862 126.581C206.639 126.909 205.381 126.183 205.053 124.96C204.725 123.736 205.451 122.478 206.675 122.15C207.898 121.823 209.156 122.549 209.484 123.772ZM285.126 122.5C285.454 123.723 284.727 124.981 283.504 125.309C282.28 125.637 281.023 124.911 280.695 123.687C280.367 122.464 281.093 121.206 282.317 120.878C283.54 120.55 284.798 121.276 285.126 122.5ZM249.679 131.998C250.007 133.221 249.281 134.479 248.058 134.807C246.834 135.135 245.576 134.408 245.249 133.185C244.921 131.961 245.647 130.704 246.87 130.376C248.094 130.048 249.351 130.774 249.679 131.998ZM212.611 144.305C213.835 143.977 214.561 142.719 214.233 141.496C213.905 140.272 212.647 139.546 211.424 139.874C210.2 140.202 209.474 141.459 209.802 142.683C210.13 143.906 211.388 144.632 212.611 144.305ZM230.334 139.556C231.558 139.228 232.284 137.97 231.956 136.747C231.628 135.523 230.371 134.797 229.147 135.125C227.924 135.453 227.197 136.71 227.525 137.934C227.853 139.157 229.111 139.883 230.334 139.556ZM265.781 130.058C267.004 129.73 267.73 128.472 267.403 127.249C267.075 126.025 265.817 125.299 264.594 125.627C263.37 125.955 262.644 127.212 262.972 128.436C263.3 129.66 264.557 130.386 265.781 130.058ZM301.227 120.56C302.451 120.232 303.177 118.974 302.849 117.751C302.521 116.527 301.263 115.801 300.04 116.129C298.816 116.457 298.09 117.715 298.418 118.938C298.746 120.162 300.004 120.888 301.227 120.56ZM261.032 112.335C262.255 112.007 262.982 110.749 262.654 109.526C262.326 108.302 261.068 107.576 259.845 107.904C258.621 108.232 257.895 109.489 258.223 110.713C258.551 111.936 259.808 112.662 261.032 112.335ZM280.377 104.777C280.705 106 279.979 107.258 278.755 107.586C277.531 107.913 276.274 107.187 275.946 105.964C275.618 104.74 276.344 103.483 277.568 103.155C278.791 102.827 280.049 103.553 280.377 104.777ZM118.61 112.505C119.833 112.177 120.56 110.92 120.232 109.696C119.904 108.472 118.646 107.746 117.423 108.074C116.199 108.402 115.473 109.66 115.801 110.883C116.129 112.107 117.386 112.833 118.61 112.505ZM137.955 104.947C138.283 106.171 137.557 107.428 136.333 107.756C135.11 108.084 133.852 107.358 133.524 106.134C133.196 104.911 133.922 103.653 135.146 103.325C136.369 102.997 137.627 103.724 137.955 104.947ZM154.056 103.007C155.28 102.679 156.006 101.422 155.678 100.198C155.35 98.9746 154.093 98.2485 152.869 98.5764C151.646 98.9042 150.919 100.162 151.247 101.385C151.575 102.609 152.833 103.335 154.056 103.007ZM173.401 95.4492C173.729 96.6728 173.003 97.9304 171.78 98.2583C170.556 98.5861 169.298 97.86 168.971 96.6365C168.643 95.4129 169.369 94.1553 170.592 93.8274C171.816 93.4996 173.073 94.2257 173.401 95.4492Z" fill="white"/>
	</g>
</svg>
