<svg width="34" height="34" viewBox="0 0 34 34" fill="none" xmlns="http://www.w3.org/2000/svg">
	<path d="M12.75 2.8335C9.03837 2.8335 6.02087 5.851 6.02087 9.56266C6.02087 13.2035 8.86837 16.1502 12.58 16.2777C12.6934 16.2635 12.8067 16.2635 12.8917 16.2777C12.92 16.2777 12.9342 16.2777 12.9625 16.2777C12.9767 16.2777 12.9767 16.2777 12.9909 16.2777C16.6175 16.1502 19.465 13.2035 19.4792 9.56266C19.4792 5.851 16.4617 2.8335 12.75 2.8335Z" fill="white"/>
	<path d="M19.9466 20.0461C15.9941 17.4111 9.54828 17.4111 5.56744 20.0461C3.76828 21.2502 2.77661 22.8794 2.77661 24.6219C2.77661 26.3644 3.76828 27.9794 5.55328 29.1694C7.53661 30.5011 10.1433 31.1669 12.7499 31.1669C15.3566 31.1669 17.9633 30.5011 19.9466 29.1694C21.7316 27.9652 22.7233 26.3502 22.7233 24.5936C22.7091 22.8511 21.7316 21.2361 19.9466 20.0461Z" fill="white"/>
	<path d="M28.3191 10.3981C28.5458 13.1465 26.5908 15.5548 23.885 15.8806C23.8708 15.8806 23.8708 15.8806 23.8566 15.8806H23.8141C23.7291 15.8806 23.6441 15.8806 23.5733 15.909C22.1991 15.9798 20.9383 15.5406 19.9891 14.7331C21.4483 13.4298 22.2841 11.4748 22.1141 9.34982C22.015 8.20232 21.6183 7.15398 21.0233 6.26148C21.5616 5.99232 22.185 5.82232 22.8225 5.76565C25.5991 5.52482 28.0783 7.59315 28.3191 10.3981Z" fill="white"/>
	<path d="M31.1525 23.5027C31.0392 24.8769 30.1609 26.0669 28.6875 26.8744C27.2709 27.6536 25.4859 28.0219 23.715 27.9794C24.735 27.0586 25.33 25.9111 25.4434 24.6927C25.585 22.9361 24.7492 21.2502 23.0775 19.9044C22.1284 19.1536 21.0234 18.5586 19.8192 18.1194C22.95 17.2127 26.8884 17.8219 29.3109 19.7769C30.6142 20.8252 31.28 22.1427 31.1525 23.5027Z" fill="white"/>
</svg>
