<svg width="74" height="47" viewBox="0 0 74 47" fill="none" xmlns="http://www.w3.org/2000/svg">
<path d="M31.088 40.496L30.7862 40.2734L30.7847 40.2754L31.088 40.496ZM5.168 40.496L4.86472 40.7166L4.86618 40.7186L5.168 40.496ZM5.168 6.704L4.86617 6.48144L4.86472 6.48343L5.168 6.704ZM31.088 6.704L30.7847 6.92457L30.7862 6.92655L31.088 6.704ZM25.776 35.504L26.0932 35.7041L25.776 35.504ZM10.544 11.696L10.229 11.4925L10.2268 11.4959L10.544 11.696ZM10.544 35.504L10.2268 35.7041L10.229 35.7075L10.544 35.504ZM30.7847 40.2754C27.7883 44.3956 23.5954 46.457 18.16 46.457V47.207C23.8179 47.207 28.2437 45.0444 31.3913 40.7166L30.7847 40.2754ZM18.16 46.457C12.7245 46.457 8.50922 44.3954 5.46982 40.2734L4.86618 40.7186C8.05611 45.0446 12.5022 47.207 18.16 47.207V46.457ZM5.47128 40.2754C2.45967 36.1345 0.935 30.5879 0.935 23.6H0.185C0.185 30.6921 1.73233 36.4095 4.86472 40.7166L5.47128 40.2754ZM0.935 23.6C0.935 16.6121 2.45967 11.0655 5.47128 6.92456L4.86472 6.48343C1.73233 10.7905 0.185 16.5079 0.185 23.6H0.935ZM5.46982 6.92655C8.50922 2.80462 12.7245 0.742996 18.16 0.742996V-0.00700378C12.5022 -0.00700378 8.05611 2.15537 4.86618 6.48145L5.46982 6.92655ZM18.16 0.742996C23.5954 0.742996 27.7883 2.80443 30.7847 6.92456L31.3913 6.48343C28.2437 2.15556 23.8179 -0.00700378 18.16 -0.00700378V0.742996ZM30.7862 6.92655C33.8394 11.0673 35.385 16.613 35.385 23.6H36.135C36.135 16.5069 34.5659 10.7887 31.3898 6.48145L30.7862 6.92655ZM35.385 23.6C35.385 30.5869 33.8394 36.1327 30.7862 40.2734L31.3898 40.7186C34.5659 36.4113 36.135 30.6931 36.135 23.6H35.385ZM18.16 40.039C21.6144 40.039 24.2739 38.5883 26.0932 35.7041L25.4588 35.3039C23.7794 37.9664 21.3616 39.289 18.16 39.289V40.039ZM26.0932 35.7041C27.8962 32.8457 28.775 28.7962 28.775 23.6H28.025C28.025 28.7291 27.1545 32.6157 25.4588 35.3039L26.0932 35.7041ZM28.775 23.6C28.775 18.4038 27.8962 14.3543 26.0932 11.4959L25.4588 11.8961C27.1545 14.5843 28.025 18.4709 28.025 23.6H28.775ZM26.0932 11.4959C24.2739 8.61174 21.6144 7.161 18.16 7.161V7.911C21.3616 7.911 23.7794 9.23359 25.4588 11.8961L26.0932 11.4959ZM18.16 7.161C14.7466 7.161 12.0897 8.61289 10.229 11.4925L10.859 11.8995C12.5823 9.23244 15.0027 7.911 18.16 7.911V7.161ZM10.2268 11.4959C8.42384 14.3543 7.545 18.4038 7.545 23.6H8.295C8.295 18.4709 9.1655 14.5843 10.8612 11.8961L10.2268 11.4959ZM7.545 23.6C7.545 28.7962 8.42384 32.8457 10.2268 35.7041L10.8612 35.3039C9.1655 32.6157 8.295 28.7291 8.295 23.6H7.545ZM10.229 35.7075C12.0897 38.5871 14.7466 40.039 18.16 40.039V39.289C15.0027 39.289 12.5823 37.9676 10.859 35.3005L10.229 35.7075ZM49.6705 1.2V0.824997H49.6062L49.5456 0.846411L49.6705 1.2ZM56.0705 1.2H56.4455V0.824997H56.0705V1.2ZM56.0705 46V46.375H56.4455V46H56.0705ZM48.7105 46H48.3355V46.375H48.7105V46ZM48.7105 9.072H49.0855V8.57582L48.6082 8.71124L48.7105 9.072ZM39.6865 11.632L39.3259 11.735L39.4288 12.0949L39.7888 11.9928L39.6865 11.632ZM37.8945 5.36L37.7696 5.00641L37.437 5.12389L37.5339 5.46302L37.8945 5.36ZM49.6705 1.575H56.0705V0.824997H49.6705V1.575ZM55.6955 1.2V46H56.4455V1.2H55.6955ZM56.0705 45.625H48.7105V46.375H56.0705V45.625ZM49.0855 46V9.072H48.3355V46H49.0855ZM48.6082 8.71124L39.5842 11.2712L39.7888 11.9928L48.8128 9.43276L48.6082 8.71124ZM40.0471 11.529L38.2551 5.25698L37.5339 5.46302L39.3259 11.735L40.0471 11.529ZM38.0194 5.71358L49.7954 1.55358L49.5456 0.846411L37.7696 5.00641L38.0194 5.71358ZM65.611 38.576L65.3458 38.3108L65.3397 38.3171L65.611 38.576ZM72.459 38.576L72.1938 38.8412L72.459 38.576ZM72.1938 45.0948C71.3252 45.9635 70.2898 46.393 69.067 46.393V47.143C70.4895 47.143 71.7155 46.6339 72.7242 45.6252L72.1938 45.0948ZM69.067 46.393C67.8442 46.393 66.8088 45.9635 65.9402 45.0948L65.4098 45.6252C66.4185 46.6339 67.6445 47.143 69.067 47.143V46.393ZM65.9402 45.0948C65.0715 44.2262 64.642 43.1908 64.642 41.968H63.892C63.892 43.3905 64.4011 44.6165 65.4098 45.6252L65.9402 45.0948ZM64.642 41.968C64.642 40.7397 65.0543 39.7024 65.8823 38.8349L65.3397 38.3171C64.3757 39.327 63.892 40.551 63.892 41.968H64.642ZM65.8762 38.8412C66.7423 37.975 67.798 37.543 69.067 37.543V36.793C67.6054 36.793 66.357 37.2996 65.3458 38.3108L65.8762 38.8412ZM69.067 37.543C70.2898 37.543 71.3252 37.9725 72.1938 38.8412L72.7242 38.3108C71.7155 37.3021 70.4895 36.793 69.067 36.793V37.543ZM72.1938 38.8412C73.0625 39.7098 73.492 40.7452 73.492 41.968H74.242C74.242 40.5455 73.7329 39.3195 72.7242 38.3108L72.1938 38.8412ZM73.492 41.968C73.492 43.1908 73.0625 44.2262 72.1938 45.0948L72.7242 45.6252C73.7329 44.6165 74.242 43.3905 74.242 41.968H73.492Z" fill="black"/>
</svg>
