<svg width="85" height="47" viewBox="0 0 85 47" fill="none" xmlns="http://www.w3.org/2000/svg">
<path d="M31.088 40.496L30.7862 40.2734L30.7847 40.2754L31.088 40.496ZM5.168 40.496L4.86472 40.7166L4.86618 40.7186L5.168 40.496ZM5.168 6.704L4.86617 6.48144L4.86472 6.48343L5.168 6.704ZM31.088 6.704L30.7847 6.92457L30.7862 6.92655L31.088 6.704ZM25.776 35.504L26.0932 35.7041L25.776 35.504ZM10.544 11.696L10.229 11.4925L10.2268 11.4959L10.544 11.696ZM10.544 35.504L10.2268 35.7041L10.229 35.7075L10.544 35.504ZM30.7847 40.2754C27.7883 44.3956 23.5954 46.457 18.16 46.457V47.207C23.8179 47.207 28.2437 45.0444 31.3913 40.7166L30.7847 40.2754ZM18.16 46.457C12.7245 46.457 8.50922 44.3954 5.46982 40.2734L4.86618 40.7186C8.05611 45.0446 12.5022 47.207 18.16 47.207V46.457ZM5.47128 40.2754C2.45967 36.1345 0.935 30.5879 0.935 23.6H0.185C0.185 30.6921 1.73233 36.4095 4.86472 40.7166L5.47128 40.2754ZM0.935 23.6C0.935 16.6121 2.45967 11.0655 5.47128 6.92456L4.86472 6.48343C1.73233 10.7905 0.185 16.5079 0.185 23.6H0.935ZM5.46982 6.92655C8.50922 2.80462 12.7245 0.742996 18.16 0.742996V-0.00700378C12.5022 -0.00700378 8.05611 2.15537 4.86618 6.48145L5.46982 6.92655ZM18.16 0.742996C23.5954 0.742996 27.7883 2.80443 30.7847 6.92456L31.3913 6.48343C28.2437 2.15556 23.8179 -0.00700378 18.16 -0.00700378V0.742996ZM30.7862 6.92655C33.8394 11.0673 35.385 16.613 35.385 23.6H36.135C36.135 16.5069 34.5659 10.7887 31.3898 6.48145L30.7862 6.92655ZM35.385 23.6C35.385 30.5869 33.8394 36.1327 30.7862 40.2734L31.3898 40.7186C34.5659 36.4113 36.135 30.6931 36.135 23.6H35.385ZM18.16 40.039C21.6144 40.039 24.2739 38.5883 26.0932 35.7041L25.4588 35.3039C23.7794 37.9664 21.3616 39.289 18.16 39.289V40.039ZM26.0932 35.7041C27.8962 32.8457 28.775 28.7962 28.775 23.6H28.025C28.025 28.7291 27.1545 32.6157 25.4588 35.3039L26.0932 35.7041ZM28.775 23.6C28.775 18.4038 27.8962 14.3543 26.0932 11.4959L25.4588 11.8961C27.1545 14.5843 28.025 18.4709 28.025 23.6H28.775ZM26.0932 11.4959C24.2739 8.61174 21.6144 7.161 18.16 7.161V7.911C21.3616 7.911 23.7794 9.23359 25.4588 11.8961L26.0932 11.4959ZM18.16 7.161C14.7466 7.161 12.0897 8.61289 10.229 11.4925L10.859 11.8995C12.5823 9.23244 15.0027 7.911 18.16 7.911V7.161ZM10.2268 11.4959C8.42384 14.3543 7.545 18.4038 7.545 23.6H8.295C8.295 18.4709 9.1655 14.5843 10.8612 11.8961L10.2268 11.4959ZM7.545 23.6C7.545 28.7962 8.42384 32.8457 10.2268 35.7041L10.8612 35.3039C9.1655 32.6157 8.295 28.7291 8.295 23.6H7.545ZM10.229 35.7075C12.0897 38.5871 14.7466 40.039 18.16 40.039V39.289C15.0027 39.289 12.5823 37.9676 10.859 35.3005L10.229 35.7075ZM39.359 46H38.984V46.375H39.359V46ZM39.359 40.24L39.0912 39.9775L38.984 40.0869V40.24H39.359ZM54.975 24.304L54.7098 24.0388L54.7072 24.0415L54.975 24.304ZM58.687 9.392L58.4262 9.66177L58.4356 9.67029L58.687 9.392ZM45.439 13.104L45.249 13.4273L45.5998 13.6335L45.7767 13.267L45.439 13.104ZM39.231 9.456L38.8918 9.29609L38.7458 9.60582L39.041 9.77931L39.231 9.456ZM45.183 2.672L45.3759 2.99356L45.183 2.672ZM60.415 28.784L60.6802 29.0492L60.6824 29.0469L60.415 28.784ZM50.303 38.896L50.0378 38.6308L49.3977 39.271H50.303V38.896ZM68.863 38.896H69.238V38.521H68.863V38.896ZM68.863 46V46.375H69.238V46H68.863ZM39.734 46V40.24H38.984V46H39.734ZM39.6268 40.5025L55.2428 24.5665L54.7072 24.0415L39.0912 39.9775L39.6268 40.5025ZM55.2402 24.5692C59.0498 20.7596 61.046 17.3804 61.046 14.448H60.296C60.296 17.0623 58.4949 20.2538 54.7098 24.0388L55.2402 24.5692ZM61.046 14.448C61.046 12.1913 60.3568 10.3949 58.9384 9.11371L58.4356 9.67029C59.6626 10.7785 60.296 12.3527 60.296 14.448H61.046ZM58.9476 9.12238C57.5887 7.80871 55.8482 7.161 53.759 7.161V7.911C55.6804 7.911 57.2253 8.50062 58.4264 9.66162L58.9476 9.12238ZM53.759 7.161C51.817 7.161 50.1104 7.642 48.6544 8.61635C47.2006 9.58932 46.0196 11.0389 45.1013 12.941L45.7767 13.267C46.6505 11.4571 47.7521 10.1227 49.0716 9.23965C50.389 8.358 51.9463 7.911 53.759 7.911V7.161ZM45.629 12.7807L39.421 9.13269L39.041 9.77931L45.249 13.4273L45.629 12.7807ZM39.5702 9.6159C40.95 6.68901 42.8863 4.48734 45.3759 2.99356L44.9901 2.35044C42.3597 3.92866 40.328 6.24965 38.8918 9.29609L39.5702 9.6159ZM45.3759 2.99356C47.8751 1.49407 50.6452 0.742996 53.695 0.742996V-0.00700378C50.5154 -0.00700378 47.6109 0.777919 44.9901 2.35044L45.3759 2.99356ZM53.695 0.742996C57.5339 0.742996 60.8153 1.95018 63.5595 4.36168L64.0545 3.79831C61.1667 1.26048 57.7068 -0.00700378 53.695 -0.00700378V0.742996ZM63.5595 4.36168C66.2828 6.75491 67.656 10.0166 67.656 14.192H68.406C68.406 9.83403 66.9632 6.35442 64.0545 3.79831L63.5595 4.36168ZM67.656 14.192C67.656 18.6147 65.1949 23.3889 60.1476 28.5211L60.6824 29.0469C65.7897 23.8537 68.406 18.9 68.406 14.192H67.656ZM60.1498 28.5188L50.0378 38.6308L50.5682 39.1612L60.6802 29.0492L60.1498 28.5188ZM50.303 39.271H68.863V38.521H50.303V39.271ZM68.488 38.896V46H69.238V38.896H68.488ZM68.863 45.625H39.359V46.375H68.863V45.625ZM75.986 38.576L75.7208 38.3108L75.7147 38.3171L75.986 38.576ZM82.834 38.576L82.5688 38.8412L82.834 38.576ZM82.5688 45.0948C81.7002 45.9635 80.6648 46.393 79.442 46.393V47.143C80.8645 47.143 82.0905 46.6339 83.0992 45.6252L82.5688 45.0948ZM79.442 46.393C78.2192 46.393 77.1838 45.9635 76.3152 45.0948L75.7848 45.6252C76.7935 46.6339 78.0195 47.143 79.442 47.143V46.393ZM76.3152 45.0948C75.4465 44.2262 75.017 43.1908 75.017 41.968H74.267C74.267 43.3905 74.7761 44.6165 75.7848 45.6252L76.3152 45.0948ZM75.017 41.968C75.017 40.7397 75.4293 39.7024 76.2573 38.8349L75.7147 38.3171C74.7507 39.327 74.267 40.551 74.267 41.968H75.017ZM76.2512 38.8412C77.1173 37.975 78.173 37.543 79.442 37.543V36.793C77.9804 36.793 76.732 37.2996 75.7208 38.3108L76.2512 38.8412ZM79.442 37.543C80.6648 37.543 81.7002 37.9725 82.5688 38.8412L83.0992 38.3108C82.0905 37.3021 80.8645 36.793 79.442 36.793V37.543ZM82.5688 38.8412C83.4375 39.7098 83.867 40.7452 83.867 41.968H84.617C84.617 40.5455 84.1079 39.3195 83.0992 38.3108L82.5688 38.8412ZM83.867 41.968C83.867 43.1908 83.4375 44.2262 82.5688 45.0948L83.0992 45.6252C84.1079 44.6165 84.617 43.3905 84.617 41.968H83.867Z" fill="black"/>
</svg>
