<svg width="83" height="47" viewBox="0 0 83 47" fill="none" xmlns="http://www.w3.org/2000/svg">
<path d="M31.088 40.496L30.7862 40.2734L30.7847 40.2754L31.088 40.496ZM5.168 40.496L4.86472 40.7166L4.86618 40.7186L5.168 40.496ZM5.168 6.704L4.86617 6.48144L4.86472 6.48343L5.168 6.704ZM31.088 6.704L30.7847 6.92457L30.7862 6.92655L31.088 6.704ZM25.776 35.504L26.0932 35.7041L25.776 35.504ZM10.544 11.696L10.229 11.4925L10.2268 11.4959L10.544 11.696ZM10.544 35.504L10.2268 35.7041L10.229 35.7075L10.544 35.504ZM30.7847 40.2754C27.7883 44.3956 23.5954 46.457 18.16 46.457V47.207C23.8179 47.207 28.2437 45.0444 31.3913 40.7166L30.7847 40.2754ZM18.16 46.457C12.7245 46.457 8.50922 44.3954 5.46982 40.2734L4.86618 40.7186C8.05611 45.0446 12.5022 47.207 18.16 47.207V46.457ZM5.47128 40.2754C2.45967 36.1345 0.935 30.5879 0.935 23.6H0.185C0.185 30.6921 1.73233 36.4095 4.86472 40.7166L5.47128 40.2754ZM0.935 23.6C0.935 16.6121 2.45967 11.0655 5.47128 6.92456L4.86472 6.48343C1.73233 10.7905 0.185 16.5079 0.185 23.6H0.935ZM5.46982 6.92655C8.50922 2.80462 12.7245 0.742996 18.16 0.742996V-0.00700378C12.5022 -0.00700378 8.05611 2.15537 4.86618 6.48145L5.46982 6.92655ZM18.16 0.742996C23.5954 0.742996 27.7883 2.80443 30.7847 6.92456L31.3913 6.48343C28.2437 2.15556 23.8179 -0.00700378 18.16 -0.00700378V0.742996ZM30.7862 6.92655C33.8394 11.0673 35.385 16.613 35.385 23.6H36.135C36.135 16.5069 34.5659 10.7887 31.3898 6.48145L30.7862 6.92655ZM35.385 23.6C35.385 30.5869 33.8394 36.1327 30.7862 40.2734L31.3898 40.7186C34.5659 36.4113 36.135 30.6931 36.135 23.6H35.385ZM18.16 40.039C21.6144 40.039 24.2739 38.5883 26.0932 35.7041L25.4588 35.3039C23.7794 37.9664 21.3616 39.289 18.16 39.289V40.039ZM26.0932 35.7041C27.8962 32.8457 28.775 28.7962 28.775 23.6H28.025C28.025 28.7291 27.1545 32.6157 25.4588 35.3039L26.0932 35.7041ZM28.775 23.6C28.775 18.4038 27.8962 14.3543 26.0932 11.4959L25.4588 11.8961C27.1545 14.5843 28.025 18.4709 28.025 23.6H28.775ZM26.0932 11.4959C24.2739 8.61174 21.6144 7.161 18.16 7.161V7.911C21.3616 7.911 23.7794 9.23359 25.4588 11.8961L26.0932 11.4959ZM18.16 7.161C14.7466 7.161 12.0897 8.61289 10.229 11.4925L10.859 11.8995C12.5823 9.23244 15.0027 7.911 18.16 7.911V7.161ZM10.2268 11.4959C8.42384 14.3543 7.545 18.4038 7.545 23.6H8.295C8.295 18.4709 9.1655 14.5843 10.8612 11.8961L10.2268 11.4959ZM7.545 23.6C7.545 28.7962 8.42384 32.8457 10.2268 35.7041L10.8612 35.3039C9.1655 32.6157 8.295 28.7291 8.295 23.6H7.545ZM10.229 35.7075C12.0897 38.5871 14.7466 40.039 18.16 40.039V39.289C15.0027 39.289 12.5823 37.9676 10.859 35.3005L10.229 35.7075ZM58.0635 19.504L57.7643 19.278L57.418 19.7365L57.9771 19.8689L58.0635 19.504ZM65.9355 24.048L65.6549 24.2969L65.66 24.3024L65.9355 24.048ZM64.4635 42.992L64.7056 43.2784L64.4635 42.992ZM44.1115 44.464L43.9216 44.7874L43.9238 44.7887L44.1115 44.464ZM38.2875 37.552L38.099 37.2278L37.8204 37.3898L37.9386 37.6896L38.2875 37.552ZM44.5595 33.904L44.9141 33.7819L44.7654 33.3504L44.371 33.5798L44.5595 33.904ZM59.4075 37.744L59.6516 38.0288L59.6561 38.0247L59.4075 37.744ZM51.6635 25.264L51.3515 25.472L51.4628 25.639H51.6635V25.264ZM48.7195 20.848L48.4208 20.6213L48.2594 20.8339L48.4075 21.056L48.7195 20.848ZM58.3835 8.112L58.6822 8.33868L59.1388 7.737H58.3835V8.112ZM39.6315 8.112H39.2565V8.487H39.6315V8.112ZM39.6315 1.2V0.824997H39.2565V1.2H39.6315ZM67.1515 1.2H67.5265V0.824997H67.1515V1.2ZM67.1515 7.472L67.4507 7.69801L67.5265 7.5977V7.472H67.1515ZM57.9771 19.8689C61.1527 20.621 63.7061 22.0991 65.6549 24.2968L66.2161 23.7992C64.1543 21.4742 61.4597 19.923 58.1499 19.1391L57.9771 19.8689ZM65.66 24.3024C67.6364 26.4435 68.6325 29.1437 68.6325 32.432H69.3825C69.3825 28.9789 68.3306 26.0898 66.2111 23.7936L65.66 24.3024ZM68.6325 32.432C68.6325 36.8176 67.1549 40.2266 64.2215 42.7056L64.7056 43.2784C67.8307 40.6374 69.3825 37.0064 69.3825 32.432H68.6325ZM64.2215 42.7056C61.2672 45.2021 57.6438 46.457 53.3275 46.457V47.207C57.8005 47.207 61.6011 45.9019 64.7056 43.2784L64.2215 42.7056ZM53.3275 46.457C49.9745 46.457 46.9682 45.6823 44.2992 44.1394L43.9238 44.7887C46.7162 46.403 49.8539 47.207 53.3275 47.207V46.457ZM44.3014 44.1406C41.6891 42.6064 39.8018 40.3696 38.6364 37.4144L37.9386 37.6896C39.1626 40.7931 41.1579 43.1643 43.9216 44.7874L44.3014 44.1406ZM38.476 37.8762L44.748 34.2282L44.371 33.5798L38.099 37.2278L38.476 37.8762ZM44.2049 34.0261C44.8888 36.0114 45.9961 37.5247 47.5376 38.5374C49.0757 39.5478 51.0142 40.039 53.3275 40.039V39.289C51.1181 39.289 49.334 38.8202 47.9494 37.9106C46.5682 37.0033 45.5529 35.6366 44.9141 33.7819L44.2049 34.0261ZM53.3275 40.039C55.9495 40.039 58.0719 39.3827 59.6515 38.0287L59.1635 37.4593C57.7564 38.6653 55.8255 39.289 53.3275 39.289V40.039ZM59.6561 38.0247C61.2394 36.6224 62.0225 34.7446 62.0225 32.432H61.2725C61.2725 34.5568 60.5623 36.2202 59.1589 37.4633L59.6561 38.0247ZM62.0225 32.432C62.0225 30.1195 61.2392 28.2601 59.6515 26.8993L59.1635 27.4687C60.5625 28.6679 61.2725 30.3071 61.2725 32.432H62.0225ZM59.6515 26.8993C58.0719 25.5453 55.9495 24.889 53.3275 24.889V25.639C55.8255 25.639 57.7564 26.2627 59.1635 27.4687L59.6515 26.8993ZM53.3275 24.889H51.6635V25.639H53.3275V24.889ZM51.9755 25.056L49.0315 20.64L48.4075 21.056L51.3515 25.472L51.9755 25.056ZM49.0182 21.0747L58.6822 8.33868L58.0848 7.88532L48.4208 20.6213L49.0182 21.0747ZM58.3835 7.737H39.6315V8.487H58.3835V7.737ZM40.0065 8.112V1.2H39.2565V8.112H40.0065ZM39.6315 1.575H67.1515V0.824997H39.6315V1.575ZM66.7765 1.2V7.472H67.5265V1.2H66.7765ZM66.8523 7.24598L57.7643 19.278L58.3627 19.73L67.4507 7.69801L66.8523 7.24598ZM74.736 38.576L74.4708 38.3108L74.4647 38.3171L74.736 38.576ZM81.584 38.576L81.3188 38.8412L81.584 38.576ZM81.3188 45.0948C80.4502 45.9635 79.4148 46.393 78.192 46.393V47.143C79.6145 47.143 80.8405 46.6339 81.8492 45.6252L81.3188 45.0948ZM78.192 46.393C76.9692 46.393 75.9338 45.9635 75.0652 45.0948L74.5348 45.6252C75.5435 46.6339 76.7695 47.143 78.192 47.143V46.393ZM75.0652 45.0948C74.1965 44.2262 73.767 43.1908 73.767 41.968H73.017C73.017 43.3905 73.5261 44.6165 74.5348 45.6252L75.0652 45.0948ZM73.767 41.968C73.767 40.7397 74.1793 39.7024 75.0073 38.8349L74.4647 38.3171C73.5007 39.327 73.017 40.551 73.017 41.968H73.767ZM75.0012 38.8412C75.8673 37.975 76.923 37.543 78.192 37.543V36.793C76.7304 36.793 75.482 37.2996 74.4708 38.3108L75.0012 38.8412ZM78.192 37.543C79.4148 37.543 80.4502 37.9725 81.3188 38.8412L81.8492 38.3108C80.8405 37.3021 79.6145 36.793 78.192 36.793V37.543ZM81.3188 38.8412C82.1875 39.7098 82.617 40.7452 82.617 41.968H83.367C83.367 40.5455 82.8579 39.3195 81.8492 38.3108L81.3188 38.8412ZM82.617 41.968C82.617 43.1908 82.1875 44.2262 81.3188 45.0948L81.8492 45.6252C82.8579 44.6165 83.367 43.3905 83.367 41.968H82.617Z" fill="black"/>
</svg>
