<svg width="89" height="47" viewBox="0 0 89 47" fill="none" xmlns="http://www.w3.org/2000/svg">
<path d="M31.088 40.496L30.7862 40.2734L30.7847 40.2754L31.088 40.496ZM5.168 40.496L4.86472 40.7166L4.86618 40.7186L5.168 40.496ZM5.168 6.704L4.86617 6.48144L4.86472 6.48343L5.168 6.704ZM31.088 6.704L30.7847 6.92457L30.7862 6.92655L31.088 6.704ZM25.776 35.504L26.0932 35.7041L25.776 35.504ZM10.544 11.696L10.229 11.4925L10.2268 11.4959L10.544 11.696ZM10.544 35.504L10.2268 35.7041L10.229 35.7075L10.544 35.504ZM30.7847 40.2754C27.7883 44.3956 23.5954 46.457 18.16 46.457V47.207C23.8179 47.207 28.2437 45.0444 31.3913 40.7166L30.7847 40.2754ZM18.16 46.457C12.7245 46.457 8.50922 44.3954 5.46982 40.2734L4.86618 40.7186C8.05611 45.0446 12.5022 47.207 18.16 47.207V46.457ZM5.47128 40.2754C2.45967 36.1345 0.935 30.5879 0.935 23.6H0.185C0.185 30.6921 1.73233 36.4095 4.86472 40.7166L5.47128 40.2754ZM0.935 23.6C0.935 16.6121 2.45967 11.0655 5.47128 6.92456L4.86472 6.48343C1.73233 10.7905 0.185 16.5079 0.185 23.6H0.935ZM5.46982 6.92655C8.50922 2.80462 12.7245 0.742996 18.16 0.742996V-0.00700378C12.5022 -0.00700378 8.05611 2.15537 4.86618 6.48145L5.46982 6.92655ZM18.16 0.742996C23.5954 0.742996 27.7883 2.80443 30.7847 6.92456L31.3913 6.48343C28.2437 2.15556 23.8179 -0.00700378 18.16 -0.00700378V0.742996ZM30.7862 6.92655C33.8394 11.0673 35.385 16.613 35.385 23.6H36.135C36.135 16.5069 34.5659 10.7887 31.3898 6.48145L30.7862 6.92655ZM35.385 23.6C35.385 30.5869 33.8394 36.1327 30.7862 40.2734L31.3898 40.7186C34.5659 36.4113 36.135 30.6931 36.135 23.6H35.385ZM18.16 40.039C21.6144 40.039 24.2739 38.5883 26.0932 35.7041L25.4588 35.3039C23.7794 37.9664 21.3616 39.289 18.16 39.289V40.039ZM26.0932 35.7041C27.8962 32.8457 28.775 28.7962 28.775 23.6H28.025C28.025 28.7291 27.1545 32.6157 25.4588 35.3039L26.0932 35.7041ZM28.775 23.6C28.775 18.4038 27.8962 14.3543 26.0932 11.4959L25.4588 11.8961C27.1545 14.5843 28.025 18.4709 28.025 23.6H28.775ZM26.0932 11.4959C24.2739 8.61174 21.6144 7.161 18.16 7.161V7.911C21.3616 7.911 23.7794 9.23359 25.4588 11.8961L26.0932 11.4959ZM18.16 7.161C14.7466 7.161 12.0897 8.61289 10.229 11.4925L10.859 11.8995C12.5823 9.23244 15.0027 7.911 18.16 7.911V7.161ZM10.2268 11.4959C8.42384 14.3543 7.545 18.4038 7.545 23.6H8.295C8.295 18.4709 9.1655 14.5843 10.8612 11.8961L10.2268 11.4959ZM7.545 23.6C7.545 28.7962 8.42384 32.8457 10.2268 35.7041L10.8612 35.3039C9.1655 32.6157 8.295 28.7291 8.295 23.6H7.545ZM10.229 35.7075C12.0897 38.5871 14.7466 40.039 18.16 40.039V39.289C15.0027 39.289 12.5823 37.9676 10.859 35.3005L10.229 35.7075ZM74.3445 31.088H74.7195V30.713H74.3445V31.088ZM74.3445 37.936V38.311H74.7195V37.936H74.3445ZM69.2245 37.936V37.561H68.8495V37.936H69.2245ZM69.2245 46V46.375H69.5995V46H69.2245ZM61.8005 46H61.4255V46.375H61.8005V46ZM61.8005 37.936H62.1755V37.561H61.8005V37.936ZM39.7845 37.936H39.4095V38.311H39.7845V37.936ZM39.7845 31.088L39.4513 30.916L39.4095 30.9969V31.088H39.7845ZM55.2085 1.2V0.824997H54.98L54.8753 1.02802L55.2085 1.2ZM63.2085 1.2L63.5417 1.37197L63.824 0.824997H63.2085V1.2ZM47.7845 31.088L47.4513 30.916L47.169 31.463H47.7845V31.088ZM61.8005 31.088V31.463H62.1755V31.088H61.8005ZM61.8005 19.44V19.065H61.4255V19.44H61.8005ZM69.2245 19.44H69.5995V19.065H69.2245V19.44ZM69.2245 31.088H68.8495V31.463H69.2245V31.088ZM73.9695 31.088V37.936H74.7195V31.088H73.9695ZM74.3445 37.561H69.2245V38.311H74.3445V37.561ZM68.8495 37.936V46H69.5995V37.936H68.8495ZM69.2245 45.625H61.8005V46.375H69.2245V45.625ZM62.1755 46V37.936H61.4255V46H62.1755ZM61.8005 37.561H39.7845V38.311H61.8005V37.561ZM40.1595 37.936V31.088H39.4095V37.936H40.1595ZM40.1177 31.26L55.5417 1.37197L54.8753 1.02802L39.4513 30.916L40.1177 31.26ZM55.2085 1.575H63.2085V0.824997H55.2085V1.575ZM62.8753 1.02802L47.4513 30.916L48.1177 31.26L63.5417 1.37197L62.8753 1.02802ZM47.7845 31.463H61.8005V30.713H47.7845V31.463ZM62.1755 31.088V19.44H61.4255V31.088H62.1755ZM61.8005 19.815H69.2245V19.065H61.8005V19.815ZM68.8495 19.44V31.088H69.5995V19.44H68.8495ZM69.2245 31.463H74.3445V30.713H69.2245V31.463ZM80.1735 38.576L79.9083 38.3108L79.9022 38.3171L80.1735 38.576ZM87.0215 38.576L86.7563 38.8412L87.0215 38.576ZM86.7563 45.0948C85.8877 45.9635 84.8523 46.393 83.6295 46.393V47.143C85.052 47.143 86.278 46.6339 87.2867 45.6252L86.7563 45.0948ZM83.6295 46.393C82.4067 46.393 81.3713 45.9635 80.5027 45.0948L79.9723 45.6252C80.981 46.6339 82.207 47.143 83.6295 47.143V46.393ZM80.5027 45.0948C79.634 44.2262 79.2045 43.1908 79.2045 41.968H78.4545C78.4545 43.3905 78.9636 44.6165 79.9723 45.6252L80.5027 45.0948ZM79.2045 41.968C79.2045 40.7397 79.6168 39.7024 80.4448 38.8349L79.9022 38.3171C78.9382 39.327 78.4545 40.551 78.4545 41.968H79.2045ZM80.4387 38.8412C81.3048 37.975 82.3605 37.543 83.6295 37.543V36.793C82.1679 36.793 80.9195 37.2996 79.9083 38.3108L80.4387 38.8412ZM83.6295 37.543C84.8523 37.543 85.8877 37.9725 86.7563 38.8412L87.2867 38.3108C86.278 37.3021 85.052 36.793 83.6295 36.793V37.543ZM86.7563 38.8412C87.625 39.7098 88.0545 40.7452 88.0545 41.968H88.8045C88.8045 40.5455 88.2954 39.3195 87.2867 38.3108L86.7563 38.8412ZM88.0545 41.968C88.0545 43.1908 87.625 44.2262 86.7563 45.0948L87.2867 45.6252C88.2954 44.6165 88.8045 43.3905 88.8045 41.968H88.0545Z" fill="black"/>
</svg>
