<svg width="473" height="473" viewBox="0 0 473 473" fill="none" xmlns="http://www.w3.org/2000/svg">
<path d="M416.505 117.228C419.004 116.124 421.124 114.311 422.604 112.015C424.084 109.718 424.857 107.038 424.83 104.306C424.83 96.5958 419.021 90.3144 411.784 90.2765C404.547 90.2387 398.663 96.4728 398.635 104.183C398.582 106.938 399.346 109.647 400.831 111.969C402.316 114.291 404.455 116.121 406.979 117.228C386.829 120.265 387.746 142.165 387.746 142.165L435.396 142.382C435.396 142.382 436.484 120.246 416.505 117.228Z" fill="#EBEBEB"/>
<path d="M340.154 179.185C344.32 174.176 343.637 166.738 338.628 162.572C333.619 158.406 326.181 159.089 322.015 164.098C317.849 169.107 318.532 176.545 323.541 180.711C328.55 184.877 335.988 184.194 340.154 179.185Z" fill="#E0E0E0"/>
<path d="M339.046 158.739C338.84 159.306 338.469 159.8 337.982 160.158C337.494 160.515 336.912 160.72 336.308 160.746C335.704 160.772 335.106 160.619 334.59 160.305C334.073 159.992 333.661 159.532 333.406 158.984C333.15 158.437 333.063 157.825 333.155 157.228C333.247 156.631 333.514 156.074 333.923 155.629C334.331 155.183 334.862 154.869 335.449 154.725C336.036 154.582 336.653 154.615 337.221 154.822C337.982 155.099 338.602 155.668 338.945 156.402C339.287 157.137 339.324 157.977 339.046 158.739Z" fill="#EBEBEB"/>
<path d="M275.019 262.64L315.593 277.4C317.39 278.053 318.853 279.394 319.661 281.126C320.47 282.859 320.557 284.842 319.903 286.638L319.415 287.981L265.292 268.292L265.78 266.95C266.434 265.153 267.774 263.69 269.507 262.882C271.24 262.073 273.222 261.986 275.019 262.64Z" fill="#E0E0E0"/>
<path d="M286.818 249.053C286.818 249.053 281.35 252.989 276.658 253.31C275.272 253.375 273.906 253.673 272.618 254.19C271.914 254.447 271.297 254.899 270.839 255.494C270.382 256.089 270.103 256.801 270.036 257.548C269.572 260.774 275.343 262.751 275.343 262.751L297.971 270.982L303.713 255.202L286.818 249.053Z" fill="#EBEBEB"/>
<path d="M317.771 278.19C317.771 278.19 320.76 279.619 322.501 277.065C322.978 276.362 323.245 275.537 323.272 274.688C323.299 273.839 323.084 273 322.652 272.268C321.956 271.101 321.096 270.04 320.098 269.118C316.702 265.864 315.037 259.336 315.037 259.336L298.151 253.188L292.409 268.976" fill="#EBEBEB"/>
<path d="M285.399 244.096L286.78 249.044L315.141 259.365L319.559 256.527L285.399 244.096Z" fill="#E0E0E0"/>
<path d="M328.729 212.42L307.182 204.627C305.945 204.179 304.579 204.82 304.131 206.057L303.809 206.947C303.362 208.184 304.002 209.55 305.24 209.998L326.786 217.791C328.023 218.239 329.39 217.599 329.837 216.361L330.159 215.472C330.607 214.234 329.966 212.868 328.729 212.42Z" fill="#EBEBEB"/>
<path d="M328.29 209.181L309.132 202.212C308.356 201.929 307.499 202.33 307.217 203.105L307.013 203.665C306.731 204.441 307.131 205.299 307.907 205.581L327.065 212.55C327.84 212.832 328.698 212.432 328.98 211.656L329.184 211.096C329.466 210.321 329.066 209.463 328.29 209.181Z" fill="#EBEBEB"/>
<path d="M329.016 203.774L312.045 197.6C311.583 197.432 311.073 197.67 310.905 198.132L310.782 198.469C310.614 198.931 310.852 199.441 311.314 199.609L328.285 205.783C328.746 205.951 329.257 205.713 329.425 205.251L329.547 204.913C329.715 204.452 329.477 203.941 329.016 203.774Z" fill="#EBEBEB"/>
<path d="M307.989 211.687C307.989 211.687 298.624 236.5 285.399 244.068L302.521 250.302L315.576 214.42L307.989 211.687Z" fill="#EBEBEB"/>
<path d="M322.633 217.012C322.633 217.012 314.299 242.223 319.559 256.527L301.991 250.141L315.018 214.259L322.633 217.012Z" fill="#EBEBEB"/>
<path d="M348.327 175.577C345.962 170.847 341.506 173.373 339.718 174.243C337.93 175.114 335.404 173.856 334.865 170.913C334.411 168.492 333.068 167.971 332.481 167.83C331.895 167.688 330.589 167.092 328.697 168.662C326.389 170.554 323.646 169.911 322.832 168.094C322.018 166.278 320.221 161.472 315.387 163.591C315.387 163.591 319.407 175.681 317.014 185.832C314.621 195.982 312.852 200.495 310.837 202.86L318.49 205.641L318.972 205.821L326.625 208.602C326.578 205.518 328.12 200.93 332.803 191.574C337.485 182.218 348.327 175.577 348.327 175.577Z" fill="#EBEBEB"/>
<path d="M315.68 277.462C315.633 277.594 306.466 274.378 295.218 270.281C283.97 266.185 274.87 262.77 274.917 262.638C274.964 262.505 284.122 265.722 295.379 269.818C306.636 273.914 315.727 277.339 315.68 277.462Z" fill="#E0E0E0"/>
<path d="M315.311 259.421C315.264 259.554 308.841 257.331 300.97 254.464C293.099 251.598 286.78 249.176 286.78 249.044C286.78 248.911 293.25 251.134 301.131 254.001C309.011 256.867 315.358 259.298 315.311 259.421Z" fill="#E0E0E0"/>
<path d="M319.559 256.527C319.559 256.659 311.83 253.973 302.398 250.548C292.967 247.124 285.37 244.229 285.37 244.096C285.37 243.964 293.099 246.651 302.531 250.085C311.962 253.519 319.606 256.366 319.559 256.527Z" fill="#E0E0E0"/>
<path d="M325.746 218.148C325.746 218.271 321.091 216.719 315.444 214.666C309.796 212.614 305.274 210.882 305.312 210.712C305.35 210.542 309.976 212.15 315.614 214.203C321.252 216.256 325.793 218.015 325.746 218.148Z" fill="#E0E0E0"/>
<path d="M327.704 212.774C327.656 212.907 323.04 211.346 317.402 209.293C311.764 207.24 307.223 205.509 307.27 205.348C307.317 205.187 311.924 206.777 317.572 208.829C323.22 210.882 327.742 212.651 327.704 212.774Z" fill="#E0E0E0"/>
<path d="M327.987 209.066C327.987 209.189 323.749 207.789 318.622 205.925C313.495 204.061 309.389 202.444 309.436 202.321C312.607 203.208 315.729 204.256 318.792 205.462C321.916 206.507 324.985 207.71 327.987 209.066Z" fill="#E0E0E0"/>
<path d="M328.262 205.85C325.347 205.058 322.476 204.111 319.663 203.012C316.793 202.053 313.976 200.941 311.225 199.682C314.141 200.47 317.011 201.417 319.824 202.52C322.696 203.473 325.513 204.585 328.262 205.85Z" fill="#E0E0E0"/>
<path d="M329.094 203.674C326.175 202.887 323.301 201.939 320.486 200.836C317.616 199.875 314.8 198.764 312.047 197.506C314.967 198.293 317.841 199.24 320.656 200.344C323.526 201.302 326.343 202.414 329.094 203.674Z" fill="#E0E0E0"/>
<path d="M315.368 163.592C315.368 163.592 315.491 163.507 315.746 163.393L316.229 163.195L316.929 163.034C317.242 162.99 317.558 162.964 317.875 162.958C318.234 162.975 318.59 163.035 318.934 163.138C319.778 163.417 320.525 163.929 321.091 164.614C321.766 165.42 322.317 166.322 322.728 167.291C322.912 167.813 323.191 168.297 323.551 168.719C323.953 169.123 324.467 169.397 325.027 169.504C325.639 169.613 326.268 169.585 326.869 169.421C327.469 169.257 328.026 168.963 328.498 168.558C329.054 168.08 329.696 167.714 330.39 167.48C331.139 167.234 331.954 167.292 332.661 167.641C333.025 167.725 333.367 167.886 333.664 168.114C333.97 168.346 334.232 168.631 334.439 168.956C334.821 169.574 335.075 170.262 335.187 170.98C335.286 171.596 335.519 172.182 335.871 172.697C336.222 173.212 336.683 173.644 337.221 173.96C337.721 174.24 338.295 174.362 338.867 174.31C339.411 174.216 339.933 174.023 340.409 173.742C341.346 173.268 342.346 172.931 343.379 172.74C344.253 172.586 345.153 172.674 345.98 172.995C346.318 173.138 346.635 173.322 346.926 173.544C347.157 173.738 347.372 173.95 347.57 174.178L347.995 174.755L348.241 175.209C348.364 175.464 348.431 175.597 348.412 175.606C348.393 175.615 348.308 175.493 348.156 175.265L347.872 174.83L347.428 174.301C347.224 174.1 347.009 173.911 346.785 173.733C346.511 173.533 346.212 173.371 345.895 173.25C345.112 172.974 344.269 172.915 343.455 173.08C342.465 173.291 341.51 173.638 340.617 174.111L339.85 174.49C339.553 174.629 339.232 174.712 338.904 174.736C338.25 174.804 337.59 174.672 337.012 174.357C336.41 174.015 335.891 173.543 335.493 172.975C335.096 172.407 334.829 171.758 334.714 171.075C334.477 169.788 333.891 168.426 332.443 168.076C331.851 167.796 331.175 167.752 330.551 167.953C329.924 168.153 329.342 168.474 328.839 168.899C328.313 169.35 327.692 169.677 327.022 169.856C326.352 170.034 325.651 170.06 324.97 169.93C324.322 169.795 323.731 169.465 323.276 168.984C323.058 168.755 322.876 168.493 322.737 168.208L322.397 167.423C322.017 166.479 321.5 165.597 320.864 164.803C320.348 164.152 319.665 163.655 318.887 163.365C318.58 163.261 318.263 163.191 317.941 163.157C317.654 163.137 317.367 163.137 317.08 163.157L316.399 163.27L315.907 163.422C315.738 163.508 315.556 163.566 315.368 163.592Z" fill="#E0E0E0"/>
<path d="M140.358 205.499C142.919 203.956 145.674 202.76 148.55 201.943L150.244 193.835L163.942 193.589L165.909 201.64C168.815 202.351 171.611 203.448 174.225 204.904L181.149 200.372L191.007 209.889L186.721 216.965C188.265 219.526 189.461 222.281 190.278 225.157L198.386 226.851L198.632 240.549L190.581 242.516C189.865 245.422 188.764 248.218 187.308 250.832L191.849 257.757L182.332 267.614L175.256 263.319C172.695 264.866 169.94 266.065 167.063 266.885L165.37 274.993L151.672 275.229L149.704 267.188C146.799 266.474 144.002 265.373 141.389 263.915L134.464 268.456L124.607 258.939L128.902 251.863C127.353 249.3 126.154 246.542 125.335 243.661L117.228 241.977L116.992 228.279L125.033 226.302C125.748 223.4 126.849 220.606 128.306 217.996L123.765 211.071L133.282 201.214L140.358 205.499ZM147.661 223.757C145.645 225.851 144.295 228.495 143.782 231.355C143.268 234.215 143.614 237.163 144.775 239.827C145.936 242.491 147.86 244.752 150.305 246.322C152.75 247.893 155.606 248.704 158.512 248.652C161.417 248.601 164.242 247.689 166.63 246.033C169.018 244.376 170.861 242.05 171.927 239.346C172.993 236.643 173.234 233.684 172.619 230.844C172.004 228.003 170.562 225.409 168.473 223.388C167.083 222.044 165.442 220.987 163.643 220.278C161.845 219.568 159.924 219.221 157.99 219.255C156.057 219.289 154.15 219.705 152.377 220.477C150.605 221.25 149.002 222.364 147.661 223.757Z" fill="#E0E0E0"/>
<path d="M47.2432 351.571C49.017 350.502 50.9259 349.675 52.9192 349.112L54.0828 343.521L63.5428 343.36L64.905 348.903C66.9063 349.4 68.8337 350.157 70.6378 351.155L75.4151 348.033L82.2074 354.589L79.218 359.48C80.2844 361.254 81.1084 363.163 81.6681 365.156L87.259 366.319L87.4293 375.779L81.8763 377.142C81.386 379.145 80.6287 381.073 79.6248 382.874L82.756 387.652L76.1908 394.453L71.3094 391.492C69.5348 392.558 67.6259 393.382 65.6334 393.942L64.4699 399.533L55.0099 399.704L53.6476 394.151C51.645 393.659 49.717 392.902 47.9149 391.899L43.1849 395.03L36.3926 388.465L39.3536 383.584C38.2852 381.809 37.458 379.901 36.894 377.908L31.3031 376.744L31.1328 367.284L36.6858 365.922C37.1777 363.919 37.9349 361.991 38.9373 360.189L35.8061 355.459L42.3713 348.657L47.2527 351.618L47.2432 351.571ZM52.2854 364.153C50.8906 365.595 49.9548 367.418 49.5964 369.392C49.2381 371.366 49.4732 373.402 50.2722 375.242C51.0711 377.082 52.3979 378.644 54.0847 379.73C55.7715 380.816 57.7426 381.378 59.7484 381.343C61.7543 381.309 63.705 380.68 65.3535 379.537C67.0021 378.394 68.2745 376.787 69.0098 374.921C69.7451 373.054 69.9103 371.011 69.4844 369.051C69.0585 367.09 68.0607 365.3 66.6173 363.907C64.6823 362.043 62.087 361.022 59.4005 361.068C56.7139 361.114 54.1553 362.223 52.2854 364.153Z" fill="#EBEBEB"/>
<path d="M42.286 143.092C43.3605 142.437 44.5189 141.931 45.7295 141.588L46.439 138.182L52.2001 138.078L53.0326 141.465C54.2525 141.768 55.4265 142.232 56.5233 142.846L59.437 140.954L63.59 144.965L61.7831 147.935C62.4274 149.007 62.9298 150.159 63.2778 151.36L66.6928 152.069L66.7874 157.831L63.4102 158.663C63.1071 159.883 62.6426 161.057 62.0291 162.154L63.9211 165.068L59.9195 169.22L56.9585 167.442C55.8809 168.088 54.7232 168.591 53.5151 168.937L52.8056 172.352L47.0444 172.446L46.2119 169.069C44.9891 168.766 43.812 168.302 42.7117 167.688L39.7981 169.58L35.6546 165.55L37.4614 162.57C36.8022 161.503 36.2929 160.351 35.9478 159.146L32.5328 158.436L32.4287 152.665L35.8154 151.842C36.1154 150.62 36.5766 149.443 37.1871 148.342L35.2951 145.429L39.2967 141.285L42.2766 143.092H42.286ZM45.3511 150.764C44.5012 151.644 43.9315 152.757 43.7138 153.961C43.4961 155.165 43.6404 156.406 44.1282 157.528C44.616 158.65 45.4256 159.602 46.4546 160.264C47.4835 160.926 48.6856 161.268 49.909 161.247C51.1323 161.226 52.3219 160.843 53.3273 160.145C54.3327 159.448 55.1089 158.469 55.5576 157.33C56.0064 156.192 56.1076 154.946 55.8484 153.751C55.5892 152.555 54.9813 151.463 54.1016 150.613C52.9201 149.474 51.3354 148.851 49.695 148.879C48.0546 148.908 46.4924 149.585 45.3511 150.764Z" fill="#EBEBEB"/>
<path d="M228.525 43.5159C229.347 49.0159 228.518 54.6361 226.144 59.6648C223.769 64.6935 219.956 68.9044 215.186 71.7642C210.417 74.6241 204.906 76.0043 199.352 75.73C193.798 75.4557 188.45 73.5393 183.985 70.2235C179.521 66.9077 176.141 62.3416 174.273 57.1034C172.406 51.8653 172.134 46.1908 173.494 40.7985C174.854 35.4062 177.783 30.5386 181.911 26.8123C186.039 23.086 191.18 20.6684 196.683 19.8659C204.041 18.7852 211.527 20.6688 217.497 25.1031C223.467 29.5373 227.434 36.1596 228.525 43.5159Z" fill="#F5F5F5"/>
<path d="M221.913 44.462C222.531 48.6548 221.892 52.9368 220.076 56.7661C218.26 60.5954 215.349 63.7998 211.711 65.9738C208.073 68.1478 203.871 69.1935 199.639 68.9786C195.406 68.7638 191.332 67.298 187.933 64.7668C184.534 62.2356 181.962 58.7528 180.543 54.7593C179.124 50.7657 178.922 46.441 179.962 42.3325C181.002 38.224 183.238 34.5165 186.386 31.6791C189.534 28.8418 193.454 27.0023 197.648 26.3934C200.427 25.9862 203.26 26.1305 205.984 26.8181C208.708 27.5058 211.27 28.7234 213.523 30.4013C215.776 32.0791 217.677 34.1845 219.117 36.5971C220.556 39.0097 221.506 41.6822 221.913 44.462Z" fill="#EBEBEB"/>
<path d="M221.809 43.8187C221.405 43.0356 221.088 42.2108 220.863 41.3591C220.056 39.149 218.91 37.0778 217.466 35.2196C216.476 33.9525 215.35 32.7978 214.108 31.7761C212.677 30.6158 211.103 29.6431 209.425 28.8814C207.577 28.0453 205.618 27.4813 203.608 27.207C202.545 27.0627 201.473 26.9995 200.401 27.0178C199.297 27.0461 198.197 27.1536 197.109 27.3394C196.024 27.5376 194.955 27.8158 193.911 28.1719C192.898 28.5199 191.915 28.947 190.969 29.449C189.176 30.4002 187.529 31.6045 186.078 33.0249C184.766 34.3146 183.624 35.7676 182.682 37.3481C181.868 38.7352 181.208 40.2071 180.714 41.7375C180.002 43.9798 179.642 46.319 179.645 48.6717C179.741 49.5489 179.741 50.4339 179.645 51.311C179.262 50.4963 179.056 49.6097 179.04 48.7095C178.779 46.263 178.978 43.7893 179.626 41.4159C180.073 39.7717 180.708 38.1845 181.518 36.6859C182.47 34.9583 183.651 33.3672 185.028 31.9559C187.371 29.5594 190.237 27.7367 193.4 26.6299C194.523 26.2303 195.674 25.9141 196.844 25.6839C198.016 25.4855 199.202 25.3748 200.391 25.3528C201.55 25.3326 202.708 25.4085 203.854 25.5798C204.957 25.7352 206.045 25.982 207.108 26.3177C208.128 26.6284 209.124 27.0141 210.088 27.4718C213.425 29.0532 216.296 31.4714 218.422 34.4912C219.849 36.4873 220.889 38.7335 221.487 41.1132C221.793 41.9802 221.903 42.9042 221.809 43.8187Z" fill="#E0E0E0"/>
<path d="M204.951 59.8531L205.547 63.5425L202.255 64.0628L201.678 60.4775C198.742 60.859 195.757 60.4032 193.069 59.1626L194.233 54.8677C196.332 55.885 198.66 56.3382 200.987 56.1827L200.107 50.6864C196.323 50.3837 192.047 49.8255 191.291 45.1239C190.732 41.6332 192.785 38.237 197.913 36.818L197.336 33.1665L200.618 32.6367L201.195 36.2221C203.571 35.9787 205.97 36.3029 208.196 37.1681L207.174 41.4534C205.485 40.7887 203.681 40.4671 201.867 40.5074L202.813 46.0983C206.597 46.3632 210.807 46.9402 211.554 51.5756C212.036 55.0475 210.012 58.4058 204.951 59.8531ZM199.341 45.8429L198.584 41.1791C196.91 41.8508 196.371 42.9197 196.541 44.0171C196.711 45.1145 197.818 45.6158 199.341 45.8429ZM206.228 52.8717C206.039 51.7175 204.989 51.2445 203.494 50.9797L204.222 55.511C205.84 54.8677 206.427 53.9217 206.228 52.8717Z" fill="#E0E0E0"/>
<path d="M320.003 432.171C320.657 436.597 319.983 441.117 318.066 445.16C316.149 449.202 313.077 452.585 309.236 454.881C305.396 457.176 300.961 458.281 296.493 458.054C292.025 457.828 287.724 456.281 284.135 453.609C280.547 450.938 277.831 447.262 276.333 443.046C274.834 438.83 274.62 434.265 275.718 429.928C276.815 425.59 279.175 421.676 282.498 418.681C285.821 415.685 289.958 413.743 294.386 413.099C297.32 412.668 300.311 412.819 303.187 413.544C306.063 414.27 308.768 415.554 311.147 417.326C313.526 419.097 315.533 421.32 317.053 423.867C318.572 426.414 319.575 429.236 320.003 432.171Z" fill="#F5F5F5"/>
<path d="M314.677 432.937C315.175 436.309 314.661 439.753 313.201 442.832C311.741 445.912 309.4 448.49 306.475 450.239C303.549 451.988 300.17 452.83 296.766 452.658C293.362 452.486 290.085 451.308 287.351 449.273C284.616 447.238 282.547 444.437 281.405 441.226C280.263 438.015 280.099 434.536 280.934 431.232C281.769 427.927 283.566 424.945 286.097 422.662C288.628 420.378 291.779 418.898 295.152 418.406C297.388 418.078 299.667 418.193 301.859 418.746C304.05 419.298 306.111 420.277 307.925 421.627C309.738 422.976 311.267 424.669 312.426 426.61C313.585 428.551 314.35 430.7 314.677 432.937Z" fill="#EBEBEB"/>
<path d="M314.592 432.407C314.279 431.771 314.029 431.105 313.845 430.42C313.199 428.642 312.28 426.976 311.121 425.482C309.413 423.279 307.192 421.528 304.65 420.383C303.925 420.051 303.175 419.776 302.408 419.56C301.609 419.322 300.793 419.149 299.967 419.04C299.115 418.918 298.254 418.867 297.394 418.889C296.506 418.908 295.621 418.994 294.745 419.144C293.872 419.302 293.011 419.526 292.172 419.816C291.358 420.092 290.567 420.434 289.807 420.837C289.069 421.23 288.361 421.675 287.688 422.171C287.045 422.642 286.438 423.161 285.872 423.723C283.882 425.673 282.399 428.079 281.549 430.733C280.974 432.534 280.687 434.414 280.697 436.304C280.766 437.009 280.766 437.719 280.697 438.424C280.378 437.772 280.207 437.058 280.196 436.333C279.992 434.365 280.153 432.377 280.669 430.468C281.69 426.762 283.896 423.493 286.95 421.159C287.665 420.616 288.421 420.129 289.211 419.702C290.028 419.26 290.879 418.884 291.756 418.576C292.662 418.261 293.592 418.017 294.537 417.848C295.475 417.688 296.424 417.596 297.375 417.574C298.306 417.56 299.236 417.623 300.156 417.763C301.044 417.887 301.921 418.083 302.777 418.349C303.6 418.605 304.403 418.921 305.18 419.295C306.607 419.981 307.936 420.852 309.134 421.887C310.167 422.792 311.091 423.814 311.887 424.934C313.03 426.548 313.864 428.36 314.346 430.278C314.583 430.961 314.667 431.688 314.592 432.407Z" fill="#E0E0E0"/>
<path d="M301.036 445.301L301.509 448.271L298.87 448.688L298.406 445.85C296.043 446.15 293.644 445.78 291.481 444.781L292.427 441.328C294.116 442.143 295.987 442.505 297.857 442.378L297.148 437.96C294.102 437.714 290.668 437.26 290.062 433.486C289.608 430.648 291.264 427.942 295.36 426.797L294.896 423.865L297.536 423.439L297.999 426.324C299.908 426.124 301.838 426.38 303.628 427.072L302.824 430.543C301.465 430.018 300.014 429.77 298.557 429.815L299.276 434.309C302.323 434.526 305.709 434.99 306.305 438.717C306.74 441.432 305.113 444.137 301.036 445.301ZM296.524 434.034L295.918 430.25C294.565 430.789 294.13 431.65 294.272 432.521C294.414 433.391 295.294 433.854 296.524 434.034ZM302.096 439.71C301.944 438.764 301.093 438.405 299.891 438.187L300.478 441.839C301.774 441.309 302.228 440.533 302.096 439.682V439.71Z" fill="#E0E0E0"/>
<path d="M407.026 245.43C407.026 245.43 407.026 244.484 406.931 242.715C406.931 241.817 406.875 240.7 406.837 239.376C406.799 238.051 406.771 236.538 406.6 234.759C406.43 232.981 406.316 231.07 406.146 228.913C405.976 226.756 405.588 224.429 405.276 221.894C404.433 216.067 403.3 210.286 401.88 204.573C401.52 202.955 400.981 201.328 400.527 199.634L399.789 197.08L399.42 195.775L398.985 194.469L397.159 189.105C396.866 188.159 396.506 187.28 396.137 186.362C395.769 185.444 395.409 184.47 395.04 183.571C391.811 175.415 387.919 167.537 383.404 160.016C372.399 141.635 357.997 125.516 340.967 112.517C320.278 96.7663 296.191 86.0753 270.632 81.2993L265.457 80.3533L260.197 79.6816C256.688 79.1519 253.112 79.0005 249.517 78.7356C247.72 78.5748 245.903 78.6126 244.087 78.5464L241.362 78.4802C240.416 78.4802 239.537 78.4234 238.619 78.4802C234.958 78.5937 231.269 78.5748 227.56 78.9437C220.037 79.4805 212.559 80.5267 205.178 82.075C201.451 82.9359 197.686 83.74 193.977 84.913C190.193 85.859 186.57 87.2307 182.843 88.47C167.723 93.9658 153.475 101.612 140.538 111.174C133.894 116.15 127.598 121.574 121.693 127.407C115.75 133.42 110.237 139.843 105.195 146.63L101.477 151.861L97.9866 157.282C96.7852 159.07 95.7824 160.99 94.6851 162.844L93.0674 165.682L91.5727 168.52L90.0875 171.425C89.5861 172.371 89.1415 173.364 88.6685 174.367L85.9724 180.336C85.1715 182.367 84.3642 184.404 83.5507 186.447L82.9452 187.98L82.4155 189.541L81.3559 192.691L80.3059 195.822L79.3599 199.01L78.4139 202.198L77.9693 203.806L77.5909 205.424C77.0989 207.587 76.6007 209.753 76.0962 211.923C75.7115 214.118 75.3205 216.325 74.9231 218.545C72.0158 236.347 72.0158 254.504 74.9231 272.306C75.3205 274.51 75.7083 276.705 76.1056 278.928C76.503 281.151 77.0516 283.27 77.5909 285.427L77.9693 287.054C78.1017 287.594 78.2625 288.123 78.4139 288.653L79.3599 291.851L80.3059 295.039L81.3559 298.132L82.4155 301.263L82.9452 302.824L83.5507 304.357L85.963 310.477L88.6685 316.447L89.3402 317.932L90.0875 319.389L91.5727 322.283L93.0674 325.178L94.6851 328.016C95.7824 329.908 96.7757 331.8 97.9866 333.579C99.1975 335.357 100.314 337.192 101.468 338.999L105.195 344.231C110.233 351.032 115.747 357.468 121.693 363.491C127.6 369.323 133.896 374.746 140.538 379.724C147.089 384.542 153.967 388.898 161.123 392.76C168.149 396.483 175.418 399.729 182.881 402.476C186.608 403.715 190.269 405.058 194.025 406.033C197.723 407.177 201.498 407.972 205.216 408.871C212.601 410.415 220.082 411.458 227.608 411.993C231.306 412.361 235.005 412.343 238.666 412.456C239.612 412.503 240.492 412.456 241.41 412.456L244.134 412.39C245.95 412.324 247.767 412.39 249.564 412.201C253.159 411.898 256.735 411.747 260.245 411.255L265.504 410.583L270.679 409.637C296.238 404.861 320.326 394.17 341.014 378.419C358.042 365.414 372.443 349.292 383.452 330.911C387.958 323.39 391.846 315.515 395.078 307.365L396.175 304.574C396.544 303.628 396.904 302.748 397.197 301.821L399.023 296.467C399.165 296.022 399.316 295.587 399.458 295.162C399.6 294.736 399.713 294.291 399.836 293.856C400.082 292.995 400.319 292.134 400.565 291.292C401.019 289.609 401.558 287.981 401.918 286.354C403.338 280.644 404.471 274.866 405.314 269.042C405.626 266.507 405.966 264.171 406.184 262.023C406.402 259.876 406.506 257.917 406.638 256.177C406.771 254.436 406.846 252.894 406.875 251.56C406.903 250.227 406.941 249.12 406.969 248.221C407.026 246.433 407.064 245.515 407.064 245.515C407.064 245.515 407.064 246.461 407.064 248.221C407.064 249.12 407.016 250.236 406.988 251.56C406.96 252.885 406.941 254.398 406.78 256.177C406.619 257.955 406.506 259.876 406.345 262.033C406.184 264.189 405.796 266.517 405.493 269.061C404.64 274.868 403.49 280.627 402.05 286.316C401.69 287.944 401.161 289.571 400.697 291.264C400.461 292.106 400.224 292.967 399.978 293.828L399.609 295.143C399.458 295.568 399.316 296.003 399.165 296.439L397.377 301.774C397.083 302.72 396.724 303.609 396.355 304.527C395.986 305.445 395.627 306.419 395.258 307.365C392.038 315.535 388.156 323.429 383.65 330.968C372.649 349.4 358.237 365.569 341.184 378.608C320.463 394.415 296.331 405.155 270.717 409.968L265.533 410.914L260.263 411.595C256.744 412.125 253.15 412.276 249.545 412.541C247.748 412.702 245.932 412.664 244.106 412.74L241.372 412.816C240.426 412.816 239.546 412.863 238.628 412.816C234.958 412.693 231.25 412.711 227.541 412.352C219.997 411.819 212.497 410.776 205.093 409.23C201.309 408.36 197.581 407.556 193.864 406.392C190.08 405.446 186.419 404.074 182.691 402.826C167.521 397.31 153.228 389.631 140.254 380.027C133.587 375.037 127.266 369.601 121.334 363.756C115.374 357.712 109.845 351.257 104.788 344.439C103.54 342.698 102.3 340.948 101.004 339.198L97.5042 333.758C96.3027 331.97 95.3 330.041 94.1932 328.177L92.566 325.339L91.0714 322.435L89.5861 319.53L88.9239 318.14L88.2428 316.655L85.5373 310.666C84.7332 308.623 83.9196 306.58 83.1155 304.527L82.5101 302.994L81.9803 301.424L80.9113 298.283L79.8234 295.152L78.8774 291.945L77.9314 288.748C77.7801 288.208 77.6192 287.679 77.4868 287.139L77.1084 285.512C76.607 283.337 76.1624 281.161 75.6137 278.985C75.065 276.809 74.8285 274.586 74.4312 272.363C71.5102 254.508 71.5102 236.296 74.4312 218.441C74.8191 216.227 75.2164 214.033 75.6137 211.819C76.011 209.605 76.5597 207.467 77.1084 205.301L77.4773 203.674L77.9314 202.066L78.8774 198.859L79.8234 195.661L80.8829 192.521L81.9519 189.38L82.4817 187.809L83.0871 186.277C83.8912 184.224 84.7048 182.181 85.5089 180.137C86.313 178.094 87.3157 176.145 88.2144 174.159C88.6496 173.146 89.1604 172.172 89.6429 171.207L91.1376 168.303L92.6323 165.399L94.2499 162.561C95.3567 160.669 96.3595 158.777 97.5704 156.979L101.061 151.549L104.845 146.299C109.9 139.485 115.429 133.036 121.391 127.001C127.324 121.155 133.645 115.716 140.311 110.72C153.273 101.145 167.547 93.4861 182.691 87.978C186.419 86.7388 190.099 85.3955 193.854 84.4116C197.572 83.2764 201.356 82.5196 205.083 81.5736C212.489 80.0513 219.989 79.0304 227.532 78.518C231.24 78.1586 234.949 78.1775 238.619 78.064C239.565 78.064 240.454 78.064 241.362 78.064L244.106 78.1302C245.922 78.2059 247.738 78.1302 249.545 78.3289C253.14 78.6316 256.735 78.7829 260.254 79.2749L265.523 79.956L270.707 80.902C296.323 85.6979 320.458 96.4321 341.175 112.243C358.224 125.282 372.636 141.446 383.641 159.874C388.151 167.428 392.036 175.337 395.258 183.524C395.627 184.47 395.986 185.416 396.355 186.315C396.724 187.213 397.083 188.141 397.367 189.068C397.998 190.903 398.603 192.694 399.184 194.441C399.335 194.876 399.477 195.311 399.619 195.746L399.988 197.052C400.234 197.922 400.48 198.774 400.716 199.615C401.17 201.318 401.709 202.945 402.069 204.563C403.48 210.285 404.598 216.076 405.418 221.913C405.72 224.448 406.061 226.794 406.269 228.941C406.477 231.089 406.572 233.047 406.704 234.797C406.837 236.547 406.893 238.08 406.912 239.414C406.931 240.748 406.969 241.854 406.988 242.753C407.016 244.513 407.026 245.43 407.026 245.43Z" fill="#263238"/>
<path d="M335.423 287.13C338.923 287.319 341.553 283.252 340.872 279.808C340.191 276.365 337.164 273.81 333.919 272.467C330.674 271.124 327.136 270.717 323.74 269.847C318.68 268.521 313.943 266.177 309.819 262.96C305.694 259.743 302.268 255.72 299.75 251.135C297.945 247.638 296.463 243.984 295.322 240.218C290.545 220.097 283.97 191.329 282.315 180.119C278.133 151.18 270.755 119.395 229.396 122.356C229.396 122.356 201.895 127.53 191.347 147.255C182.067 164.595 187.422 216.89 186.192 254.559L195.207 259.989L196.607 260.075C197.65 263.929 199.332 267.58 201.583 270.878C209.813 282.618 221.023 292.049 233.17 299.674C257.766 315.084 287.092 323.494 315.955 320.6C322.047 319.985 328.253 318.84 333.55 315.87C338.848 312.899 343.275 307.687 344.079 301.623C344.883 295.559 341.317 288.776 335.423 287.13Z" fill="#263238"/>
<path d="M223.89 133.14L226.482 130.671L254.474 141.9C256.427 142.008 258.269 142.846 259.633 144.248C260.998 145.649 261.787 147.512 261.843 149.468L261.597 240.568C261.597 246.745 260.396 252.099 256.669 257.019L252.743 262.203C243.784 274.028 225.365 273.053 218.28 260.027C217.862 259.287 217.544 258.495 217.334 257.671C217.153 257.003 217.014 256.324 216.918 255.638C216.085 248.306 216.038 241.949 216.038 241.949C215.536 233.908 215.376 230.597 215.366 230.682C215.357 230.767 198.244 228.705 193.608 206.729C191.3 195.794 191.716 180.752 192.388 165.947C193.211 145.495 207.42 133.121 223.89 133.14Z" fill="#FFBF9D"/>
<path d="M229.623 180.979C229.652 181.72 229.971 182.42 230.51 182.929C231.049 183.439 231.766 183.717 232.508 183.704C232.874 183.72 233.239 183.663 233.582 183.534C233.926 183.406 234.239 183.209 234.504 182.956C234.769 182.704 234.981 182.4 235.125 182.063C235.27 181.727 235.345 181.364 235.346 180.998C235.319 180.255 235.001 179.553 234.462 179.042C233.922 178.53 233.204 178.251 232.461 178.264C232.094 178.249 231.728 178.308 231.385 178.437C231.042 178.567 230.729 178.764 230.464 179.018C230.199 179.271 229.988 179.575 229.843 179.913C229.699 180.25 229.624 180.612 229.623 180.979Z" fill="#263238"/>
<path d="M200.722 180.979C200.752 181.712 201.063 182.405 201.593 182.913C202.122 183.421 202.827 183.704 203.56 183.704C203.926 183.719 204.291 183.66 204.633 183.532C204.976 183.403 205.289 183.206 205.554 182.954C205.819 182.701 206.03 182.398 206.175 182.062C206.32 181.726 206.396 181.364 206.398 180.998C206.371 180.255 206.054 179.553 205.514 179.042C204.975 178.531 204.256 178.251 203.513 178.264C203.15 178.254 202.789 178.317 202.451 178.449C202.112 178.581 201.804 178.779 201.544 179.032C201.284 179.285 201.077 179.588 200.936 179.922C200.795 180.257 200.722 180.616 200.722 180.979Z" fill="#263238"/>
<path d="M195.245 171.832C195.614 172.191 197.686 170.488 200.741 170.337C203.797 170.186 206.124 171.614 206.417 171.217C206.569 171.046 206.181 170.394 205.168 169.732C203.799 168.881 202.2 168.474 200.59 168.568C198.997 168.641 197.469 169.221 196.229 170.223C195.349 170.99 195.065 171.68 195.245 171.832Z" fill="#263238"/>
<path d="M226.274 172.172C226.68 172.484 228.572 170.573 231.6 170.119C234.627 169.665 237.077 170.829 237.351 170.412C237.484 170.223 237.03 169.618 235.951 169.06C234.502 168.353 232.87 168.112 231.278 168.369C229.704 168.607 228.247 169.339 227.116 170.46C226.293 171.302 226.094 172.011 226.274 172.172Z" fill="#263238"/>
<path d="M215.593 194.413C215.593 194.233 213.701 194.006 210.579 193.769C209.794 193.722 209.047 193.609 208.886 193.079C208.783 192.277 208.925 191.462 209.293 190.742L211.308 184.678C214.089 176.051 216.038 168.975 215.716 168.861C215.395 168.748 212.831 175.654 210.04 184.281C209.378 186.41 208.735 188.434 208.148 190.373C207.706 191.344 207.618 192.439 207.902 193.467C208.029 193.736 208.216 193.973 208.449 194.158C208.682 194.343 208.955 194.473 209.246 194.536C209.683 194.633 210.131 194.674 210.579 194.659C213.663 194.668 215.593 194.583 215.593 194.413Z" fill="#263238"/>
<path d="M215.291 230.711C225.749 230.349 235.901 227.09 244.617 221.298C244.617 221.298 237.919 237.02 215.641 236.055L215.291 230.711Z" fill="#FF9A6C"/>
<path d="M217.258 201.715C217.803 200.954 218.533 200.345 219.379 199.944C220.224 199.544 221.158 199.365 222.092 199.426C222.77 199.452 223.435 199.614 224.048 199.903C224.661 200.193 225.209 200.603 225.659 201.11C226.094 201.599 226.368 202.209 226.444 202.859C226.521 203.509 226.395 204.167 226.084 204.743C225.622 205.317 224.999 205.74 224.294 205.958C223.589 206.175 222.836 206.177 222.13 205.963C220.658 205.526 219.288 204.799 218.1 203.825C217.734 203.599 217.413 203.307 217.154 202.964C217.033 202.8 216.962 202.604 216.952 202.4C216.942 202.197 216.993 201.995 217.097 201.82" fill="#FF9A6C"/>
<path d="M224.703 196.077C224.202 196.077 224.363 199.388 221.638 201.886C218.914 204.383 215.366 204.204 215.357 204.667C215.357 204.875 216.18 205.273 217.675 205.235C219.621 205.169 221.482 204.415 222.925 203.106C224.312 201.853 225.157 200.109 225.28 198.244C225.337 196.853 224.921 196.049 224.703 196.077Z" fill="#263238"/>
<path d="M223.351 160.233C223.776 161.009 226.737 160.148 230.351 160.035C233.965 159.921 236.973 160.451 237.351 159.637C237.503 159.25 236.888 158.559 235.601 157.935C233.906 157.196 232.065 156.853 230.218 156.931C228.371 157.01 226.566 157.508 224.94 158.389C223.719 159.108 223.161 159.874 223.351 160.233Z" fill="#263238"/>
<path d="M195.68 158.692C196.257 159.363 198.329 158.54 200.855 158.37C203.381 158.2 205.585 158.607 206.02 157.859C206.219 157.49 205.84 156.809 204.875 156.204C203.577 155.479 202.093 155.156 200.611 155.276C199.129 155.395 197.716 155.952 196.55 156.875C195.69 157.642 195.425 158.37 195.68 158.692Z" fill="#263238"/>
<path d="M261.247 188.377C261.247 188.377 245.591 193.249 236.727 154.595C233.69 141.351 221.44 130.671 221.44 130.671L226.406 129.176C226.406 129.176 257.293 137.879 257.813 138.267C258.334 138.655 265.608 154.245 265.608 154.245L261.247 188.377Z" fill="#263238"/>
<path d="M257.388 186.939C257.312 185.284 259.024 181.263 260.642 180.961C264.956 180.062 272.817 180.015 273.451 191.073C274.302 206.209 258.968 203.92 258.911 203.485C258.854 203.05 257.662 192.634 257.388 186.939Z" fill="#FFBF9D"/>
<path d="M263.206 197.506C263.262 197.449 263.48 197.676 263.934 197.856C264.575 198.085 265.28 198.058 265.902 197.78C267.463 197.109 268.664 194.498 268.579 191.773C268.547 190.476 268.224 189.202 267.633 188.046C267.463 187.586 267.184 187.173 266.82 186.844C266.456 186.514 266.017 186.278 265.542 186.154C265.235 186.091 264.915 186.139 264.638 186.287C264.362 186.436 264.146 186.677 264.029 186.968C263.849 187.403 263.962 187.696 263.887 187.724C263.811 187.753 263.546 187.488 263.631 186.864C263.7 186.497 263.89 186.164 264.17 185.918C264.572 185.582 265.087 185.416 265.608 185.454C266.228 185.547 266.814 185.797 267.31 186.179C267.807 186.561 268.198 187.064 268.446 187.639C269.165 188.908 269.562 190.334 269.601 191.792C269.676 194.838 268.276 197.78 266.129 198.537C265.729 198.677 265.304 198.726 264.883 198.68C264.462 198.634 264.057 198.495 263.697 198.272C263.253 197.866 263.149 197.534 263.206 197.506Z" fill="#FF9A6C"/>
<path d="M274.009 244.011C273.778 242.261 273.667 240.498 273.678 238.733C273.745 233.918 274.236 229.12 275.144 224.391C275.683 221.392 276.27 218.11 276.904 214.591C277.589 210.838 278.041 207.047 278.256 203.239C278.512 199.046 278.194 194.839 277.31 190.733C276.818 188.574 276.105 186.473 275.182 184.461C274.214 182.398 273.014 180.453 271.606 178.662C268.768 175.171 265.6 171.962 262.146 169.079C258.835 166.241 255.666 163.403 252.847 160.517C247.825 155.433 243.278 149.901 239.262 143.991C236.55 140.016 234.092 135.874 231.902 131.589C231.127 130.075 230.559 128.883 230.19 128.06C230.01 127.663 229.868 127.36 229.774 127.114C229.719 127.011 229.675 126.904 229.641 126.792C229.707 126.888 229.764 126.989 229.812 127.095C229.925 127.31 230.077 127.625 230.266 128.041C230.654 128.845 231.212 130.028 232.044 131.532C234.287 135.775 236.779 139.882 239.508 143.83C243.545 149.698 248.101 155.191 253.121 160.243C255.959 163.081 259.1 165.919 262.411 168.757C265.907 171.648 269.114 174.874 271.984 178.387C273.414 180.203 274.629 182.178 275.607 184.271C276.542 186.31 277.262 188.441 277.755 190.629C278.627 194.771 278.93 199.014 278.654 203.239C278.419 207.048 277.951 210.839 277.254 214.591C276.601 218.11 275.995 221.392 275.447 224.382C274.513 229.093 273.978 233.875 273.848 238.676C273.848 240.379 273.848 241.703 273.952 242.592L274.018 243.614C274.032 243.746 274.029 243.88 274.009 244.011Z" fill="#455A64"/>
<path d="M278.871 245.44C278.635 243.69 278.524 241.926 278.54 240.161C278.611 235.343 279.104 230.541 280.016 225.81C280.555 222.811 281.142 219.529 281.776 216.01C282.457 212.257 282.909 208.466 283.128 204.658C283.384 200.465 283.066 196.258 282.182 192.152C281.69 189.993 280.977 187.892 280.054 185.88C279.086 183.817 277.886 181.872 276.478 180.081C273.622 176.59 270.438 173.381 266.971 170.498C263.66 167.66 260.491 164.822 257.671 161.936C252.648 156.854 248.101 151.322 244.087 145.41C241.375 141.435 238.917 137.293 236.727 133.008C235.951 131.494 235.384 130.302 235.015 129.479L234.589 128.533C234.539 128.429 234.498 128.322 234.466 128.211L234.636 128.514C234.74 128.741 234.892 129.034 235.09 129.46C235.478 130.274 236.036 131.447 236.869 132.951C239.111 137.194 241.604 141.301 244.333 145.249C248.367 151.116 252.919 156.609 257.936 161.662C260.774 164.5 263.915 167.338 267.235 170.176C270.732 173.067 273.938 176.293 276.809 179.806C278.235 181.625 279.45 183.599 280.432 185.69C281.367 187.729 282.087 189.86 282.58 192.048C283.447 196.191 283.749 200.433 283.478 204.658C283.244 208.467 282.776 212.258 282.078 216.01C281.425 219.529 280.82 222.811 280.271 225.801C279.337 230.515 278.802 235.3 278.673 240.104C278.673 241.798 278.673 243.122 278.767 244.011C278.767 244.446 278.824 244.787 278.833 245.033C278.866 245.166 278.879 245.303 278.871 245.44Z" fill="#455A64"/>
<path d="M170.762 267.207C164.244 271.369 156.96 278.114 153.507 285.039C147.264 297.583 103.473 331.28 101.761 339.444C97.8258 374.304 136.385 373.85 151.994 355.204C160.073 345.555 177.876 309.399 177.876 309.399L170.762 267.207Z" fill="#455A64"/>
<path d="M121.154 321.11C121.154 321.11 150.102 274.51 155.778 267.992C164.471 258.021 179.579 254.029 179.579 254.029L182.833 315.131C183.032 314.289 152.921 352.773 152.921 352.773C152.921 352.773 124.796 331.876 121.154 321.11Z" fill="#455A64"/>
<path d="M139.138 273.961L107.664 334.061C106.13 336.937 105.724 340.282 106.525 343.441C107.326 346.601 109.277 349.348 111.997 351.146L112.129 351.231C124.2 358.865 140.197 351.41 142.855 337.381L153.933 281.217L139.138 273.961Z" fill="#FFBF9D"/>
<path d="M169.76 221.667L149.562 269.894L154.16 271.824L173.742 223.058L169.76 221.667Z" fill="#455A64"/>
<path d="M202.312 202.25C203.405 188.81 194.206 177.094 181.766 176.082C169.325 175.07 158.354 185.146 157.261 198.586C156.168 212.026 165.367 223.742 177.807 224.754C190.248 225.766 201.219 215.691 202.312 202.25Z" fill="#FFBF9D"/>
<path d="M202.387 200.429C202.242 199.928 202.166 199.409 202.16 198.887C202.16 198.632 202.16 198.348 202.094 198.045C202.028 197.742 201.99 197.402 201.924 197.033C201.814 196.197 201.65 195.369 201.432 194.554C200.896 192.343 200.055 190.216 198.934 188.235C197.509 185.671 195.608 183.401 193.334 181.547C190.667 179.361 187.502 177.866 184.12 177.195C183.207 177.025 182.285 176.918 181.358 176.874C180.885 176.874 180.412 176.807 179.929 176.817L178.482 176.912C178.245 176.912 177.999 176.912 177.753 176.959L177.025 177.082C176.542 177.176 176.079 177.243 175.559 177.347C174.567 177.595 173.593 177.911 172.645 178.293C171.667 178.675 170.719 179.127 169.807 179.645C169.343 179.92 168.861 180.232 168.445 180.525C167.979 180.805 167.536 181.121 167.12 181.471C166.236 182.169 165.402 182.928 164.623 183.742C163.843 184.6 163.122 185.51 162.466 186.466C161.081 188.446 160.006 190.624 159.278 192.927C158.538 195.329 158.13 197.822 158.067 200.335C158.064 202.839 158.408 205.332 159.089 207.742C159.756 210.041 160.774 212.223 162.106 214.212C163.328 216.121 164.855 217.815 166.628 219.226C167.04 219.569 167.473 219.885 167.924 220.172C168.378 220.465 168.814 220.787 169.268 221.052C170.182 221.572 171.13 222.031 172.106 222.424C173.048 222.804 174.015 223.12 175 223.37C175.483 223.483 175.946 223.549 176.467 223.634L177.186 223.767C177.432 223.767 177.678 223.767 177.914 223.824L179.361 223.918C179.844 223.918 180.307 223.918 180.79 223.862C181.72 223.825 182.647 223.721 183.562 223.549C186.972 222.885 190.17 221.401 192.88 219.226C195.204 217.381 197.164 215.12 198.66 212.557C199.832 210.582 200.726 208.456 201.318 206.238C201.56 205.428 201.747 204.603 201.876 203.768C201.942 203.4 202.018 203.068 202.065 202.756L202.16 201.914C202.175 201.39 202.264 200.871 202.425 200.372C202.539 200.888 202.568 201.418 202.51 201.943C202.51 202.198 202.51 202.491 202.51 202.804C202.51 203.116 202.444 203.466 202.406 203.844C202.322 204.71 202.18 205.57 201.98 206.417C201.489 208.754 200.654 211.005 199.502 213.096C198.023 215.847 196.028 218.288 193.627 220.286C190.796 222.699 187.408 224.37 183.77 225.148C182.797 225.353 181.811 225.486 180.818 225.545C180.317 225.545 179.806 225.621 179.295 225.621L177.744 225.545C177.488 225.545 177.224 225.545 176.968 225.489L176.192 225.366C175.672 225.281 175.142 225.214 174.613 225.101C172.459 224.583 170.386 223.772 168.454 222.688C167.962 222.405 167.508 222.074 167.007 221.742C166.511 221.429 166.04 221.078 165.597 220.692C163.671 219.193 162.012 217.379 160.687 215.329C159.241 213.185 158.136 210.83 157.414 208.347C155.855 203.118 155.928 197.537 157.622 192.35C158.41 189.866 159.575 187.518 161.075 185.388C161.792 184.363 162.576 183.387 163.421 182.465C164.27 181.597 165.174 180.785 166.127 180.033C166.58 179.656 167.057 179.309 167.555 178.993C168.047 178.681 168.501 178.349 169.031 178.047C170.024 177.498 171.054 177.02 172.115 176.618C173.138 176.227 174.187 175.911 175.256 175.672C175.776 175.559 176.306 175.502 176.836 175.407L177.611 175.294C177.872 175.264 178.134 175.248 178.397 175.247L179.939 175.171C180.459 175.171 180.96 175.228 181.462 175.247C182.451 175.309 183.434 175.445 184.404 175.653C187.986 176.425 191.317 178.084 194.091 180.478C198.245 184.078 201.065 188.974 202.094 194.375C202.272 195.223 202.389 196.083 202.444 196.948C202.444 197.326 202.52 197.667 202.529 197.988C202.538 198.31 202.529 198.594 202.529 198.849C202.566 199.38 202.519 199.913 202.387 200.429Z" fill="#263238"/>
<path d="M186.74 204.232C186.795 205.485 186.367 206.71 185.545 207.657C184.724 208.604 183.57 209.199 182.323 209.322C181.72 209.359 181.115 209.273 180.546 209.069C179.978 208.866 179.456 208.549 179.014 208.137C178.571 207.726 178.217 207.229 177.973 206.676C177.729 206.123 177.599 205.527 177.593 204.923C177.541 203.671 177.969 202.446 178.79 201.5C179.612 200.554 180.764 199.958 182.01 199.833C182.613 199.796 183.218 199.882 183.787 200.085C184.355 200.289 184.877 200.606 185.319 201.018C185.762 201.429 186.116 201.926 186.36 202.479C186.605 203.031 186.734 203.628 186.74 204.232Z" fill="#263238"/>
<path d="M188.33 191.612C187.762 192.265 184.271 189.541 179.314 189.645C174.357 189.749 170.743 192.483 170.204 191.83C169.939 191.546 170.526 190.364 172.096 189.096C174.184 187.473 176.745 186.576 179.39 186.542C181.98 186.497 184.509 187.334 186.56 188.916C188.093 190.146 188.613 191.31 188.33 191.612Z" fill="#263238"/>
<path d="M167.489 216.057C167.376 216.246 165.824 215.47 163.951 213.342C161.491 210.442 159.906 206.901 159.382 203.134C158.84 199.299 159.363 195.388 160.896 191.83C162.088 189.153 163.336 187.876 163.507 188.046C163.677 188.216 162.863 189.72 162.04 192.341C160.956 195.732 160.633 199.32 161.094 202.851C161.605 206.316 162.899 209.619 164.878 212.509C166.42 214.685 167.66 215.82 167.489 216.057Z" fill="white"/>
<path d="M173.553 219.841C173.521 219.987 173.445 220.12 173.335 220.222C173.225 220.323 173.087 220.389 172.938 220.409C172.48 220.497 172.005 220.413 171.604 220.172C171.182 219.95 170.848 219.589 170.658 219.15C170.585 219.016 170.553 218.863 170.564 218.71C170.576 218.557 170.632 218.411 170.725 218.29C171.103 217.949 171.784 218.157 172.418 218.488C173.052 218.819 173.591 219.321 173.553 219.841Z" fill="white"/>
<path d="M142.647 266.451C142.647 266.451 151.729 242.384 153.053 241.136C154.378 239.887 167.782 228.63 167.782 228.63C169.183 228.403 170.62 228.6 171.907 229.197C173.222 229.963 176.419 235.015 177.697 237.087C177.868 237.367 177.982 237.679 178.032 238.003C178.083 238.328 178.068 238.66 177.99 238.979L176.533 243.709C176.533 243.709 178.283 246.462 177.867 248.439C177.574 249.739 177.09 250.989 176.429 252.147C177.321 253.87 177.537 255.864 177.034 257.738C176.354 259.494 175.036 260.93 173.345 261.758C173.345 261.758 172.304 266.772 172.172 267.718C172.039 268.664 167.101 270.916 166.591 270.774C166.08 270.632 162.485 269.099 162.485 269.099C162.485 269.099 160.82 277.178 158.739 279.004C157.349 280.135 155.696 280.896 153.933 281.218L151.36 294.093L135.401 281.908L142.647 266.451Z" fill="#FFBF9D"/>
<path d="M164.651 259.204C166.129 259.559 167.58 260.017 168.993 260.576C170.445 261.024 171.872 261.548 173.269 262.146C171.766 261.903 170.294 261.497 168.88 260.935C167.421 260.486 166.006 259.907 164.651 259.204Z" fill="#FF9A6C"/>
<path d="M164.774 249.158C165.377 249.173 165.977 249.255 166.562 249.404C167.659 249.621 169.164 249.962 170.8 250.406C172.437 250.851 173.913 251.352 174.963 251.721C175.542 251.895 176.101 252.133 176.628 252.431C176.035 252.329 175.453 252.177 174.887 251.977C173.818 251.665 172.342 251.229 170.706 250.775C169.069 250.321 167.584 249.943 166.515 249.669C165.919 249.558 165.336 249.387 164.774 249.158Z" fill="#FF9A6C"/>
<path d="M163.043 241.334C163.701 241.24 164.368 241.224 165.03 241.287C166.617 241.348 168.198 241.525 169.76 241.817C171.331 242.105 172.88 242.503 174.395 243.009C175.038 243.187 175.657 243.441 176.24 243.765C175.597 243.647 174.965 243.479 174.348 243.264C173.175 242.942 171.51 242.526 169.712 242.186C167.915 241.845 166.222 241.665 164.982 241.552C164.331 241.526 163.683 241.453 163.043 241.334Z" fill="#FF9A6C"/>
<path d="M173.033 242.573C172.602 241.45 172.468 240.235 172.645 239.045C172.11 239.099 171.57 239.033 171.064 238.852C170.558 238.67 170.1 238.377 169.722 237.995C168.88 239.054 167.754 240.52 166.884 241.58L173.033 242.573Z" fill="#455A64"/>
<path d="M173.269 262.761L177.943 318.149C177.943 318.149 186.532 373.689 185.898 377.615C185.265 381.541 177.564 400.688 177.564 400.688C210.807 414.131 260.661 419.381 305.047 399.449L293.837 373.67L306.324 258.343L261.153 242.914C261.153 242.914 258.428 259.374 236.784 257.549C215.139 255.723 215.527 243.775 215.527 243.775L177.129 254.758L173.269 262.761Z" fill="#455A64"/>
<path d="M344.978 375.448C344.978 375.448 317.364 259.204 305.161 258.258L296.003 346.425L313.277 395.617C325.065 389.496 335.887 382.874 344.978 375.448Z" fill="#455A64"/>
<path d="M303.278 280.451C303.42 280.451 302.209 294.48 300.572 311.754C298.936 329.028 297.517 343.029 297.375 343.02C297.233 343.01 298.453 328.99 300.081 311.707C301.708 294.424 303.146 280.432 303.278 280.451Z" fill="#263238"/>
<path d="M173.865 279.448C173.926 279.648 173.961 279.855 173.969 280.063C174.026 280.517 174.102 281.104 174.187 281.842C174.357 283.44 174.603 285.626 174.897 288.369C175.483 293.894 176.268 301.518 177.233 309.919C178.198 318.319 179.201 325.935 179.995 331.421C180.402 334.127 180.724 336.331 180.941 337.92L181.197 339.69C181.241 339.895 181.26 340.104 181.254 340.314C181.183 340.118 181.132 339.915 181.102 339.708C181.008 339.254 180.894 338.677 180.752 337.958C180.459 336.435 180.081 334.222 179.636 331.478C178.747 325.991 177.744 318.395 176.732 309.976C175.72 301.556 175.029 293.894 174.528 288.407C174.301 285.682 174.111 283.459 173.979 281.851C173.932 281.123 173.884 280.527 173.856 280.073C173.832 279.865 173.835 279.655 173.865 279.448Z" fill="#263238"/>
<path d="M210.542 246.566L214.96 239.508L238.212 258.296L260.945 236.112L268.191 245.279L240.672 274.766L210.542 246.566Z" fill="#455A64"/>
<path d="M237.446 259.932C237.408 260.315 237.342 260.694 237.247 261.067C237.087 261.796 236.841 262.865 236.472 264.189C235.446 267.808 234.124 271.336 232.517 274.737L232.357 275.087L232.13 274.775C230.238 272.221 228.232 269.411 226.047 266.469C221.79 260.727 217.845 255.6 214.969 251.891L211.563 247.511L210.617 246.31C210.409 246.026 210.305 245.875 210.324 245.865C210.46 245.978 210.584 246.105 210.693 246.244L211.639 247.388C212.481 248.391 213.692 249.857 215.168 251.683C218.11 255.325 222.102 260.434 226.368 266.176C228.554 269.118 230.597 271.937 232.423 274.51H232.035C233.654 271.147 235.023 267.668 236.131 264.104C236.538 262.789 236.831 261.739 237.077 261.02C237.171 260.648 237.294 260.284 237.446 259.932Z" fill="#263238"/>
<path d="M267.075 246.518C267.023 246.665 266.953 246.805 266.866 246.934L266.204 248.079C265.608 249.025 264.728 250.472 263.565 252.175C260.546 256.607 257.207 260.812 253.575 264.757C251.163 267.368 248.76 269.723 246.584 271.72L246.423 271.861L246.272 271.71C244.101 269.482 242.291 266.928 240.908 264.142C240.416 263.12 240.076 262.25 239.868 261.72C239.75 261.429 239.658 261.129 239.593 260.822C239.759 261.087 239.895 261.369 240 261.664C240.246 262.222 240.624 263.026 241.145 264.019C242.586 266.746 244.423 269.245 246.594 271.436H246.281C248.438 269.43 250.813 267.065 253.206 264.464C256.822 260.532 260.187 256.377 263.281 252.024C264.473 250.349 265.4 248.978 266.043 248.022L266.772 246.906C266.961 246.632 267.056 246.509 267.075 246.518Z" fill="#263238"/>
<path d="M238.496 409.892C238.364 409.892 238.25 377.104 238.25 336.672C238.25 296.24 238.364 263.452 238.496 263.452C238.628 263.452 238.742 296.231 238.742 336.672C238.742 377.114 238.628 409.892 238.496 409.892Z" fill="#263238"/>
<path d="M250.066 364.816C250.066 364.948 240.606 362.924 229.026 360.247C217.447 357.569 208.063 355.337 208.101 355.204C208.139 355.072 217.561 357.096 229.14 359.764C240.719 362.432 250.094 364.683 250.066 364.816Z" fill="#263238"/>
<path d="M142.061 355.271C141.976 355.214 143.007 354.069 144.104 351.95C144.764 350.707 145.305 349.406 145.722 348.062C146.753 344.767 147.037 341.283 146.554 337.864C146.369 336.472 146.053 335.1 145.608 333.768C144.842 331.488 144.047 330.202 144.133 330.154C144.368 330.419 144.566 330.715 144.719 331.034C144.939 331.385 145.132 331.752 145.296 332.131C145.54 332.626 145.755 333.135 145.939 333.655C146.443 334.995 146.807 336.383 147.027 337.798C147.279 339.536 147.343 341.296 147.217 343.048C147.052 344.799 146.703 346.527 146.176 348.204C145.728 349.566 145.142 350.878 144.426 352.12C144.156 352.598 143.862 353.062 143.546 353.511C143.318 353.842 143.068 354.158 142.799 354.457C142.335 355.015 142.089 355.299 142.061 355.271Z" fill="#263238"/>
<path d="M359.736 219.472C359.271 228.414 361.529 237.287 366.211 244.92C370.892 252.553 377.778 258.587 385.959 262.227C394.141 265.867 403.233 266.94 412.037 265.307C420.841 263.673 428.943 259.409 435.274 253.076C441.605 246.744 445.868 238.641 447.499 229.837C449.131 221.032 448.055 211.94 444.414 203.76C440.772 195.579 434.736 188.695 427.102 184.015C419.468 179.335 410.595 177.079 401.653 177.545C390.719 178.115 380.384 182.716 372.642 190.459C364.901 198.202 360.303 208.538 359.736 219.472Z" fill="white"/>
<path d="M359.48 221.667C359.48 221.667 359.48 221.421 359.48 220.948C359.48 220.475 359.48 219.737 359.546 218.838L359.603 217.287C359.66 216.71 359.764 216.095 359.858 215.395C360.031 213.84 360.319 212.3 360.719 210.788C361.717 206.606 363.351 202.602 365.563 198.916C368.777 193.486 373.107 188.8 378.266 185.168C383.426 181.536 389.298 179.041 395.494 177.848C397.369 177.495 399.265 177.274 401.17 177.186C402.116 177.186 403.062 177.054 404.075 177.063L407.026 177.205C407.527 177.205 408.029 177.205 408.521 177.299L410.006 177.527C410.999 177.687 412.011 177.801 413.014 178.009C415.033 178.455 417.021 179.033 418.965 179.74C420.951 180.457 422.886 181.31 424.754 182.294C425.7 182.805 426.646 183.401 427.535 183.95C428.479 184.514 429.38 185.147 430.231 185.842C432.014 187.16 433.708 188.595 435.302 190.137C436.875 191.763 438.338 193.492 439.682 195.311C442.463 199.039 444.623 203.192 446.077 207.609C449.155 216.751 449.155 226.649 446.077 235.791C444.625 240.207 442.469 244.36 439.691 248.089C438.346 249.907 436.88 251.633 435.302 253.254C433.714 254.801 432.023 256.239 430.241 257.558C429.385 258.238 428.481 258.855 427.535 259.403C426.589 259.961 425.7 260.557 424.754 261.058C421.031 262.992 417.072 264.432 412.976 265.344C411.974 265.552 410.961 265.665 409.968 265.826L408.483 266.053C407.991 266.119 407.49 266.11 406.988 266.148L404.037 266.29C403.091 266.29 402.097 266.205 401.132 266.167C399.227 266.076 397.33 265.851 395.456 265.495C389.251 264.307 383.369 261.814 378.201 258.18C373.033 254.546 368.696 249.855 365.478 244.418C363.272 240.726 361.641 236.72 360.644 232.536C360.242 231.028 359.954 229.491 359.783 227.939C359.688 227.267 359.584 226.643 359.527 226.047L359.471 224.495C359.471 223.549 359.471 222.887 359.404 222.386C359.338 221.884 359.404 221.667 359.404 221.667C359.404 221.667 359.404 221.913 359.48 222.386C359.556 222.859 359.565 223.587 359.622 224.486C359.622 224.95 359.688 225.432 359.717 226.028C359.745 226.624 359.906 227.21 360 227.873C360.207 229.416 360.523 230.943 360.946 232.442C361.986 236.577 363.644 240.532 365.866 244.172C369.082 249.527 373.395 254.14 378.521 257.709C383.647 261.278 389.47 263.722 395.608 264.88C397.445 265.218 399.304 265.43 401.17 265.514C402.116 265.514 403.062 265.646 404.008 265.628L406.913 265.476C407.404 265.476 407.859 265.476 408.379 265.382L409.845 265.155C410.791 264.994 411.822 264.88 412.806 264.672C414.794 264.229 416.75 263.654 418.662 262.95C420.627 262.241 422.542 261.401 424.395 260.434C425.341 259.923 426.211 259.337 427.129 258.797C428.055 258.254 428.94 257.644 429.777 256.972C433.368 254.393 436.507 251.238 439.067 247.635C441.807 243.975 443.935 239.895 445.367 235.554C448.395 226.566 448.395 216.834 445.367 207.846C443.939 203.502 441.822 199.417 439.095 195.746C437.774 193.957 436.336 192.257 434.791 190.657C433.224 189.137 431.558 187.721 429.806 186.419C428.967 185.748 428.082 185.138 427.157 184.593C426.211 184.044 425.35 183.458 424.423 182.957C422.575 181.982 420.659 181.141 418.69 180.44C416.779 179.737 414.822 179.162 412.834 178.718C411.888 178.51 410.857 178.397 409.883 178.236L408.417 178.009C407.925 177.943 407.471 177.943 406.941 177.914L404.037 177.763C403.091 177.763 402.145 177.839 401.199 177.867C399.332 177.956 397.474 178.17 395.636 178.51C389.502 179.664 383.681 182.104 378.558 185.67C373.434 189.236 369.125 193.847 365.913 199.199C363.691 202.839 362.033 206.794 360.994 210.93C360.572 212.426 360.256 213.949 360.048 215.489C359.953 216.161 359.83 216.776 359.764 217.381C359.698 217.987 359.698 218.46 359.669 218.923C359.613 219.819 359.565 220.519 359.527 221.024C359.48 221.421 359.48 221.667 359.48 221.667Z" fill="#263238"/>
<path d="M425.624 207.827H385.75V241.826H425.624V207.827Z" fill="#E0E0E0"/>
<path d="M425.624 241.826C425.624 241.826 425.624 241.599 425.624 241.183C425.624 240.767 425.624 240.133 425.624 239.357C425.624 237.739 425.624 235.403 425.568 232.442C425.568 226.491 425.511 218.025 425.464 207.846L425.672 208.054H385.807C385.882 207.968 385.961 207.886 386.044 207.808V216.899C386.044 219.882 386.044 222.802 386.044 225.659C386.044 231.335 386.044 236.774 386.044 241.798L385.826 241.58L414.604 241.694L422.767 241.75H424.934H425.7H425.53H424.991H422.862L414.745 241.807L385.826 241.911H385.609V241.694C385.609 236.67 385.609 231.288 385.609 225.555C385.609 222.698 385.609 219.778 385.609 216.795V207.836C385.391 208.054 385.911 207.534 385.864 207.59H425.728H425.937V207.798C425.889 218.053 425.851 226.567 425.833 232.546C425.833 235.488 425.833 237.806 425.776 239.414C425.776 240.177 425.776 240.773 425.776 241.202C425.643 241.637 425.624 241.826 425.624 241.826Z" fill="#263238"/>
<path d="M389.875 219.472H388.106C386.831 219.472 385.609 218.966 384.708 218.065C383.807 217.163 383.3 215.941 383.3 214.666V206.777H394.652V214.666C394.652 215.936 394.15 217.154 393.255 218.055C392.36 218.955 391.145 219.465 389.875 219.472Z" fill="#324DDC"/>
<path d="M389.875 219.472C389.875 219.425 390.291 219.472 391.001 219.255C392.003 218.982 392.892 218.395 393.536 217.58C393.974 217 394.271 216.327 394.407 215.613C394.492 214.751 394.514 213.885 394.473 213.021C394.473 211.129 394.473 209.057 394.473 206.824L394.709 207.061H383.357L383.594 206.824C383.594 209.284 383.594 211.554 383.594 213.673C383.594 214.184 383.594 214.704 383.594 215.159C383.639 215.613 383.747 216.058 383.915 216.483C384.225 217.229 384.724 217.881 385.363 218.375C386.304 219.096 387.47 219.461 388.655 219.406C389.088 219.398 389.522 219.427 389.951 219.491C389.522 219.556 389.088 219.584 388.655 219.576C387.418 219.697 386.18 219.36 385.174 218.63C384.471 218.108 383.92 217.41 383.575 216.606C383.382 216.15 383.258 215.669 383.206 215.177C383.159 214.667 383.206 214.175 383.206 213.654C383.206 211.564 383.206 209.265 383.206 206.805V206.569H395.069V206.805C395.069 209.038 395.069 211.119 395.069 213.002C395.099 213.889 395.061 214.778 394.955 215.66C394.792 216.422 394.452 217.135 393.962 217.741C393.276 218.608 392.309 219.207 391.228 219.434C390.945 219.494 390.656 219.525 390.367 219.529L389.875 219.472Z" fill="#263238"/>
<path d="M401.17 219.472H399.392C398.118 219.47 396.897 218.963 395.997 218.062C395.096 217.161 394.589 215.94 394.586 214.666V206.777H405.938V214.666C405.936 215.934 405.434 217.149 404.541 218.049C403.649 218.948 402.438 219.46 401.17 219.472Z" fill="#324DDC"/>
<path d="M401.17 219.472C401.17 219.425 401.577 219.472 402.287 219.255C403.3 218.974 404.194 218.369 404.831 217.533C405.268 216.951 405.568 216.279 405.711 215.565C405.792 214.704 405.814 213.838 405.777 212.973C405.777 211.081 405.777 209.009 405.777 206.777L406.014 207.013H394.662L394.908 206.777C394.908 209.237 394.908 211.507 394.908 213.626C394.908 214.137 394.908 214.657 394.908 215.111C394.95 215.565 395.055 216.011 395.22 216.436C395.536 217.178 396.034 217.828 396.667 218.328C397.61 219.046 398.775 219.411 399.959 219.359C400.396 219.351 400.833 219.38 401.265 219.444C400.833 219.508 400.396 219.536 399.959 219.529C398.723 219.648 397.485 219.311 396.478 218.583C395.776 218.061 395.224 217.363 394.879 216.559C394.696 216.1 394.572 215.62 394.51 215.13C394.51 214.619 394.51 214.127 394.51 213.607C394.51 211.516 394.51 209.218 394.51 206.758V206.521H406.213V206.758C406.213 208.991 406.213 211.072 406.213 212.954C406.244 213.842 406.203 214.731 406.09 215.613C405.941 216.371 405.617 217.083 405.144 217.694C404.456 218.562 403.485 219.161 402.4 219.387C402.117 219.447 401.829 219.479 401.539 219.482C401.417 219.499 401.292 219.495 401.17 219.472Z" fill="#263238"/>
<path d="M412.456 219.472H410.687C409.412 219.472 408.19 218.966 407.289 218.065C406.388 217.163 405.881 215.941 405.881 214.666V206.777H417.233V214.666C417.233 215.936 416.731 217.154 415.836 218.055C414.941 218.955 413.726 219.465 412.456 219.472Z" fill="#324DDC"/>
<path d="M412.456 219.472C412.456 219.425 412.863 219.472 413.582 219.255C414.594 218.972 415.487 218.367 416.127 217.533C416.564 216.953 416.862 216.279 416.997 215.565C417.083 214.704 417.105 213.838 417.063 212.973C417.063 211.081 417.063 209.01 417.063 206.777L417.3 207.014H405.948L406.184 206.777C406.184 209.237 406.184 211.507 406.184 213.626C406.184 214.137 406.184 214.657 406.184 215.111C406.227 215.565 406.332 216.011 406.496 216.436C406.812 217.181 407.314 217.832 407.953 218.328C408.892 219.047 410.054 219.412 411.236 219.359C411.645 219.365 412.053 219.403 412.456 219.472C412.024 219.537 411.587 219.565 411.151 219.557C410.097 219.663 409.038 219.431 408.125 218.896C407.212 218.36 406.492 217.548 406.071 216.578C405.886 216.12 405.765 215.64 405.711 215.149C405.664 214.638 405.711 214.146 405.711 213.626C405.711 211.535 405.711 209.237 405.711 206.777V206.541H417.574V206.777C417.574 209.01 417.574 211.091 417.574 212.973C417.604 213.861 417.566 214.75 417.461 215.632C417.297 216.394 416.957 217.107 416.467 217.713C415.782 218.579 414.814 219.178 413.733 219.406C413.45 219.465 413.162 219.497 412.872 219.501L412.456 219.472Z" fill="#263238"/>
<path d="M423.751 219.472H421.973C420.699 219.47 419.478 218.963 418.578 218.062C417.677 217.161 417.17 215.94 417.167 214.666V206.777H428.519V214.666C428.517 215.934 428.015 217.149 427.122 218.049C426.23 218.948 425.019 219.46 423.751 219.472Z" fill="#324DDC"/>
<path d="M423.751 219.472C423.751 219.425 424.158 219.472 424.868 219.255C425.728 219.024 426.506 218.556 427.111 217.903C427.717 217.251 428.126 216.44 428.292 215.565C428.374 214.704 428.393 213.837 428.349 212.973C428.349 211.081 428.349 209.009 428.349 206.777L428.585 207.013H417.186L417.432 206.777C417.432 209.237 417.432 211.507 417.432 213.626C417.432 214.137 417.432 214.657 417.432 215.111C417.482 215.565 417.59 216.01 417.754 216.436C418.07 217.178 418.567 217.828 419.201 218.328C420.143 219.047 421.309 219.412 422.493 219.359C422.93 219.351 423.367 219.38 423.799 219.444C423.367 219.508 422.93 219.536 422.493 219.529C421.256 219.648 420.019 219.311 419.012 218.583C418.31 218.061 417.758 217.363 417.413 216.559C417.225 216.102 417.101 215.621 417.044 215.13C417.044 214.619 417.044 214.127 417.044 213.607C417.044 211.516 417.044 209.218 417.044 206.758V206.521H428.907V206.758C428.907 208.991 428.907 211.072 428.907 212.954C428.934 213.842 428.893 214.731 428.784 215.613C428.625 216.376 428.284 217.09 427.791 217.694C427.105 218.56 426.138 219.159 425.057 219.387C424.774 219.447 424.485 219.479 424.196 219.482C424.049 219.508 423.897 219.505 423.751 219.472Z" fill="#263238"/>
<path d="M420.809 223.786H409.684V241.836H420.809V223.786Z" fill="white"/>
<path d="M420.809 223.786C420.854 224.21 420.873 224.637 420.866 225.063C420.866 226.009 420.866 227.22 420.932 228.762C420.932 232.026 420.999 236.547 421.046 241.826V242.053H420.809H409.694C409.741 242.11 409.221 241.59 409.438 241.807V240.549C409.438 240.133 409.438 239.707 409.438 239.291V236.812C409.438 235.176 409.438 233.596 409.438 232.082C409.438 229.046 409.438 226.255 409.438 223.795V223.597H409.637L417.811 223.701H420.015C420.262 223.693 420.509 223.709 420.753 223.748C420.482 223.763 420.21 223.763 419.939 223.748L417.688 223.795L409.637 223.899L409.826 223.71C409.826 226.17 409.826 228.961 409.826 231.997C409.826 233.52 409.826 235.1 409.826 236.727V239.338C409.826 239.754 409.826 240.18 409.826 240.596V241.854L409.58 241.609H420.696L420.469 241.836C420.516 236.614 420.554 232.149 420.582 228.913C420.582 227.362 420.63 226.075 420.649 225.129C420.649 224.732 420.649 224.401 420.649 224.117C420.649 223.833 420.809 223.795 420.809 223.786Z" fill="#263238"/>
<path d="M401.946 222.982H391.985V235.252H401.946V222.982Z" fill="white"/>
<path d="M401.946 235.251C401.904 234.938 401.885 234.622 401.889 234.305C401.889 233.653 401.889 232.801 401.832 231.77C401.832 229.613 401.738 226.577 401.719 222.972L401.936 223.19H391.985L392.231 222.944V224.618C392.231 225.177 392.231 225.725 392.231 226.274V229.453C392.231 231.515 392.231 233.445 392.231 235.204L392.032 234.996L399.193 235.11H401.236C401.49 235.108 401.742 235.123 401.993 235.157C401.77 235.179 401.545 235.179 401.322 235.157L399.326 235.214C397.594 235.214 395.078 235.289 392.032 235.318H391.824V235.11C391.824 233.35 391.824 231.42 391.824 229.358C391.824 228.327 391.824 227.267 391.824 226.179V222.849C391.597 223.067 392.117 222.547 392.07 222.603H402.022H402.249V222.821C402.249 226.52 402.173 229.613 402.135 231.761C402.135 232.773 402.135 233.653 402.078 234.249C402.057 234.586 402.013 234.921 401.946 235.251Z" fill="#263238"/>
<path d="M419.258 230.342H417.602V235.261H419.258V230.342Z" fill="#E0E0E0"/>
<path d="M139.583 158.855C163.849 155.807 181.049 133.665 178 109.399C174.952 85.1335 152.81 67.9333 128.544 70.9816C104.278 74.0299 87.0783 96.1722 90.1265 120.438C93.1748 144.704 115.317 161.904 139.583 158.855Z" fill="white"/>
<path d="M89.7849 114.92C89.7849 114.92 89.7849 114.683 89.7849 114.201C89.7849 113.719 89.7849 113.009 89.8606 112.101C89.8606 111.628 89.8606 111.155 89.9268 110.54C89.993 109.925 90.0971 109.357 90.1822 108.648C90.2674 107.938 90.3903 107.248 90.5039 106.482C90.6487 105.662 90.835 104.851 91.062 104.05C92.0747 99.8882 93.7143 95.9042 95.9244 92.2349C98.8204 87.3339 102.637 83.0391 107.163 79.5868L109.055 78.1489C109.727 77.7043 110.436 77.2881 111.136 76.8529C111.836 76.4177 112.536 75.9069 113.302 75.5947L115.611 74.4784L116.784 73.9203L118.014 73.4662L120.52 72.5202C121.362 72.2364 122.252 72.0472 123.131 71.8107C124.016 71.5479 124.917 71.3425 125.828 71.1958C127.683 70.8444 129.561 70.6232 131.447 70.5336C132.393 70.5336 133.339 70.4012 134.351 70.4106L137.293 70.562C137.785 70.562 138.286 70.562 138.778 70.6471L140.263 70.8742C141.209 71.035 142.26 71.1485 143.262 71.3566C145.276 71.8016 147.257 72.3799 149.194 73.0878L150.679 73.627L151.417 73.9014L152.126 74.2514L154.964 75.6326C155.91 76.1434 156.8 76.7299 157.736 77.2881C158.19 77.5719 158.682 77.8273 159.108 78.1489L160.423 79.0949C162.227 80.4288 163.94 81.8826 165.55 83.4465L167.82 85.9345L168.388 86.5683L168.899 87.24L169.921 88.6022L170.942 89.9739L171.888 91.4402L172.787 92.9065L173.232 93.6539C173.373 93.9093 173.487 94.1742 173.619 94.4296C174.121 95.4702 174.622 96.5202 175.133 97.5703C175.644 98.6204 175.937 99.765 176.344 100.862C177.807 105.407 178.582 110.146 178.643 114.92C178.587 119.692 177.812 124.427 176.344 128.968C175.937 130.075 175.54 131.172 175.133 132.27C174.726 133.367 174.121 134.37 173.619 135.41L173.241 136.186L172.787 136.924L171.898 138.4L170.999 139.866L169.968 141.238L168.946 142.6L168.435 143.281L167.868 143.905L165.55 146.393C163.959 147.932 162.269 149.364 160.489 150.679L159.183 151.625C158.748 151.956 158.237 152.202 157.802 152.495C156.856 153.044 155.967 153.64 155.031 154.151L152.193 155.532L151.483 155.872C151.237 155.976 150.991 156.061 150.745 156.147L149.26 156.686C147.323 157.393 145.342 157.971 143.329 158.417C142.326 158.625 141.323 158.739 140.33 158.899L138.844 159.127C138.353 159.193 137.898 159.183 137.359 159.221L134.417 159.363C133.471 159.363 132.468 159.287 131.513 159.249C129.627 159.156 127.75 158.935 125.894 158.587C124.983 158.433 124.083 158.224 123.198 157.963C122.318 157.726 121.429 157.547 120.577 157.253L118.08 156.307L116.85 155.853L115.677 155.295L113.369 154.179C112.602 153.829 111.921 153.328 111.202 152.921C110.483 152.514 109.793 152.079 109.121 151.634L107.229 150.196C102.7 146.743 98.8833 142.445 95.9907 137.539C93.7805 133.86 92.144 129.867 91.1377 125.695C90.9485 124.834 90.6647 124.039 90.5795 123.264C90.4944 122.488 90.362 121.769 90.2579 121.097C90.1539 120.426 90.0592 119.801 90.0025 119.205C89.9457 118.609 90.0025 118.117 89.9363 117.654C89.9363 116.708 89.8795 116.036 89.8606 115.544C89.8417 115.052 89.8606 114.825 89.8606 114.825C89.8606 114.825 89.8606 115.071 89.9174 115.544C89.9741 116.017 89.993 116.736 90.0498 117.644C90.0498 118.108 90.1065 118.59 90.1349 119.196C90.1633 119.801 90.3147 120.378 90.4187 121.088C90.5228 121.797 90.6363 122.478 90.7593 123.245C90.9073 124.062 91.1 124.87 91.3364 125.667C92.365 129.809 94.0173 133.77 96.2366 137.416C99.1337 142.27 102.94 146.519 107.447 149.931L109.339 151.36C110.01 151.795 110.71 152.202 111.41 152.628C112.111 153.053 112.801 153.574 113.558 153.876L115.847 154.974L117.011 155.522L118.241 155.967L120.719 156.913C121.561 157.187 122.441 157.367 123.311 157.603C124.188 157.858 125.078 158.06 125.979 158.209C127.822 158.554 129.687 158.769 131.56 158.852C132.506 158.852 133.452 158.985 134.398 158.966L137.321 158.814C137.804 158.814 138.267 158.814 138.788 158.72L140.263 158.493C141.209 158.332 142.241 158.218 143.224 158.02C145.219 157.575 147.182 156.996 149.099 156.289L150.565 155.759L151.294 155.484L152.003 155.144L154.841 153.763C155.787 153.261 156.658 152.675 157.585 152.126C158.029 151.842 158.531 151.596 158.947 151.265L160.243 150.319C161.999 149.014 163.667 147.595 165.238 146.072C165.976 145.246 166.723 144.423 167.48 143.603L168.038 142.978L168.549 142.307L169.552 140.963L170.564 139.601L171.453 138.154L172.342 136.697L172.787 135.968L173.156 135.193L174.66 132.09L175.852 128.826C177.3 124.334 178.066 119.649 178.122 114.929C178.063 110.21 177.298 105.526 175.852 101.033L174.651 97.769C174.149 96.7284 173.705 95.6972 173.156 94.6661C173.033 94.4107 172.91 94.1458 172.777 93.8904L172.333 93.1619L171.453 91.7051L170.564 90.2577L169.533 88.9239L168.52 87.5805L168.019 86.9089L167.451 86.2845L165.219 83.8249C163.647 82.2991 161.976 80.8801 160.215 79.5774L158.919 78.6314C158.493 78.3097 157.973 78.0638 157.556 77.7705C156.61 77.2218 155.749 76.6353 154.813 76.1339L151.975 74.7622L151.265 74.4217C151.029 74.3176 150.774 74.2419 150.537 74.1473L149.071 73.6081C147.152 72.9077 145.189 72.3326 143.196 71.8864C142.25 71.6783 141.209 71.5648 140.235 71.4039L138.759 71.1769C138.277 71.1107 137.813 71.1201 137.293 71.0823L134.379 70.9309C133.433 70.9309 132.487 71.0161 131.541 71.0445C129.672 71.1319 127.81 71.3468 125.969 71.6877C125.069 71.8357 124.178 72.0379 123.302 72.2932C122.431 72.5297 121.542 72.7094 120.7 72.9932L118.222 73.9392L117.001 74.3838L115.838 74.942L113.52 75.9258C112.754 76.2664 112.082 76.7678 111.363 77.1651C110.644 77.5624 109.963 77.9976 109.291 78.4422L107.399 79.8612C102.89 83.2731 99.0805 87.5225 96.1799 92.3768C93.9588 96.0247 92.3064 99.9898 91.2796 104.136C91.0422 104.928 90.8496 105.734 90.7025 106.548C90.5827 107.317 90.4692 108.036 90.362 108.705C90.2579 109.376 90.1444 109.991 90.0782 110.597C90.0119 111.202 90.0214 111.675 89.993 112.139L89.87 114.201C89.8133 114.683 89.7849 114.92 89.7849 114.92Z" fill="#263238"/>
<path d="M137.17 116.859C138.634 116.212 139.877 115.151 140.746 113.806C141.615 112.462 142.072 110.892 142.061 109.291C142.129 108.241 141.981 107.187 141.627 106.195C141.273 105.204 140.72 104.295 140.001 103.525C139.283 102.755 138.414 102.14 137.45 101.719C136.485 101.297 135.444 101.077 134.391 101.072C133.338 101.068 132.295 101.279 131.326 101.692C130.358 102.106 129.484 102.713 128.759 103.477C128.034 104.24 127.473 105.144 127.111 106.133C126.748 107.121 126.591 108.174 126.65 109.225C126.623 110.845 127.074 112.438 127.947 113.802C128.821 115.167 130.077 116.244 131.56 116.897C119.707 118.685 120.208 131.57 120.208 131.57L148.248 131.702C148.248 131.702 148.891 118.628 137.17 116.859Z" fill="#324DDC"/>
<path d="M154.529 108.109C155.446 107.706 156.225 107.044 156.77 106.203C157.314 105.362 157.601 104.381 157.594 103.379C157.635 102.72 157.541 102.06 157.317 101.438C157.094 100.817 156.745 100.248 156.293 99.7671C155.841 99.2859 155.295 98.9023 154.689 98.6401C154.083 98.3779 153.43 98.2427 152.769 98.2427C152.109 98.2427 151.456 98.3779 150.85 98.6401C150.244 98.9023 149.698 99.2859 149.246 99.7671C148.794 100.248 148.445 100.817 148.221 101.438C147.998 102.06 147.904 102.72 147.945 103.379C147.924 104.393 148.206 105.391 148.753 106.244C149.3 107.098 150.089 107.77 151.019 108.175C143.593 109.301 143.924 117.37 143.924 117.37L161.492 117.446C161.492 117.446 161.889 109.225 154.529 108.109Z" fill="#324DDC"/>
<path d="M117.238 108.109C118.155 107.706 118.934 107.044 119.478 106.203C120.023 105.362 120.31 104.381 120.303 103.379C120.344 102.72 120.25 102.06 120.026 101.438C119.802 100.817 119.454 100.248 119.002 99.7671C118.55 99.2859 118.004 98.9023 117.398 98.6401C116.792 98.3779 116.138 98.2427 115.478 98.2427C114.818 98.2427 114.165 98.3779 113.559 98.6401C112.953 98.9023 112.407 99.2859 111.955 99.7671C111.503 100.248 111.154 100.817 110.93 101.438C110.706 102.06 110.612 102.72 110.654 103.379C110.633 104.393 110.914 105.391 111.462 106.244C112.009 107.098 112.798 107.77 113.728 108.175C106.302 109.301 106.643 117.37 106.643 117.37L124.2 117.446C124.2 117.446 124.598 109.225 117.238 108.109Z" fill="#324DDC"/>
<path d="M351.401 96.2212C357.135 72.4465 342.51 48.5248 318.735 42.7907C294.961 37.0566 271.039 51.6813 265.305 75.456C259.571 99.2307 274.196 123.152 297.97 128.886C321.745 134.621 345.667 119.996 351.401 96.2212Z" fill="white"/>
<path d="M264.067 85.8303C264.067 85.8303 264.067 85.5938 264.067 85.1114C264.067 84.6289 264.114 83.91 264.142 83.0018C264.142 82.5383 264.142 82.0558 264.199 81.4504C264.256 80.8449 264.36 80.2584 264.454 79.5584C264.626 78.0065 264.914 76.4696 265.315 74.9608C266.309 70.7761 267.939 66.7688 270.149 63.079C273.367 57.642 277.704 52.9511 282.873 49.3174C288.041 45.6837 293.923 43.1901 300.128 42.0022C302.002 41.6459 303.899 41.4214 305.804 41.3305C306.75 41.3305 307.696 41.1981 308.708 41.2075L311.66 41.3589C312.152 41.3589 312.653 41.3589 313.155 41.444L314.64 41.6711C315.633 41.8319 316.645 41.9454 317.639 42.1535C321.737 43.063 325.7 44.5036 329.426 46.4389C330.372 46.9403 331.27 47.5363 332.207 48.0944C333.149 48.661 334.05 49.2932 334.903 49.9864C336.686 51.308 338.38 52.7459 339.974 54.2907C341.544 55.906 343.005 57.6253 344.344 59.4369C347.122 63.1665 349.281 67.319 350.739 71.7349C352.211 76.2911 352.989 81.0427 353.047 85.8303C352.988 90.6148 352.21 95.3632 350.739 99.9163C349.284 104.333 347.125 108.486 344.344 112.214C343 114.034 341.537 115.763 339.964 117.389C338.37 118.931 336.677 120.365 334.894 121.684C334.042 122.379 333.141 123.011 332.197 123.576C331.251 124.124 330.362 124.72 329.416 125.231C327.515 126.194 325.549 127.022 323.532 127.71C321.586 128.421 319.595 129.002 317.572 129.45C316.579 129.649 315.567 129.763 314.574 129.923L313.088 130.15C312.587 130.217 312.086 130.217 311.594 130.245L308.642 130.387C307.696 130.387 306.693 130.302 305.738 130.273C303.833 130.179 301.936 129.954 300.062 129.602C293.856 128.413 287.973 125.919 282.804 122.283C277.636 118.648 273.3 113.955 270.083 108.515C267.875 104.828 266.244 100.824 265.249 96.6431C264.848 95.1309 264.56 93.591 264.388 92.0361C264.294 91.3644 264.18 90.7495 264.133 90.1441C264.085 89.5387 264.133 89.0562 264.076 88.5927C264.076 87.6467 264.019 86.9939 264 86.4831C263.981 85.9722 264 85.7641 264 85.7641C264 85.7641 264 86.0101 264.076 86.4831C264.152 86.9561 264.152 87.6845 264.218 88.5832C264.218 89.0467 264.275 89.5292 264.313 90.1346C264.35 90.7401 264.492 91.3077 264.596 92.0266C264.799 93.5677 265.116 95.0917 265.542 96.5864C266.578 100.722 268.233 104.677 270.452 108.317C273.665 113.671 277.976 118.283 283.101 121.849C288.226 125.415 294.048 127.854 300.185 129.006C302.019 129.346 303.874 129.561 305.738 129.649C306.684 129.649 307.63 129.772 308.576 129.753L311.49 129.602C311.972 129.602 312.436 129.602 312.956 129.507L314.422 129.28C315.368 129.119 316.399 129.006 317.383 128.798C319.372 128.359 321.329 127.784 323.239 127.076C325.206 126.372 327.122 125.531 328.972 124.56C329.918 124.058 330.788 123.472 331.706 122.923C332.631 122.378 333.516 121.768 334.354 121.097C336.107 119.795 337.772 118.379 339.34 116.859C340.885 115.259 342.322 113.559 343.644 111.77C346.405 108.112 348.558 104.033 350.02 99.6892C351.465 95.2092 352.227 90.5372 352.281 85.8303C352.228 81.1233 351.466 76.4511 350.02 71.9714C348.592 67.626 346.471 63.5401 343.739 59.8721C342.423 58.0786 340.984 56.3781 339.434 54.7826C337.872 53.2605 336.21 51.8447 334.458 50.5445C333.62 49.8741 332.735 49.2639 331.81 48.7188C330.864 48.1795 330.003 47.593 329.076 47.0822C325.409 45.1815 321.515 43.7573 317.487 42.8441C316.541 42.6454 315.51 42.5225 314.526 42.3616L313.06 42.1346C312.577 42.0684 312.114 42.0778 311.594 42.04L308.689 41.8886C307.743 41.8886 306.797 41.9643 305.851 42.0022C303.985 42.0864 302.126 42.2982 300.289 42.636C293.559 43.8827 287.217 46.6956 281.776 50.8473C277.273 54.2514 273.464 58.487 270.556 63.325C268.337 66.9651 266.682 70.92 265.646 75.0554C265.219 76.553 264.903 78.0803 264.7 79.6246C264.596 80.2868 264.473 80.9017 264.417 81.5166C264.36 82.1315 264.35 82.595 264.322 83.0586C264.256 84.0046 264.208 84.6573 264.18 85.1681C264.152 85.679 264.067 85.8303 264.067 85.8303Z" fill="#263238"/>
<path d="M327.477 68.1968H297.631V102.593H327.477V68.1968Z" fill="#324DDC"/>
<g opacity="0.3">
<path d="M327.477 68.1968H297.631V102.593H327.477V68.1968Z" fill="black"/>
</g>
<path d="M309.418 68.1968H283.734V102.593H309.418V68.1968Z" fill="#324DDC"/>
<path d="M327.477 102.584C327.324 102.395 327.194 102.188 327.089 101.969L326.058 100.134L322.34 93.3603L310.288 70.9496C309.919 70.2685 309.56 69.5968 309.229 68.963L309.692 68.8495C309.692 78.3095 309.635 86.691 309.616 92.8306C309.616 95.8294 309.55 98.2701 309.531 100.02C309.531 100.824 309.531 101.477 309.531 101.912C309.529 102.14 309.514 102.367 309.484 102.593C309.442 102.369 309.426 102.14 309.437 101.912C309.437 101.43 309.437 100.777 309.437 100.02C309.437 98.2701 309.389 95.8294 309.361 92.8306C309.361 86.691 309.361 78.2622 309.285 68.8495C309.285 68.7842 309.311 68.7217 309.357 68.6756C309.403 68.6294 309.466 68.6035 309.531 68.6035C309.576 68.6064 309.618 68.6199 309.656 68.643C309.694 68.666 309.726 68.6979 309.749 68.736L310.808 70.7131L322.766 93.209C324.251 96.047 325.471 98.3931 326.342 100.058C326.739 100.834 327.051 101.458 327.288 101.95C327.371 102.155 327.434 102.367 327.477 102.584Z" fill="#263238"/>
<path d="M327.477 68.1968C327.309 68.6818 327.103 69.153 326.862 69.6063C326.446 70.4956 325.812 71.7727 325.017 73.3903C323.428 76.5405 321.148 80.8543 318.547 85.5748C315.945 90.2953 313.561 94.5523 311.82 97.6174L309.739 101.241C309.498 101.695 309.223 102.132 308.916 102.546C309.097 102.066 309.315 101.601 309.569 101.155L311.518 97.4376C313.183 94.3253 315.529 90.0494 318.14 85.3288L324.762 73.22C325.575 71.7254 326.238 70.4861 326.748 69.5401C326.956 69.0741 327.199 68.6249 327.477 68.1968Z" fill="#263238"/>
<path d="M305.908 91.6104H299.485V99.0081H305.908V91.6104Z" fill="white"/>
<path d="M324.818 369.205C324.346 378.148 326.597 387.024 331.273 394.661C335.95 402.299 342.832 408.339 351.011 411.985C359.191 415.631 368.284 416.711 377.09 415.083C385.896 413.455 394.002 409.195 400.337 402.865C406.673 396.535 410.94 388.434 412.576 379.629C414.212 370.824 413.14 361.73 409.502 353.547C405.863 345.364 399.829 338.477 392.196 333.794C384.563 329.111 375.689 326.852 366.745 327.316C355.816 327.885 345.485 332.48 337.743 340.215C330.002 347.949 325.397 358.276 324.818 369.205Z" fill="white"/>
<path d="M324.762 371.504C324.762 371.504 324.762 371.267 324.762 370.785C324.762 370.302 324.762 369.583 324.828 368.675C324.828 368.212 324.828 367.729 324.894 367.124C324.96 366.518 325.055 365.932 325.14 365.232C325.311 363.679 325.602 362.142 326.01 360.634C327 356.448 328.63 352.44 330.845 348.752C334.059 343.314 338.394 338.623 343.561 334.989C348.728 331.355 354.609 328.862 360.814 327.675C362.688 327.319 364.584 327.095 366.49 327.004C367.436 327.004 368.382 326.871 369.403 326.881L372.355 327.032C372.847 327.032 373.348 327.032 373.84 327.117L375.335 327.344C376.281 327.505 377.331 327.619 378.334 327.827C380.353 328.273 382.341 328.851 384.284 329.558C386.282 330.275 388.229 331.129 390.111 332.112C391.057 332.614 392.003 333.21 392.893 333.768C393.835 334.317 394.736 334.933 395.589 335.612C397.374 336.932 399.068 338.37 400.659 339.917C402.234 341.538 403.697 343.263 405.039 345.082C407.821 348.809 409.98 352.962 411.434 357.38C414.506 366.523 414.506 376.419 411.434 385.561C409.975 389.977 407.816 394.129 405.039 397.859C403.695 399.679 402.232 401.408 400.659 403.034C399.066 404.576 397.372 406.01 395.589 407.329C394.734 408.019 393.833 408.652 392.893 409.221C391.947 409.769 391.001 410.365 390.055 410.876C388.174 411.86 386.227 412.711 384.227 413.421C382.284 414.131 380.296 414.712 378.277 415.162C377.274 415.36 376.262 415.474 375.269 415.635L373.783 415.862C373.292 415.928 372.79 415.928 372.289 415.956L369.337 416.098C368.391 416.098 367.398 416.013 366.433 415.985C364.528 415.889 362.632 415.665 360.757 415.313C354.553 414.123 348.672 411.627 343.505 407.992C338.339 404.356 334.004 399.664 330.788 394.227C328.574 390.542 326.943 386.537 325.954 382.354C325.546 380.843 325.255 379.303 325.083 377.747C324.998 377.076 324.885 376.461 324.837 375.855C324.79 375.25 324.79 374.767 324.771 374.304C324.771 373.405 324.724 372.705 324.705 372.194C324.686 371.683 324.705 371.475 324.705 371.475C324.705 371.475 324.705 371.721 324.781 372.194C324.856 372.667 324.866 373.396 324.923 374.294C324.923 374.758 324.989 375.24 325.017 375.846C325.046 376.451 325.206 377.019 325.301 377.691C325.505 379.231 325.821 380.755 326.247 382.25C327.278 386.387 328.934 390.343 331.157 393.981C334.369 399.333 338.678 403.944 343.801 407.51C348.925 411.076 354.745 413.516 360.88 414.67C362.717 415.01 364.576 415.225 366.442 415.313C367.388 415.313 368.334 415.436 369.28 415.417L372.185 415.266C372.677 415.266 373.131 415.266 373.66 415.171L375.127 414.944C376.073 414.783 377.094 414.67 378.078 414.462C382.134 413.564 386.057 412.15 389.752 410.252C390.698 409.75 391.568 409.164 392.486 408.615C393.414 408.07 394.302 407.46 395.144 406.789C398.726 404.207 401.86 401.057 404.424 397.462C407.153 393.792 409.274 389.706 410.706 385.363C413.727 376.37 413.727 366.637 410.706 357.645C409.278 353.301 407.16 349.216 404.434 345.545C403.112 343.756 401.674 342.056 400.13 340.456C398.562 338.936 396.897 337.52 395.144 336.218C394.307 335.545 393.422 334.935 392.495 334.392C391.549 333.853 390.688 333.266 389.761 332.756C387.909 331.789 385.994 330.948 384.029 330.239C382.116 329.539 380.16 328.964 378.173 328.517C377.227 328.319 376.196 328.196 375.221 328.035L373.755 327.808C373.263 327.742 372.809 327.751 372.289 327.713L369.375 327.562C368.429 327.562 367.483 327.638 366.537 327.675C364.671 327.761 362.812 327.973 360.975 328.309C354.842 329.468 349.023 331.91 343.901 335.476C338.778 339.041 334.467 343.65 331.251 348.998C329.028 352.636 327.373 356.592 326.342 360.729C325.915 362.227 325.599 363.754 325.396 365.298C325.301 365.96 325.178 366.575 325.112 367.19C325.046 367.805 325.046 368.268 325.017 368.732C324.96 369.631 324.913 370.331 324.875 370.841C324.837 371.352 324.762 371.504 324.762 371.504Z" fill="#263238"/>
<path d="M360.095 356.642C361.408 355.85 362.821 355.236 364.295 354.816L365.165 350.654L372.194 350.531L373.206 354.655C374.697 355.025 376.132 355.592 377.473 356.339L381.03 354.012L386.082 358.893L383.887 362.526C384.68 363.838 385.294 365.251 385.713 366.726L389.866 367.597L389.998 374.625L385.864 375.638C385.5 377.128 384.937 378.563 384.19 379.904L386.517 383.461L381.635 388.513L378.003 386.308C376.687 387.105 375.272 387.722 373.793 388.144L372.932 392.297L365.903 392.42L364.891 388.295C363.4 387.933 361.964 387.369 360.625 386.621L357.068 388.948L352.007 384.076L354.211 380.443C353.417 379.128 352.803 377.712 352.385 376.234L348.223 375.373L348.1 368.344L352.234 367.332C352.596 365.84 353.159 364.405 353.908 363.065L351.581 359.508L356.462 354.447L360.095 356.651V356.642ZM363.879 366.007C362.835 367.083 362.134 368.444 361.865 369.918C361.595 371.392 361.77 372.913 362.366 374.288C362.962 375.663 363.953 376.83 365.213 377.642C366.473 378.453 367.945 378.872 369.444 378.845C370.942 378.819 372.399 378.348 373.629 377.492C374.86 376.637 375.809 375.435 376.356 374.04C376.902 372.645 377.023 371.119 376.701 369.655C376.38 368.191 375.631 366.856 374.55 365.818C373.833 365.129 372.987 364.587 372.06 364.225C371.134 363.863 370.145 363.686 369.15 363.707C368.156 363.727 367.175 363.943 366.264 364.343C365.353 364.742 364.529 365.318 363.841 366.036L363.879 366.007Z" fill="#324DDC"/>
<path d="M127.133 410.129C126.667 419.071 128.923 427.945 133.603 435.579C138.284 443.213 145.169 449.249 153.35 452.89C161.531 456.531 170.624 457.606 179.428 455.974C188.233 454.341 196.336 450.078 202.668 443.746C208.999 437.414 213.263 429.311 214.895 420.507C216.528 411.702 215.453 402.609 211.812 394.428C208.171 386.247 202.135 379.362 194.501 374.682C186.867 370.001 177.993 367.745 169.05 368.211C158.119 368.783 147.786 373.383 140.045 381.124C132.305 388.864 127.705 399.197 127.133 410.129Z" fill="white"/>
<path d="M127.076 412.456C127.076 412.456 127.076 412.21 127.076 411.737C127.076 411.264 127.124 410.526 127.152 409.627C127.152 409.154 127.152 408.681 127.209 408.066C127.265 407.451 127.369 406.884 127.464 406.174C127.635 404.619 127.922 403.079 128.325 401.567C129.32 397.405 130.947 393.42 133.15 389.752C136.365 384.312 140.701 379.618 145.87 375.983C151.039 372.347 156.922 369.853 163.128 368.665C165.003 368.314 166.899 368.089 168.804 367.994C169.75 367.994 170.696 367.861 171.708 367.88L174.66 368.022C175.152 368.022 175.606 368.022 176.155 368.117L177.64 368.334C178.586 368.505 179.645 368.618 180.639 368.817C184.734 369.737 188.695 371.178 192.426 373.102C193.372 373.613 194.271 374.209 195.207 374.758C196.151 375.321 197.052 375.954 197.903 376.65C201.558 379.258 204.755 382.455 207.363 386.11C210.143 389.838 212.302 393.991 213.758 398.408C216.836 407.549 216.836 417.447 213.758 426.589C212.304 431.007 210.145 435.16 207.363 438.887C204.755 442.542 201.558 445.739 197.903 448.347C197.054 449.045 196.153 449.678 195.207 450.239C194.261 450.797 193.372 451.384 192.426 451.895C188.7 453.83 184.738 455.27 180.639 456.18C179.693 456.379 178.633 456.502 177.64 456.662L176.155 456.88C175.653 456.946 175.152 456.946 174.66 456.975L171.708 457.126C170.762 457.126 169.76 457.041 168.804 457.003C166.899 456.908 165.003 456.684 163.128 456.331C156.912 455.139 151.022 452.634 145.853 448.983C140.683 445.332 136.352 440.619 133.15 435.16C130.938 431.474 129.308 427.47 128.315 423.287C127.913 421.776 127.625 420.236 127.455 418.68C127.36 418.009 127.246 417.394 127.199 416.788C127.152 416.183 127.199 415.701 127.142 415.228C127.142 414.329 127.086 413.629 127.067 413.118C127.048 412.607 127.067 412.408 127.067 412.408C127.067 412.408 127.067 412.645 127.142 413.118C127.218 413.591 127.218 414.319 127.284 415.218C127.284 415.682 127.341 416.164 127.379 416.77C127.417 417.375 127.559 417.952 127.663 418.662C127.866 420.206 128.182 421.733 128.609 423.231C129.644 427.363 131.3 431.315 133.518 434.952C136.731 440.305 141.042 444.917 146.167 448.484C151.292 452.05 157.115 454.489 163.251 455.641C165.085 455.986 166.94 456.201 168.804 456.284C169.75 456.284 170.696 456.407 171.642 456.397L174.556 456.246C175.038 456.246 175.502 456.246 176.022 456.152L177.489 455.924C178.435 455.754 179.466 455.641 180.45 455.442C182.456 454.991 184.431 454.409 186.362 453.701C188.328 452.99 190.243 452.146 192.095 451.176C193.041 450.674 193.911 450.088 194.829 449.548C195.754 449 196.639 448.387 197.478 447.713C199.234 446.416 200.9 445 202.463 443.475C204.01 441.877 205.448 440.177 206.767 438.386C209.493 434.715 211.611 430.63 213.039 426.286C216.053 417.293 216.053 407.562 213.039 398.569C211.612 394.226 209.49 390.143 206.758 386.479C204.201 382.878 201.065 379.726 197.478 377.151C196.641 376.478 195.756 375.867 194.829 375.325C193.883 374.777 193.022 374.19 192.095 373.689C190.243 372.718 188.328 371.875 186.362 371.163C184.449 370.464 182.493 369.889 180.506 369.441C179.56 369.243 178.529 369.129 177.545 368.968L176.079 368.741C175.597 368.675 175.133 368.675 174.613 368.647L171.708 368.495C170.762 368.495 169.816 368.571 168.87 368.599C167.004 368.687 165.145 368.902 163.308 369.243C156.558 370.48 150.196 373.294 144.738 377.454C140.235 380.858 136.427 385.094 133.518 389.932C131.301 393.572 129.646 397.527 128.609 401.662C128.182 403.16 127.866 404.687 127.663 406.231C127.559 406.893 127.436 407.508 127.379 408.076C127.322 408.643 127.313 409.164 127.284 409.627C127.218 410.526 127.171 411.217 127.142 411.727C127.114 412.238 127.076 412.456 127.076 412.456Z" fill="#263238"/>
<path d="M174.376 431.281V436.749H168.464V431.48C163.545 431.139 158.862 429.711 156.014 427.743L159.212 420.554C162.609 422.714 166.539 423.89 170.564 423.95C174.603 423.95 176.183 422.814 176.183 421.112C176.183 415.653 156.582 419.636 156.582 406.837C156.582 401.416 160.47 396.837 168.445 395.854V390.442H174.357V395.759C177.863 395.981 181.277 396.973 184.357 398.663L181.348 405.9C178.43 404.242 175.149 403.329 171.794 403.242C167.707 403.242 166.231 404.623 166.231 406.345C166.231 411.614 185.776 407.669 185.776 420.374C185.794 425.624 182.058 430.155 174.376 431.281Z" fill="#324DDC"/>
<path d="M107.594 272.744C117.553 250.408 107.519 224.227 85.1823 214.268C62.8455 204.309 36.6645 214.343 26.7055 236.68C16.7465 259.016 26.7807 285.197 49.1175 295.156C71.4543 305.115 97.6353 295.081 107.594 272.744Z" fill="white"/>
<path d="M111.42 254.73C111.42 254.73 111.42 254.484 111.363 254.011C111.306 253.538 111.287 252.819 111.231 251.911C111.231 251.447 111.174 250.965 111.146 250.359C111.117 249.754 110.966 249.177 110.862 248.467L110.521 246.31C110.37 245.497 110.177 244.692 109.944 243.898C108.9 239.764 107.235 235.812 105.006 232.177C102.114 227.328 98.318 223.079 93.8243 219.661L91.9323 218.242C91.2607 217.807 90.5512 217.4 89.8606 216.975C89.17 216.549 88.47 216.029 87.7037 215.726L85.4144 214.629L84.2508 214.08L83.0305 213.635L80.5519 212.689C79.71 212.406 78.8208 212.235 77.9504 211.989C77.0751 211.733 76.184 211.534 75.2827 211.393C73.4431 211.045 71.5812 210.827 69.7108 210.741C68.7648 210.741 67.8188 210.618 66.8728 210.637L63.9591 210.778C63.4672 210.778 63.0131 210.778 62.4833 210.883L61.017 211.1C60.071 211.27 59.0399 211.384 58.0561 211.583C56.0627 212.029 54.1003 212.604 52.1814 213.304L50.7151 213.844L49.9867 214.118L49.2772 214.458L46.4392 215.83C45.4932 216.341 44.6229 216.927 43.6958 217.476C43.2512 217.76 42.7498 218.006 42.343 218.328L41.0375 219.274C39.247 220.597 37.5467 222.038 35.948 223.587L33.7533 226.094L33.1857 226.709L32.6843 227.381L31.6721 228.734L30.6599 230.086L29.7707 231.534L28.8909 232.991L28.4463 233.728C28.3044 233.974 28.1908 234.239 28.0679 234.495C27.5665 235.526 27.0746 236.557 26.5732 237.598C26.0718 238.638 25.7785 239.773 25.3718 240.861C22.3447 249.879 22.3447 259.638 25.3718 268.655L26.5637 271.918C27.0651 272.959 27.5665 273.99 28.0584 275.021L28.4368 275.797L28.8814 276.525L29.7707 277.982L30.6599 279.439L31.6721 280.792L32.6749 282.145L33.1857 282.816L33.7439 283.431C34.5007 284.254 35.2385 285.077 35.9859 285.9C37.5566 287.423 39.2251 288.842 40.9808 290.148L42.2768 291.094C42.7119 291.425 43.2228 291.671 43.639 291.955C44.585 292.503 45.4553 293.09 46.3824 293.601L49.2204 294.972L49.9299 295.313C50.1664 295.417 50.4218 295.493 50.6583 295.587L52.1246 296.127C54.0435 296.827 56.0059 297.402 57.9993 297.848C58.9453 298.047 59.9859 298.16 60.9603 298.331L62.436 298.558C62.9185 298.615 63.382 298.615 63.9023 298.652L66.8255 298.794C67.7715 298.794 68.7175 298.719 69.6635 298.69C71.5339 298.604 73.3958 298.386 75.2354 298.038C76.1369 297.898 77.0281 297.699 77.9031 297.442C78.7829 297.196 79.6627 297.025 80.5046 296.741L82.9832 295.795L84.213 295.351L85.3765 294.802L87.6659 293.705C88.4227 293.355 89.1038 292.863 89.8133 292.456C90.5228 292.049 91.2134 291.624 91.885 291.188L93.777 289.769C98.2868 286.359 102.099 282.113 105.006 277.263C107.227 273.619 108.879 269.657 109.906 265.514C110.105 264.663 110.389 263.868 110.483 263.102L110.824 260.945C110.928 260.273 111.042 259.658 111.108 259.053C111.174 258.447 111.164 257.965 111.193 257.501L111.325 255.401C111.325 254.928 111.382 254.692 111.382 254.692C111.382 254.692 111.382 254.928 111.382 255.401C111.382 255.874 111.382 256.593 111.306 257.511C111.306 257.974 111.306 258.457 111.24 259.062C111.174 259.668 111.07 260.254 110.975 260.954C110.881 261.654 110.777 262.345 110.663 263.121C110.55 263.896 110.294 264.691 110.105 265.552C109.1 269.724 107.464 273.718 105.252 277.396C102.356 282.3 98.5403 286.598 94.0135 290.053L92.1215 291.491C91.4499 291.936 90.7404 292.343 90.0403 292.778C89.3403 293.213 88.6402 293.724 87.874 294.045L85.5657 295.152L84.3927 295.72L83.1629 296.174L80.6655 297.12C79.8141 297.404 78.9248 297.583 78.045 297.829C77.1593 298.088 76.2591 298.293 75.3489 298.444C73.4936 298.796 71.6159 299.017 69.7297 299.106C68.7837 299.106 67.8377 299.239 66.8255 299.229L63.8834 299.078C63.3915 299.078 62.9374 299.078 62.3982 298.984L60.913 298.766C59.967 298.596 58.9169 298.482 57.9142 298.283C55.8981 297.837 53.9135 297.259 51.9733 296.552L50.4975 296.013L49.7596 295.729L49.0407 295.389L46.2027 294.008C45.2567 293.497 44.358 292.901 43.4309 292.352C42.9768 292.059 42.4849 291.813 42.0497 291.482L40.7443 290.536C38.9621 289.22 37.2712 287.785 35.6832 286.241L33.4222 283.753L32.8546 283.129L32.3343 282.447L31.3221 281.085L30.272 279.666L29.326 278.209L28.4368 276.734L27.9827 275.996L27.6043 275.211C27.1029 274.17 26.5921 273.12 26.0907 272.07C25.5893 271.02 25.2866 269.875 24.8798 268.768C21.8148 259.654 21.8148 249.787 24.8798 240.672C25.2866 239.565 25.6934 238.468 26.0907 237.371C26.488 236.273 27.1029 235.27 27.6043 234.23C27.7368 233.974 27.8503 233.71 27.9827 233.454L28.4368 232.716L29.3355 231.24L30.2342 229.774L31.2559 228.402L32.3059 227.04L32.8168 226.369L33.3844 225.744L35.6548 223.247C37.231 221.707 38.9092 220.275 40.678 218.961L41.993 218.015C42.4187 217.684 42.939 217.438 43.3647 217.145C44.3107 216.596 45.1999 216 46.1365 215.49L49.0218 214.108L49.7313 213.768L50.4691 213.484L51.9449 212.945C53.8851 212.238 55.8697 211.66 57.8858 211.214C58.8791 211.015 59.8913 210.901 60.8846 210.731L62.436 210.485C62.928 210.419 63.4293 210.419 63.9213 210.391L66.8633 210.239C67.8093 210.239 68.7553 210.324 69.7675 210.362C71.6534 210.456 73.5307 210.678 75.3868 211.024C76.2969 211.176 77.1972 211.381 78.0829 211.639C78.9627 211.885 79.8519 212.065 80.6938 212.349L83.2007 213.295L84.4305 213.749L85.6036 214.307L87.9118 215.423C88.638 215.791 89.3452 216.195 90.0309 216.634C90.7404 217.069 91.4499 217.476 92.1215 217.921L94.0135 219.359C98.5424 222.812 102.359 227.11 105.252 232.016C107.464 235.694 109.1 239.688 110.105 243.86C110.294 244.721 110.578 245.516 110.663 246.291C110.748 247.067 110.881 247.786 110.975 248.458C111.07 249.129 111.183 249.744 111.24 250.35C111.297 250.955 111.24 251.438 111.306 251.901C111.306 252.847 111.363 253.519 111.382 254.011C111.401 254.503 111.42 254.73 111.42 254.73Z" fill="#263238"/>
<path d="M75.207 236.879C75.207 238.145 74.8314 239.383 74.1277 240.437C73.424 241.49 72.4237 242.311 71.2535 242.795C70.0832 243.28 68.7955 243.407 67.5532 243.16C66.3108 242.913 65.1697 242.303 64.274 241.407C63.3783 240.511 62.7684 239.37 62.5213 238.128C62.2741 236.886 62.401 235.598 62.8857 234.428C63.3704 233.257 64.1913 232.257 65.2445 231.553C66.2977 230.85 67.5359 230.474 68.8026 230.474C70.5012 230.474 72.1302 231.149 73.3312 232.35C74.5323 233.551 75.207 235.18 75.207 236.879Z" fill="#324DDC"/>
<path d="M68.8024 230.474C69.7219 230.474 70.4674 229.729 70.4674 228.809C70.4674 227.889 69.7219 227.144 68.8024 227.144C67.8829 227.144 67.1375 227.889 67.1375 228.809C67.1375 229.729 67.8829 230.474 68.8024 230.474Z" fill="#324DDC"/>
<path d="M58.4156 276.592H79.3411C80.1665 276.592 80.9582 276.92 81.5418 277.503C82.1255 278.087 82.4534 278.879 82.4534 279.704V281.274H55.3032V279.704C55.3032 278.879 55.6311 278.087 56.2148 277.503C56.7985 276.92 57.5901 276.592 58.4156 276.592Z" fill="#324DDC"/>
<path d="M59.21 276.677L60.8276 278.938H77.2218L78.953 276.677H59.21Z" fill="#324DDC"/>
<path d="M73.8541 255.534H63.7508C62.9724 255.534 62.3413 256.165 62.3413 256.943V257.123C62.3413 257.901 62.9724 258.533 63.7508 258.533H73.8541C74.6326 258.533 75.2637 257.901 75.2637 257.123V256.943C75.2637 256.165 74.6326 255.534 73.8541 255.534Z" fill="#324DDC"/>
<path d="M64.7251 255.94C64.7251 255.94 64.5549 270.348 59.21 276.677H69.1051V255.94H64.7251Z" fill="#324DDC"/>
<path d="M73.1825 255.94C73.1825 255.94 73.6082 270.348 78.9531 276.677H68.8025V255.94H73.1825Z" fill="#324DDC"/>
<path d="M78.3193 235.677C76.2476 233.709 74.4313 235.819 73.6839 236.623C72.9366 237.427 71.4135 237.219 70.5905 235.828C69.9094 234.674 69.1242 234.655 68.8026 234.693C68.481 234.731 67.6958 234.693 67.0146 235.828C66.1916 237.219 64.6686 237.399 63.9212 236.623C63.1739 235.847 61.3576 233.785 59.2764 235.677C59.2764 235.677 63.5807 241.107 64.2429 246.726C64.9051 252.346 64.8389 254.985 64.2429 256.546H73.3623C72.7663 254.985 72.7001 252.346 73.3623 246.726C74.0245 241.107 78.3193 235.677 78.3193 235.677Z" fill="#324DDC"/>
<path d="M79.1234 276.677C79.1234 276.809 74.6204 276.923 69.0579 276.923C63.4955 276.923 59.002 276.809 59.002 276.677C59.002 276.544 63.5049 276.431 69.0579 276.431C74.611 276.431 79.1234 276.535 79.1234 276.677Z" fill="#263238"/>
<path d="M73.6555 258.504C72.0088 258.747 70.3423 258.83 68.6796 258.75C67.0169 258.83 65.3504 258.747 63.7036 258.504C65.3504 258.261 67.0169 258.179 68.6796 258.258C70.3423 258.179 72.0088 258.261 73.6555 258.504Z" fill="#263238"/>
<path d="M74.6488 256.092C72.7965 256.344 70.9259 256.436 69.0579 256.366C67.1907 256.446 65.3201 256.364 63.467 256.12C65.3201 255.877 67.1907 255.794 69.0579 255.874C70.9243 255.786 72.7949 255.859 74.6488 256.092Z" fill="#263238"/>
<path d="M76.8625 234.949C76.6076 234.925 76.3511 234.925 76.0962 234.949C75.3984 235.107 74.7492 235.431 74.2042 235.895C73.7953 236.215 73.343 236.477 72.8609 236.67C72.5627 236.795 72.2374 236.842 71.9161 236.806C71.5949 236.769 71.2883 236.651 71.0256 236.462C70.5497 236.03 70.104 235.565 69.6918 235.072C69.4908 234.859 69.2209 234.724 68.93 234.691C68.6391 234.658 68.346 234.729 68.1025 234.892C67.5644 235.272 67.0778 235.72 66.6551 236.226C66.4261 236.503 66.1362 236.723 65.8079 236.869C65.4797 237.015 65.1221 237.083 64.7631 237.068C64.1565 236.946 63.5999 236.646 63.1644 236.207C62.8135 235.876 62.4067 235.61 61.963 235.422C61.3049 235.189 60.5871 235.189 59.9291 235.422C59.4561 235.573 59.229 235.753 59.2006 235.715C59.1723 235.677 59.3709 235.46 59.8628 235.242C60.5605 234.928 61.3504 234.888 62.0765 235.128C62.5665 235.314 63.0209 235.583 63.4198 235.923C63.8045 236.295 64.2866 236.551 64.8104 236.661C65.0946 236.656 65.3739 236.587 65.6278 236.459C65.8816 236.332 66.1034 236.148 66.2767 235.923C66.724 235.38 67.2427 234.899 67.8187 234.495C68.162 234.287 68.5641 234.197 68.9634 234.239C69.3482 234.298 69.7034 234.481 69.9756 234.76C70.4959 235.251 70.8081 235.81 71.2527 236.131C71.4562 236.283 71.6952 236.38 71.947 236.413C72.1987 236.446 72.4547 236.414 72.6906 236.32C73.1441 236.154 73.5736 235.928 73.9677 235.649C74.5515 235.177 75.2563 234.878 76.0016 234.788C76.626 234.722 76.8814 234.939 76.8625 234.949Z" fill="#263238"/>
</svg>
