<svg width="50" height="50" viewBox="0 0 50 50" fill="none" xmlns="http://www.w3.org/2000/svg">
	<path d="M11.9583 33.3333C12.1875 32.3125 11.7708 30.8541 11.0417 30.125L5.97916 25.0625C4.39582 23.4791 3.77082 21.7916 4.22916 20.3333C4.70832 18.875 6.18749 17.875 8.39582 17.5L14.8958 16.4166C15.8333 16.25 16.9792 15.4166 17.4167 14.5625L21 7.37496C22.0417 5.31246 23.4583 4.16663 25 4.16663C26.5417 4.16663 27.9583 5.31246 29 7.37496L32.5833 14.5625C32.8542 15.1041 33.4167 15.625 34.0208 15.9791L11.5833 38.4166C11.2917 38.7083 10.7917 38.4375 10.875 38.0208L11.9583 33.3333Z" fill="white"/>
	<path d="M38.9584 30.125C38.2084 30.875 37.7917 32.3125 38.0417 33.3333L39.4792 39.6041C40.0834 42.2083 39.7084 44.1666 38.4167 45.1041C37.8959 45.4791 37.2709 45.6666 36.5417 45.6666C35.4792 45.6666 34.2292 45.2708 32.8542 44.4583L26.75 40.8333C25.7917 40.2708 24.2084 40.2708 23.25 40.8333L17.1459 44.4583C14.8334 45.8125 12.8542 46.0416 11.5834 45.1041C11.1042 44.75 10.75 44.2708 10.5209 43.6458L35.8542 18.3124C36.8125 17.3541 38.1667 16.9166 39.4792 17.1458L41.5834 17.4999C43.7917 17.8749 45.2709 18.8749 45.75 20.3333C46.2084 21.7916 45.5834 23.4791 44 25.0624L38.9584 30.125Z" fill="white"/>
</svg>
