<svg width="48" height="48" viewBox="0 0 48 48" fill="none" xmlns="http://www.w3.org/2000/svg">
<path d="M24 48C37.2548 48 48 37.2548 48 24C48 10.7452 37.2548 0 24 0C10.7452 0 0 10.7452 0 24C0 37.2548 10.7452 48 24 48Z" fill="url(#paint0_linear_656_1073)"/>
<path fill-rule="evenodd" clip-rule="evenodd" d="M23.7211 31.9371H25.2751C25.2751 31.9371 25.7444 31.8848 25.9844 31.6237C26.2049 31.3837 26.1979 30.9334 26.1979 30.9334C26.1979 30.9334 26.1675 28.8246 27.1351 28.5141C28.0894 28.208 29.3145 30.5521 30.6129 31.4535C31.5948 32.1354 32.341 31.9862 32.341 31.9862L35.8132 31.9371C35.8132 31.9371 37.6295 31.8238 36.7682 30.3796C36.6977 30.2617 36.2665 29.3114 34.1865 27.3589C32.0091 25.3153 32.301 25.646 34.9236 22.1111C36.5208 19.9584 37.1592 18.6442 36.9597 18.0814C36.7696 17.5451 35.5948 17.6868 35.5948 17.6868L31.6854 17.7112C31.6854 17.7112 31.3953 17.6713 31.1806 17.8013C30.9704 17.9284 30.8356 18.2255 30.8356 18.2255C30.8356 18.2255 30.2166 19.8912 29.3917 21.308C27.6509 24.2973 26.9547 24.4555 26.6701 24.2696C26.0081 23.8369 26.1735 22.5318 26.1735 21.6044C26.1735 18.7074 26.608 17.4995 25.3274 17.1868C24.9025 17.0831 24.5895 17.0145 23.5026 17.0033C22.1076 16.989 20.9272 17.0077 20.2586 17.3389C19.8139 17.5591 19.4707 18.0498 19.6798 18.0781C19.9383 18.1129 20.5233 18.2378 20.8335 18.6646C21.2343 19.2159 21.2202 20.4536 21.2202 20.4536C21.2202 20.4536 21.4505 23.8639 20.6826 24.2873C20.1557 24.5779 19.4328 23.9848 17.8808 21.2727C17.0857 19.8836 16.4852 18.3479 16.4852 18.3479C16.4852 18.3479 16.3696 18.0609 16.163 17.9073C15.9125 17.7212 15.5625 17.6623 15.5625 17.6623L11.8474 17.6868C11.8474 17.6868 11.2899 17.7025 11.085 17.9478C10.9027 18.1661 11.0704 18.6171 11.0704 18.6171C11.0704 18.6171 13.9787 25.4983 17.2721 28.966C20.2922 32.1458 23.7211 31.9371 23.7211 31.9371Z" fill="white"/>
<defs>
<linearGradient id="paint0_linear_656_1073" x1="-3.87785e-07" y1="23.935" x2="48" y2="23.935" gradientUnits="userSpaceOnUse">
<stop stop-color="#9C58A1"/>
<stop offset="1" stop-color="#F5518D"/>
</linearGradient>
</defs>
</svg>
